/* XPM */
static char *_____________[] = {
/* columns rows colors chars-per-pixel */
"64 64 256 2",
"   c #07560D",
".  c #0F6515",
"X  c #276818",
"o  c #336813",
"O  c #065B27",
"+  c #2F5C2D",
"@  c #02662C",
"#  c #046935",
"$  c #196A30",
"%  c #286B29",
"&  c #326C2C",
"*  c #386928",
"=  c #35722A",
"-  c #296935",
";  c #356C36",
":  c #377337",
">  c #2B7230",
",  c #2B5C08",
"<  c #497033",
"1  c #6A721F",
"2  c #3C1452",
"3  c #2E1D73",
"4  c #1C286E",
"5  c #28276A",
"6  c #292977",
"7  c #342A76",
"8  c #2A3277",
"9  c #363778",
"0  c #342E6D",
"q  c #28255F",
"w  c #491859",
"e  c #5A1C59",
"r  c #47184E",
"t  c #621C55",
"y  c #59235B",
"u  c #6B275C",
"i  c #4D1C64",
"p  c #631D63",
"a  c #482669",
"s  c #592667",
"d  c #523073",
"f  c #642767",
"g  c #662A78",
"h  c #733376",
"j  c #387542",
"k  c #3C694A",
"l  c #3A4973",
"z  c #225E51",
"x  c #4A7155",
"c  c #484B78",
"v  c #5B7577",
"b  c #546C6D",
"n  c #65747D",
"m  c #59624E",
"M  c #B70102",
"N  c #AC0802",
"B  c #D50306",
"V  c #D70618",
"C  c #CD0A11",
"Z  c #E80F15",
"A  c #FB2706",
"S  c #FA3706",
"D  c #FB3916",
"F  c #ED2D10",
"G  c #D41225",
"H  c #FC1C32",
"J  c #EF0C29",
"K  c #D32536",
"L  c #FC263C",
"P  c #FC3839",
"I  c #FD3D26",
"U  c #DD230A",
"Y  c #917B18",
"T  c #FB4609",
"R  c #FC4818",
"E  c #FC551A",
"W  c #F95108",
"Q  c #FC6706",
"!  c #FB6716",
"~  c #FC780B",
"^  c #FD4A25",
"/  c #FD5324",
"(  c #FC5C25",
")  c #FE5C2B",
"_  c #FA5727",
"`  c #FD4736",
"'  c #FC5A35",
"]  c #FD632D",
"[  c #FA6628",
"{  c #FE6333",
"}  c #FC6A34",
"|  c #FB6535",
" . c #FF7826",
".. c #8F2B5B",
"X. c #B6375B",
"o. c #8C2D6C",
"O. c #AD3668",
"+. c #FD1B48",
"@. c #D93749",
"#. c #D53C59",
"$. c #FC244B",
"%. c #FD2B4C",
"&. c #FB2645",
"*. c #E43A4D",
"=. c #FA354B",
"-. c #FE2C53",
";. c #FE2D5A",
":. c #FD2555",
">. c #E73B56",
",. c #FD3254",
"<. c #FD345B",
"1. c #FA3959",
"2. c #E32B45",
"3. c #FC3661",
"4. c #FD2F60",
"5. c #DB3B6B",
"6. c #B54674",
"7. c #D6445A",
"8. c #FB474A",
"9. c #E8465A",
"0. c #F8465A",
"q. c #FB5046",
"w. c #D94D6A",
"e. c #E74A65",
"r. c #FB4868",
"t. c #FA5A77",
"y. c #EF546B",
"u. c #F5647A",
"i. c #79872A",
"p. c #AE9627",
"a. c #9C9322",
"s. c #C6991A",
"d. c #CB940D",
"f. c #FE9918",
"g. c #F9920A",
"h. c #D4A610",
"j. c #FDAD04",
"k. c #FAA808",
"l. c #FEB303",
"z. c #FEBA02",
"x. c #FEB30B",
"c. c #FDBA0C",
"v. c #F4B608",
"b. c #FDAA15",
"n. c #FDB815",
"m. c #ECB30E",
"M. c #C49725",
"N. c #FC8E25",
"B. c #D2AF23",
"V. c #F9B825",
"C. c #FAC70B",
"Z. c #FDC414",
"A. c #FCCC14",
"S. c #FEC41B",
"D. c #FDCB1C",
"F. c #F6C915",
"G. c #FED31C",
"H. c #FAD415",
"J. c #F8D010",
"K. c #FDC923",
"L. c #FDD323",
"P. c #EEC922",
"I. c #2E3688",
"U. c #363A89",
"Y. c #343B92",
"T. c #373C97",
"R. c #2D3089",
"E. c #443B89",
"W. c #513B8C",
"Q. c #783987",
"!. c #7D3C98",
"~. c #69398A",
"^. c #7D3DA1",
"/. c #39428B",
"(. c #3B449B",
"). c #394698",
"_. c #2F4D91",
"`. c #3E4DA2",
"'. c #3853A2",
"]. c #454689",
"[. c #42469C",
"{. c #444A9D",
"}. c #454796",
"|. c #49529B",
" X c #54538F",
".X c #714593",
"XX c #5B678D",
"oX c #6A778B",
"OX c #686A98",
"+X c #6B7697",
"@X c #747999",
"#X c #6F708D",
"$X c #444CA2",
"%X c #484BA4",
"&X c #4751A4",
"*X c #5455A5",
"=X c #6F4EA5",
"-X c #6D79A6",
";X c #757BA5",
":X c #717AAD",
">X c #853C8B",
",X c #8C3B8F",
"<X c #87428E",
"1X c #8B4A9D",
"2X c #894698",
"3X c #94499A",
"4X c #96529E",
"5X c #914C92",
"6X c #AB5491",
"7X c #8D4BA3",
"8X c #8A4AA8",
"9X c #924DA3",
"0X c #984DA7",
"qX c #9453A3",
"wX c #9B52A5",
"eX c #9B52AA",
"rX c #9353AB",
"tX c #8851A4",
"yX c #AA54A3",
"uX c #A36E9F",
"iX c #CE5883",
"pX c #D26997",
"aX c #FB6985",
"sX c #FD748C",
"dX c #FE7C9B",
"fX c #FC7894",
"gX c #EC7193",
"hX c #D271AB",
"jX c #ED7DA7",
"kX c #FF5F81",
"lX c #77859A",
"zX c #6B808E",
"xX c #7B86A7",
"cX c #7C86B2",
"vX c #848A9C",
"bX c #828CA4",
"nX c #828CAB",
"mX c #8789A9",
"MX c #8A93AD",
"NX c #8593AA",
"BX c #868CB2",
"VX c #8B94B3",
"CX c #8A95B6",
"ZX c #9198B1",
"AX c #FD839C",
"SX c #F8889D",
"DX c #FD84A4",
"FX c #FD8AA5",
"GX c #FE8CAC",
"HX c #FB87AA",
"JX c #FC91AD",
"KX c #FC93A5",
"LX c #FD8EB1",
"PX c #F48AB2",
"IX c #FE92B1",
"UX c #EF80AB",
/* pixels */
"e e r r w r w a y u ..6.X.7.w.y.y.y.t.y.9.K G Z G J T g.d.c l X.} d.m c y w i o.O.#.1.0.0.0.8.>.>.2.2.K G C C C M M M M M N N N ",
"2 r r t u ..X.X.w.7.e.y.u.u.t.u.r.e.*.K B Z Z U A Q k.d.k XX8 X.P k.d.l b l 3 3 3 p ..O.w.r.0.r.r.0.0.9.9.0.@.@.K K K C C N N M ",
"....X.7.7.9.9.y.y.y.y.u.y.y.9.*.G J B B G D I T g.b.d.$ n c a w.%.W v.Y z XXc 3 a d a i s o.O.5.9.9.e.9.9.>.9.9.*.>.*.@.@.K K G ",
"e.9.e.9.9.e.e.e.w.y.w.e.7.G B B V V F F S A W k.j.d.  b XX5 g iX=.A f.m.1 z #X X9 5 0 s s d w e ..X.5.0.0.9.9.0.e.7.#.>.>.#.#.#.",
"7.7.7.w.y.w.y.y.9.@.K B B B Z J Z F R S S ~ j.j.s.  k OX].7 g iX0.B Q V.d., k OX X9 q 5 a d s s i w f ..X.5.9.9.9.9.>.>.#.@.@.@.",
"e.w.w.w.y.9.@.K G B B V V G Z F F T A W g.m.j.M.  - #X+X9 7 o.u.r.Z F g.z.d.  b #X#Xc 6 4 0 a f f g s a i p o.O.#.e.>.1.>.@.@.*.",
"9.9.7.@.K C C B V J J V Z F F S S A Q k.c.l.s.. @ #X#X X5 W.o.u.r.J D Q j.v.Y   b #X#XXX9 5 5 0 d d f p p p i i t ..X.#.>.>.*.@.",
"@.K C C B B C V V V U F D S S S R g.j.x.x.s.O   b #X#X9 7 d o.aXt.Z F D g.k.k.1   x @XoXXX/.6 6 5 0 a f u f t y i w w t ..X.#.#.",
"B B B B G V V V Z F S S T T A Q k.l.m.c.s.- . m +X@XXX5 E.~.O.u.t.J F R Q b.x.h.X   x +XOXoX X5 4 8 8 7 s f p s u f e w i r t ..",
"C V C C V V Z U F A T S A S g.k.x.j.x.s.. . ; n @X;Xd R.d ~.6.aXu.H J R T g.n.v.p.O , b +X@X+XXX9 3 6 8 5 5 a p p p f y e e 2 2 ",
"C C V G V U S S S S T S E g.b.k.j.x.d.# $ * v lXlXOX0 U.g g 6XaXu.L J ^ S ~ n.C.j.Y   o m +XOX@XOX X7 3 0 8 R.0 s s s e e s r r ",
"V C C U F S S T T D A Q j.v.v.x.c.M.# % o b @XmX@XE.8 W.h g iXsXaX=.J P T T f.c.z.k.<   , b -X@XoXoXXX9 5 0 6 6 5 0 s w p p e e ",
"V U A S S D D S A T g.l.x.x.v.z.s.@ - o j uX:XlXXX9 I.d h h iXsXgX=.J L R S ! b.F.z.h.@ X , b -XoXoXoXOX].5 0 R.5 4 8 a e e s i ",
"U S S S S D S A Q k.l.l.v.v.z.s.# & o ; oXlXxXlX].U.U.~.h h iXfXfX0.J H ^ W D b.J.n.v.a.O X , b cX#X+X@X#Xc 0 6 9 8 8 8 5 i s p ",
"S S S S T S T ~ j.x.x.x.c.z.s.@ $ : X n zXxXuXOXU./.E.Q.h Q.aXsXsX0.J H I E D ! n.Z.n.C.Y O * . b lX@XoX+X@Xb I.6 7 q 5 4 4 5 a ",
"S S T S A E g.j.b.v.z.x.c.p.# % < X x oXmXvX+X XR._.d Q.Q.~.u.sXu.t.J +.P / E T f.C.C.z.h.* O o , b :X@XOX+X+XOXl 5 5 7 5 5 4 4 ",
"S S S S Q k.v.j.v.j.n.C.M.$ $ = % j #XmXvXBXOXU.E./.d Q.>Xo.gXsXdXy.H H L R E _ [ n.C.c.C.s.@ & o , b lXOX@X+XoX+X X8 4 6 5 5 5 ",
"S A S g.j.v.j.l.x.n.z.s.@ - < > ; v vXbXbX@X XR.U.U..X>X>X<XgXsXdXt.H H H ^ E E D k.A.Z.J.n.a.@ % % X n -X;X;X#X#X@XXX9 6 R.5 q ",
"A W g.c.x.c.x.b.c.c.s.# + < ; % x vXvXmXnXOXE.U.U.]..X>XQ.5XsXfXdXu.L H +.P E E ^ ! x.C.n.Z.v.1 # = % X v ;X;X@X@XoX@X+X].6 6 7 ",
"~ k.l.l.j.l.x.v.v.M.# % ; ; = x @XvXvXbX;X XU.E.9 ~.>X>Xh 6XsXfXdXaX&.H $.L / E E ^ f.A.n.F.C.B.% $ = X X v lXlX;X+XoXoXOX].6 6 ",
"v.l.x.j.j.n.n.z.M.@ > > : < : zXBXvXbXxX:XE.U.].U.~.<X<Xh 6XfXfXdXsX=.H $.&.^ E E E ! n.D.A.C.A.p.@ X ; - X v lXxX+XoX-XOX+XXX0 ",
"k.x.v.l.x.v.z.p.$ % < & j = v lXuXmXbXnX*XE.}.Y.E.~.,X,X~.iXfXfXdXfX=.H %.+.I ( ( E R f.D.J.C.Z.F.i.@ < > X o b -XlX@X@X@X#XoXXX",
"l.x.x.x.v.c.s.@ $ ; : : = x xXNXcXcXbX:XE.].E.Y.W.Q.<X<X~.iXAXfXdXdX0.H %.&.P / E [ _ [ V.H.A.v.C.V.< # * % * X n lXlX@X@X#XoX+X",
"x.k.b.n.x.s.# % : = : : j zXMXlXVXlXNX XT.E./.)..X>X<X<XQ.iXfXdXdXdX0.H %.H =._ _ ] E I N.J.A.A.H.A.B.@ & ; & % + v xX;X@X;X+XXX",
"b.b.v.C.p.@ % x = : ; > v BXuXxXNXNX@XE./.U./.E.>X<X>X!.,XpXAXAXdXdXr.+.$.&.&.` [ / E ^ { S.A.A.D.F.G.p.# : - : & , v uXoX-X@X+X",
"v.l.v.h.@ - * ; : j = x xXbXcXxXMXNX*XE.(.]./.}.>X<X>X!.,XpXAXdXAXAXt.H &.%.$.P [ / E ) ) f.H.A.C.P.H.m.i.# < > : = % v lXzX+X+X",
"z.c.s.@ - < > < : = < lXMXNXxXNXBXxX}.].{.}./.~.>X<X<X!.,XgXSXAXAXdXt.+.&.%.%.P ) ) ( ( _ [ n.D.D.Z.L.A.B.> > j $ - > > v lX+X@X",
"c.M.@ - : > : j : = zXcXNXMXcXMXmXXXI.[.[.}./.~.>X<X<X!.5XgXdXdXAXAXaX+.&.%.%.L ' ( [ [ _ / f.H.D.C.F.F.J.B.# : : - : % + oX;X;X",
"s.@ % ; ; - > j = b MXmXbXVXcXZXuX_./.(.}.}.}..X<X<X<X>X4XdXAXDXAXDXaX$.L %.%.&.8.[ [ ( ) ' ! n.H.C.D.S.A.J.a.# < ; - : X ; XXlX",
"+ - * % j ; : = x lXZXBXmXVXCXcXOX).}.{.}.).W.,X,X<X5X^.6XdXDXdXAXDXfX%.L %.=.%.=.' [ E ' ] ^ f.H.G.Z.G.F.D.m.< # < = & - % % b ",
"% ; ; > < j ; : zXNXMXBXMXMXZXuX(.T.}.}.[.T..X2X5X<X3X!.6XAXDXDXAXDXfX,.L %.%.-.=.' [ ) { [ E [ K.K.D.J.J.F.L.B.# : ; = ; ; $ o ",
"& & > & j : X zXMXNXcXMXmXvXZXOXT.$XT.].[.)..X2X,X<X5X^.6XAXAXDXDXDXdX,.L %.%.:.%.' [ ] { ( [ ` N.L.L.F.H.H.K.L.p.@ j & & * - % ",
"- & > j j & x bXbXbXBXCXVXCXnX}.}.[._.{.`.W.,X5X7X,X2X^.pXSXDXHXDXDXAX3.$.,.-.%.:.8.{ ) { [ ) ] ( K.K.H.D.D.G.D.D.a.# ; ; > ; % ",
"& : = : ; j zXNXbXBXBXBXMXCXOX}.}.{.).}.`.*X,X2X7X,X3X^.pXFXAXdXDXDXAXr.$.,.-.,.-.=.{ ] { } ) ] ( N.L.H.D.K.G.A.P.B.< $ : - % % ",
"= - : : : oXbXNXNXBXVXnXMXcX|.U.}.{.{.}.`.^.3X2X,X7X5X2XpXHXDXDXHXDXAXr.$.=.-.-.-.,.' { { | ] ] [ [ K.H.D.K.D.J.S.H.B.O : > % % ",
": & j = x cXbXnXnXBXVXCXVX+X[.}.{.%X{.).{.^.2X2X7X3X2X8XpXFXAXHXHXDXSXt.$.,.-.=.,.<.8.{ ] { | ] | _ f.G.D.D.L.H.P.H.C.a.# = + - ",
"> j % x xXbXcXnXBXbXCXCXBX|.[.{.}.{.%X}.}.0X3X3X3X1X3X3XgXHXSXHXHXDXFXt.+.<.,.-.,.,.8.| { | } ] | ) [ V.L.D.G.G.G.K.A.P.< # < - ",
"; > & zXNXxXMXBXCXMXCXCX-XT.{.$X{.{.{.{..X3X7X3X7X9X7X3XjXKXSXHXHXHXKXaX$.<.,.,.<.-.<.' [ { | ] | [ _ N.L.P.G.G.D.S.A.S.V.$ $ ; ",
"> : v xXBXMXMXMXCXVXZXBX*XT.$X$X$X{.(.&X2X3X9X3X9X9X2X0XjXFXDXHXGXHXKXaX$.<.,.-.,.<.<.q.[ } } | ] ] ) } V.G.G.G.S.J.S.A.D.p.# ; ",
"X x lXxXBXCXNXMXCXNXZX:XT.&X$X%X$X&X).&X2X3X0X3X9X9X3X3XDXJXSXGXGXGXKXsX:.<.1.-.<.,.;.q.[ ] | [ { } | _ N.G.G.G.H.K.A.A.L.D.1 # ",
"m zXxXxXMXNXMXZXCXZXCX&X(.}.(.&X{.%X).=XqX3X4X4X9X3X7XyXHXKXGXHXFXGXGXdX:.>.-.-.<.<.;.1.} } } [ [ [ { _ ' n.A.K.L.J.J.C.D.A.B.1 ",
"v xXNXxXNXNXnXMXZXZX:X`.|.).%X%X%X%X{.=XqX3X4X0X0X4X7XyXFXJXGXGXFXGXLXdX1.=.<.;.;.1.<.<.q.} ] } { { [ | ' f.G.G.K.D.L.K.F.C.S.B.",
"xXxXxXNXNXCXCXVXZXCX%X$X|.{.{.$X%X%X&X=XeX4X4X0X0XwX9XyXHXJXGXGXFXGXLXDX1.1.<.;.4.1.<.<.8.} } [ { } [ | ' ) n.H.K.K.L.K.S.F.K.C.",
"cXxXNXNXNXCXBXVXZX:XT.$X|.|.{.$X*X$X*X9XwXqX3X0X0XwX9XhXKXJXIXGXGXLXLXDXr.,.<.<.4.1.1.-.1.} } } | } ] ] ' ' N.G.L.A.J.A.S.D.S.C.",
"cXxXNXNXMXCXBXVXNX*X(.&X(.$X&X%X%X|.=XwXwXqXqXeXwXwX8XhXKXJXLXGXGXIXIXHXt.-.<.3.<.1.1.;.<.q.} ] { } | { | ' ( V.H.G.J.J.F.D.D.C.",
"cXNXxXcXCXcXxXCX:X(.%X{.$X`.&X&X&X*X=XwXwXwXwXeXwXeX8XhXKXHXGXGXGXIXIXGXt.%.3.3.4.1.1.;.3.q.} [ } ] ' { { ] ' N.H.L.J.H.D.S.D.Z.",
"nXxXxXMXCXNXCXCX*XT.&X{.$X[.$X%X&X*XwXqXwXeXeXrXwXeXtXhXKXKXGXLXGXIXIXGXt.-.1.3.<.1.<.<.<.0.{ } } ] ] } ] [ { ) V.L.D.D.A.S.S.Z.",
"xXnXxXCXxXNXxXcX(.[.`.|.$X$X$X%X`.*XwX4X3XeXeXeXwXrX7XUXKXPXLXIXGXIXIXLXt.:.1.3.<.,.1.<.;.1.} ] } { [ ] [ ' [ `  .G.H.D.Z.S.A.n.",
"lX;XBXBXxXNXVX*X).'.$X{.{.`.%X`.{.tXeXqXwXeXrXwXwXrXyXUXIXPXJXIXIXIXIXIXsX:.r.<.-.1.3.0.3.:.q.} { ] ] ] ) { ' ) ^ V.G.A.K.F.S.S.",
"bXnXcXBXnXNX+X).).{.$X{.$X$X%X'.&X8XwXqXwXwXrXeXeXrXyXUXIXIXJXIXIXIXLXIXfX:.<.<.<.<.3.3.<.;.8.} ] } ] { ] ] ] { _  .G.G.S.S.A.Z.",
"xXbXxXnXNXcX|.Y.(.[.(.`.{.%X%X'.*XtXeXqXwXeXeXeXwXrXyXUXIXIXJXLXIXLXLXIXfX:.1.<.1.<.3.<.1.;.1.| } } { ] ] ) ] ) ) ( n.H.S.n.C.S.",
"xXlXxXxXMX:X/.(.{.[.$X(.{.%X{.'.=XrXeXqXwXwXrXeXeXwXuXPXIXGXJXJXIXGXLXLXfX4.<.<.,.<.3.<.,.<.<.' { { } { ) ] ) ) ) ^  .D.D.S.C.Z.",
"xXxXxXxXxX-XT.T.[.[.[.(.`.$X$X`.=XwXwXqXqXeXrXeXeXrXpXPXIXIXGXIXIXLXJXIXdX3.<.<.,.<.<.<.1.,.:.` { { { ' ] ) ( ) ( ) ^ b.D.Z.Z.S.",
"lXxXcXxXcX).T./.T.(.[.`.{.{.$X%XtXeX0X9XwXwX0XeXeXtXyXLXIXIXLXJXJXIXIXIXDX3.;.<.<.<.3.4.<.-.:.8.{ { { { ] ) [ ( _ ) ^  .S.Z.Z.n.",
"+XxXxXxX&XY.T.).(.(.(.$X`.`.`.=X4X9X9X9XqXqXwXeXeXrXpXIXIXIXGXIXJXLXIXJXDXe.:.<.<.,.;.3.<.:.-.%.{ { { { ) ( ( ( ) ( / / f.S.S.Z.",
"xX+XxX-X_.Y./.).).).(.$XT.).'.=X3X9X9X9XwXqX9XeXeX8XuXIXIXLXLXGXIXJXIXIXDXr.;.<.<.,.;.1.<.%.,.-.| ) ) ) ) ) ( ( / _ ( R ~ Z.n.C.",
"-XcXlXXXR.T.).Y.).Y.'.`.T.(.`.2X9X1X9X9X9X9X9X9XwX8XhXGXIXGXIXGXGXHXLXLXHXt.+.;.;.,.<.;.-.-.%.-.P ) | ) ( ' ( E _ ( E R I k.C.n.",
"-XlX+X/.I.Y.Y./.T./.).).`.T.$X2X9X1X9X9X9X9XqX9XwXrXhXGXLXGXIXGXFXJXLXHXJXt.+.<.,.<.-.-.-.-.-.%.=.' { ) _ ) ) ( / ( E E ^ ! S.S.",
"-XzX X8 Y.Y.Y.Y.T.).T.).).).%X3X9X7X7X7X9XqX9XqXwX8XhXGXGXGXIXGXFXJXLXGXHXkX+.;.;.-.-.-.-.-.%.-.&._ ] ) ( ' ) / / / E / / D f.C.",
"+X-XI.I.Y.Y././.T.).Y.).).).!.1X1X1X1X1X1X9X9X9X7XqXjXGXGXGXGXGXFXIXLXHXIXaX+.-.-.-.-.-.-.-.%.%.$.` ) [ ( ) _ _ ^ / / E E ^ ! n.",
"zX|.I.I.Y.I.Y.Y.Y.).Y._.T.T.=X1X1X1X1X7X1X7X7XqX1XwXjXFXPXGXHXGXHXLXLXHXIXaX+.:.:.-.-.-.-.%.%.%.+.P ) [ ( ( / / ^ / ^ R R R T f.",
"OXI.I.I.Y.R.I.I.Y.Y.U.Y.Y.(.>X2X7X2X2X7X1X1X1X7X1X4XjXFXLXFXHXGXDXLXLXHXJXsX$.:.%.%.%.-.%.%.%.%.+.%._ _ ) ( _ / / E ^ E R W R E ",
"].8 8 I.I.I.Y.I.Y.I./._.T.~..X2X1X2X2X2XtX1X1X7X2XyXAXDXPXHXFXHXHXHXGXdXHXfX:.%.%.-.-.%.%.%.$.&.$.2.P [ ( E / / / R ^ E R R E R ",
"9 I.4 I.I.R.T.Y.Y.I.Y.Y.T.!..X2X.X2X2X2X1X1X1X7X.XyXAXFXPXDXFXHXHXHXGXHXFXdX:.$.-.%.-.%.%.$.$.$.L +.P _ ) E / / W E / R W ^ T D "
};
