/* XPM */
static char *Free_Converter_com_brique_sable_3321518[] = {
/* columns rows colors chars-per-pixel */
"64 36 34 1 ",
"  c #776E59",
". c #7D745E",
"X c #7F785E",
"o c #7E7660",
"O c #7F7862",
"+ c #817762",
"@ c #847C65",
"# c #887E67",
"$ c #867E69",
"% c #897F69",
"& c #898167",
"* c #87806A",
"= c #8C836D",
"- c #8F886F",
"; c #90866E",
": c #91896F",
"> c #8E8671",
", c #8F8872",
"< c #908771",
"1 c #938B74",
"2 c #998E76",
"3 c #958E79",
"4 c #988F79",
"5 c #979077",
"6 c #999176",
"7 c #96907A",
"8 c #9B937B",
"9 c #A1977B",
"0 c #959180",
"q c #9C9682",
"w c #9F9880",
"e c #9B9888",
"r c #A09780",
"t c #A29A83",
/* pixels */
"213>@$%=>118231<1,>>#=<134qw8w7,=3><111<>1>>:=*&#>*#1571:>,12112",
"213=@%$>,1343221<1>&#>11238tw882=0111111,1>=;:*&#>=%,11>>*&>>:11",
"421<%$$=>,74321,1,>*#<118888t972>0,111<31-<,->=&%===*21=>>=;>;<1",
"413,%*=>>38q221,11&%*1124qr8tt81=,111<,,;>,;>>:*%*=%&>,>>=>=>><<",
"221,*>%,,18w1>1-,>>=,,1323889t81=><<<1<1,,<<::>>*,<*>>:52:;:;::2",
"1:,,%&,,==,71>1,,=*1112132828t97,=,<<<<,,,>=>>=>,3,&;=:222:=:11:",
"111121,1=>,3,,3,,32318w1,23288773>,<<=131111:,<111>>1:111,1,:12:",
"61*;211,%,11,>1,28888888,,88w9711,,=<=,,1<112=**=*>,===&=&>1=&;2",
"::*>1&===,>&%$$@*1286898<<223<11,=&%=<>>12112-->><<;&&*#===,,%*=",
"=-=*1====,,*%%@@>112268q12221,,21&====%*=1122111;111==>&-==,%#=@",
"=,=-11=>=<>&%@@$>>378898222111<<<;=%;=*=*>>15821:,14<21:-==>=*&&",
"===121:><>1;*%$>*>2248982211,<,,;;;%&>*=>%#;211,>=<212:>==*->%&*",
"55121,<>-=12>*=:1-,15897111>>>>,>;=#&*#*&=%*111>=21892=:>*-1-==-",
",,787>,>==-21%&27318773,,11<>>>$>,1>11,*==%#%,113723381&&*=-1===",
",,,1,,11--:1,:1211,117,317,,33,,1331,=,,=,,<=*>>,131111*,2,11,,,",
"->,11125=11;111111=*=128,=%%%$$$*,>%%@$=#%=,,>##***,>#%>>**-1,,1",
">>>11122,>>128211-:==:56,%%%$$$$$$$$$@$>#==*==#*>*&=>%%>>$=>=;>>",
"*>;<1242&>=18821111:1655,%$$$$$$0,O@@@$>**#***@***&&>%%>===,<1=*",
">;,>1221&<>:2868226268-2<===%$%$O$O@@@$*=&*==:,==%1<>$%3====<<1=",
"&:>>;1<;:*&*124255651,*>==,,,>$$$O@@>%>>=,*>1111,,=,==,3,*===%,=",
"5222211<>=>:1=*-1,,1115337333,==$,,,,,311,=,1>**>,==<<<,,,,31313",
",,-:21:>*=>>%&@X*%%*=:33rt7<1->=$$$$%$$%=%%=,####@%;:&%&%<,%&=,=",
",,152:>;**>*@@*@X@$O@=37tt7>=,,=>%$$%%%%%=%*,%%;&==;;;;<=3,$$>%%",
",,156;>>$*=%@@@XX@#OO>38800>=1,=>%$$%,=%,,==,#%%&=%%=;<<<3,$$$$=",
",,1585:-&#==@@+O@@OO$%0040r%*,1>=%%*===<=,=>>$%&%=;&=<<<=3,%@$$>",
"-11586:>*#==@#*=*@O&$,040qq3>132,,==,===>=,%$%=&%=%;<><==83#$@$>",
"=;:68:,=&@=*#%==##@*%,784q018771<<,,,,<<,,=%%##*=;===,;;>1,#%$$,",
"1-;61-1%O#*,=***##&*%170404q98773<<>,<131,=@%@#*#;;;;;;;;<=*%%%,",
"==*=*=>%+&*-=##**=##*17344<383,31,,1==,>,,%O$,,,<<17831331&@@@+$",
",,,,,,1,,,15,11,>,1=1,,,343388885,1,,11<,>=>>>>><<>3q700ee8<3,,=",
",,-1,*==>526211=&=::=*=><3338ww988272<=1=*$$@++o $%%&21;10:2211<",
"1111*##@+-1:,=@#=>=>*%*=<<%<8q77878741=,$O@$$@ooo+>=2242,,&11;<1",
",211=**OO=*=>**$@=*>*#;>,82681,18877751==#%%$$OO.o,86:124,>;>;11",
"1321*O$OO=--,>$$$$@=*#-129888,28887158,*%=%@O$%%.o1891194,&>;>>,",
",1,,*O***>,1=>@OO%#*1>188q88889wqw83281-===*@@@$O+3898288,>::=>>",
"-13,=$OO$*-1*%@@%%&=11899888888878w1675-=>*==$$@@@1888284=:1:>=*"
};
