/* XPM */
static char *Free_Converter_com_brique_sable64_50761827[] = {
/* columns rows colors chars-per-pixel */
"64 64 35 1 ",
"  c #7B735D",
". c #7F785E",
"X c #7D7561",
"o c #80795F",
"O c #847C65",
"+ c #887E66",
"@ c #867E69",
"# c #8A7E69",
"$ c #878066",
"% c #898167",
"& c #878169",
"* c #8B836C",
"= c #8F886E",
"- c #90866E",
"; c #91896F",
": c #8E8671",
"> c #8F8972",
", c #8F8979",
"< c #918671",
"1 c #938B74",
"2 c #988E76",
"3 c #968E79",
"4 c #998E79",
"5 c #979076",
"6 c #999177",
"7 c #979179",
"8 c #9A937C",
"9 c #9F987E",
"0 c #A1967D",
"q c #A2987D",
"w c #979181",
"e c #9D9681",
"r c #9F9882",
"t c #A19983",
"y c #A39B88",
/* pixels */
"223*@@@<,<35351:>1-***>127ee884>:1>>7131<1>>-**+@*&*14351:<16513",
"424#O@##<,33332<-1-***<1188tt875:3,>3>,1-1>--**++&@*<335>**>5112",
"312*X*@:,34431111>****>2788yt833>3>1,>111>>:>-*++**&-55>***:>>:1",
"332*@@@*<333332111****15778qt835>33,312,1>>->1**@:***2>-***<<:<3",
"435=O&@,:,88351111-#*:11888rte35>3,>31,1>>->>>**+>*&*>1***<>*>>1",
"743=@*&*:1e874211>***:15880rtt42:3133<,<<>-:->**O=*+*>>>>-***:-1",
"735:&**>:2e875>>>>*@*:1328rrtt02&,:1312:*<>->-**O****-<>*>-*--<>",
"511>=**>:,e841<:>:***<235888tt8<&>:1,1,1-111>>--@******1>>>**>>>",
"221**&&><<7r>*2:3**>1::54888ty02>=>1>121-;;;>>;>,<>**=>262;;;;;5",
"<22*=>>,**38225<>::,112247480tr71*>1::>>>>11<:**:>>**17866>>;55;",
"*1:*@*&**+:1:::*+=**:37,22777r88>**=**:*::*****:3<::=***75:*=55=",
"5877w877>*>5>151=55238e3=:15245>7><>:>218443,7787311555845><;255",
"2<*>73>>*<15214868998884178tyy8781>11152>>131:*@#@*:;==;>*:1;*>8",
"8;*>5=:>*:1>***:26688777:>78885>>****->-<,33,>*@::::=%$$#@#>-+*5",
"6;%-=-***>1**&@@*>5809q9:<5332211****-<>112><<>==*:****$:**5>%%;",
"--%%--*-*>**+O+&*>56888852432<122*@***:*>2155>--*2>-%*$+:&*=;*$%",
"--*#:****>>*@@OO::2358881555511,>**+****=511252;>*>5@+*=**=****+",
"*-::11*:-><*@++O>>37378855;11=>22*****+*=;;25551>>52<:>*:**-*@@+",
"*<:>31:*>>=*+O+&*<5888r855511>>1>****>@*=*=15522><32255*>*****@+",
"***122>**>*=@@&**:5378e055551>>2>****>@==%*>5511::2<<5>=:***=*&&",
"=-*;111>==>;=@$=*:1348r85111>>>>>*******:$$>1,1>*=;22;;;*****&@*",
"1;151:>>==21*$$=>:>248r851;;->>,;-*+**+***&=121>-;2602-;*=<>****",
"51582<<*==15>%-15<<148r8522**>>>->:***@@***&:<><=22606--**<21**<",
";=582>1>*=15;-*58355488<=2><;<:&***@*******@*11*162208--*@*>>==*",
"1387,<,>**:1<**:<:3384:>*>>>,&:><><332:***%+&*15787133>$&*:::*:>",
"=>>,>:<1>:<<:::1751157137e8,,,3778331111*-:*****,,77551=3,31,>>:",
"=>>><114><11111241:@>5>53,:&>>:,1,,:@O****>>5*@*&=>1>&%*>>>>3>,>",
">>>>1<24>1>:>1255>***157,:@O**X@#><*Oo@*O#*>>****&:;*&O*&&*=>>>7",
"==>>2;12:<>>145>>>>**558>=*@*@@@@@@@@OO#+***==&&*&%=*@*:**&=>;;;",
"==:>1224**<>273<;1;%->;6::@@@@@@,@@@OO@*****@**&*&&=,**:****>>::",
"&*:12244**>17872215=;558:**@@@X@,@@@@@@>&@&&@@&&*%%*@@**=**=:=**",
"==:<2221>-<58r82225;561;*&@@*@X@,@@OO@@**&+*&+&%&%*****:**=:>==%",
"=<<#<06;*:::488765262523,#*:@@*@@@@@@OO@****-<<:#*:>:O&1=&**>>1<",
"#><:166;****3808656661:<>*><*@*@X@XX@@@#****-11:=*:>:&=>::**-:*;",
"@:::#<;->*&:548766786>*,,:,<,*#O@@@@#:,#&*=*<11:>>:&&*:5:*******",
"::<--<-%**+**=**=-=>>***#@*,*@@O@X@@##,,:*=:>>:*>>,:::>>&@@****:",
"wr888852>*>5>>:>7117388w74e377,<>==132,4::::=**->>*>>1>->1527788",
"1>=>1;;=#**-=@@*:*@=<273ee4,1,:#&%***@*:>::****%&&%*<******@**><",
">>>552><**<*&+OO+++$*-33ry4><1::&$$$*@@*:#@***##+++-;*%%<1>*@*;*",
">>>55>**@*=*O++OOOO+#<,4tyw>1>::%$O++&#@#-#***%%**%;1---*1>*+**+",
"3:;68;=>%**#O@*X.OOO.&38ywe<<:<*>*@O@#**@#::-*@*#-#--*>-<5<@@**@",
"1>275;*=$***O@*.OO+.O=38e4w:>><*:*@#*#***,>:*@*#-#*#*-><14,@@#@*",
"115652>*@@*:OOOXoO+OO*33wwe::,::**&*>,*#**>***#####**<11:31@@@@*",
">11566>>&@**OOOXOoOO@,777ee>#><*,*@*#*,:*>>**##-#<-*-<>1:31@@@@*",
";>55761=*@**OO@@OOO@@:338ee>>>;>,##**,::,**>&@###-<#<<*><3,,@@@,",
">;1685>**@**+O*&OOO@@,w38we>177>>*::,*::,*>*&@#*#-#<-***:4,#@@#,",
">-;565>-&@**O@**+O@##,,wwwr,7777,>><:::<::**X&&@##<-<::::1>@@@@:",
"**=582*>O$**+&:*+O##@#4wr88388773<>,::<,>:*&&O@*-<#<<>><:<,@@@#>",
"21;65;*$.%@**@*@###+@>8e7837777771:=*:1><>:@O+@**%;-<*--->:@@@&*",
"==*51>1%.%@=*@&O###+@2,8888899771>>*><2511:@O***#->21<<><;:@@***",
":>**&:>&&=&:*@*@**@**188771777771>>><:>11:#@@*::=*>73<<25>@@@OO@",
"&%&&&&>&O&&**@*@**@@*>1>171177>>:>==****>*@@*1,<83,8ye88e7>*#@O@",
"13>83383175835752<11>38,18779899755534331,#:,<,1,:,,ee88ry85331<",
">>>5,>>:;556525***:::::*,7789rrr8711111:>:*##@@@XX@*><;;ww81374,",
">>:1&O$O=5555;;*-<<:&&**>;>;7r99r99721>**@O@OXXXXX:::1;2,,1=;1<<",
">>:1>O&O$=15;-*o#*-:*&&:1>>>9r87788752>*OXO@@OXXXO&*-662,,*;2;<2",
">711&&@&O:>>,@O@*,::@+=&*1:1t834877775>*@@@@@@XXOo%;2260>&:*>1>5",
">715&&X&O*@@<:@@@***@O***32573:5877777>**@@@@OOXo+-622223::=*>>1",
"17,1&@&XO***>*@@X@O**@*;188775<5977755>**#@@@@@X O-662;68:==*><,",
"17>,&@X&O:11<*@@@@O**+=57et84257r78777>**,@@X@@@ O2662268:&==<>2",
"=7>>&&X&O*->1*@O@@O>*-168r088788r885781=,#@@OO@@O@,866208:*=>><>",
"=1:5*X&&O*21:@OOOO@>>*27r8r888rtr887791****@@OOOX@1800608:>2>;*<",
":5>2&&.O+*1>@OO+O+#*>;48rr8r89r88887385>**,@@@@OX+<800888:>51:**",
"<4>1&@OOOO**-*@X+#*<>5et088877878883585>,*#**#*@@*1846687:16>:#:"
};
