/* XPM */
static char *Free_Converter_com_bronze_ceiling_2105032[] = {
/* columns rows colors chars-per-pixel */
"64 64 256 2 ",
"   c #57321E",
".  c #522B1B",
"X  c #572D21",
"o  c #593628",
"O  c #5D3E37",
"+  c #48342B",
"@  c #633B2D",
"#  c #6C3D2C",
"$  c #673626",
"%  c #793D2B",
"&  c #723929",
"*  c #643D33",
"=  c #623F39",
"-  c #793D33",
";  c #742E22",
":  c #66321D",
">  c #584337",
",  c #544229",
"<  c #65432A",
"1  c #73422B",
"2  c #7A432E",
"3  c #79472C",
"4  c #654233",
"5  c #6C4333",
"6  c #6C453B",
"7  c #6D493C",
"8  c #6A4938",
"9  c #744533",
"0  c #7B4533",
"q  c #724C34",
"w  c #7C4B34",
"e  c #7D463A",
"r  c #754B3C",
"t  c #7B4C3C",
"y  c #74443D",
"u  c #6A523C",
"i  c #78533C",
"p  c #74502E",
"a  c #6D4B43",
"s  c #674A44",
"d  c #744C42",
"f  c #7A4D41",
"g  c #764E48",
"h  c #6A5347",
"j  c #7D5344",
"k  c #7D5944",
"l  c #7D554B",
"z  c #7C5B4B",
"x  c #755748",
"c  c #7C5C54",
"v  c #745951",
"b  c #7B6255",
"n  c #76624B",
"m  c #824434",
"M  c #844C35",
"N  c #8C4B33",
"B  c #834D3C",
"V  c #894D3A",
"C  c #8C4639",
"Z  c #8C5135",
"A  c #83523C",
"S  c #8B533E",
"D  c #8E593D",
"F  c #835033",
"G  c #92543C",
"H  c #935B3B",
"J  c #9A5A3D",
"K  c #995539",
"L  c #8E4F32",
"P  c #A35F3C",
"I  c #A6633B",
"U  c #874E43",
"Y  c #845444",
"T  c #8B5542",
"R  c #855A44",
"E  c #8C5B44",
"W  c #84544A",
"Q  c #8B554A",
"!  c #855B4A",
"~  c #8B5C4B",
"^  c #915644",
"/  c #9B5544",
"(  c #935B44",
")  c #9B5D45",
"_  c #945D4A",
"`  c #9B5D4B",
"'  c #94564A",
"]  c #8C5D52",
"[  c #875954",
"{  c #945E51",
"}  c #985C57",
"|  c #904E40",
" . c #A25E4B",
".. c #A45C44",
"X. c #A55D53",
"o. c #83634B",
"O. c #8C634D",
"+. c #896748",
"@. c #9C6246",
"#. c #94634D",
"$. c #9B644C",
"%. c #9C694E",
"&. c #946849",
"*. c #846253",
"=. c #8D6253",
"-. c #8B6B54",
";. c #83635A",
":. c #8D645B",
">. c #8C6B59",
",. c #946453",
"<. c #9B6553",
"1. c #946B54",
"2. c #9C6B54",
"3. c #94635A",
"4. c #9C6659",
"5. c #936B5C",
"6. c #9C6B5B",
"7. c #8D7358",
"8. c #94725C",
"9. c #9B725B",
"0. c #9B7057",
"q. c #9E704C",
"w. c #A46245",
"e. c #A3654C",
"r. c #A9664D",
"t. c #A46A4E",
"y. c #AA6C4D",
"u. c #AA6A46",
"i. c #B56B4C",
"p. c #A36552",
"a. c #AA6652",
"s. c #A46B54",
"d. c #AB6C54",
"f. c #A46C5A",
"g. c #AB6D5A",
"h. c #A46559",
"j. c #B16D55",
"k. c #B06E5A",
"l. c #B86B54",
"z. c #A57155",
"x. c #AB7256",
"c. c #A4725C",
"v. c #AC735B",
"b. c #AC795C",
"n. c #A57A5D",
"m. c #B27255",
"M. c #BB7456",
"N. c #B3755C",
"B. c #BA755D",
"V. c #B3795D",
"C. c #BA7A5E",
"Z. c #B57D55",
"A. c #896764",
"S. c #926B62",
"D. c #9C6D62",
"F. c #976965",
"G. c #947463",
"H. c #9D7363",
"J. c #9C7B65",
"K. c #9D7669",
"L. c #977876",
"P. c #A36C62",
"I. c #AC6F64",
"U. c #AB6B69",
"Y. c #A47463",
"T. c #AC7563",
"R. c #A57A63",
"E. c #AC7A64",
"W. c #A4746B",
"Q. c #AB756A",
"!. c #A37C6C",
"~. c #AC7C6A",
"^. c #B27562",
"/. c #BB7563",
"(. c #B47B64",
"). c #BB7D63",
"_. c #B37D6B",
"`. c #BB7E6B",
"'. c #B5776B",
"]. c #AC7E72",
"[. c #A47A73",
"{. c #B37E73",
"}. c #BA7E74",
"|. c #B06E69",
" X c #C07959",
".X c #C17D62",
"XX c #C37D69",
"oX c #C87867",
"OX c #CD7D72",
"+X c #B2805D",
"@X c #AA8267",
"#X c #B58265",
"$X c #BC8166",
"%X c #B4826C",
"&X c #BC836B",
"*X c #BC8A6D",
"=X c #B98A6A",
"-X c #AC8273",
";X c #AA8875",
":X c #B58372",
">X c #BC8472",
",X c #B68972",
"<X c #BD8A74",
"1X c #B58A7A",
"2X c #BB8C7A",
"3X c #B7857B",
"4X c #BD907D",
"5X c #C28266",
"6X c #C3846B",
"7X c #C9866C",
"8X c #C4896E",
"9X c #CB8A6D",
"0X c #C98365",
"qX c #D28B6D",
"wX c #C38572",
"eX c #C48B73",
"rX c #CB8D72",
"tX c #C38D79",
"yX c #CA8D7A",
"uX c #C88376",
"iX c #D18E75",
"pX c #D08F7A",
"aX c #C69274",
"sX c #CC9075",
"dX c #C4927C",
"fX c #CC947B",
"gX c #CB9A7E",
"hX c #CE9876",
"jX c #D29275",
"kX c #D3947B",
"lX c #D39A7C",
"zX c #DB9A7D",
"xX c #D6926F",
"cX c #E0957E",
"vX c #DAA27F",
"bX c #BB9685",
"nX c #C48D81",
"mX c #C49482",
"MX c #CA9483",
"NX c #CB9B83",
"BX c #C89987",
"VX c #D39C84",
"CX c #DB9C84",
"ZX c #D49F8A",
"AX c #D79887",
"SX c #D39E90",
"DX c #E29D85",
"FX c #DBA284",
"GX c #D3A38B",
"HX c #DBA38B",
"JX c #D8A489",
"KX c #D9A591",
"LX c #CEA18A",
"PX c #E3A688",
"IX c #E4AC95",
"UX c #E7B197",
/* pixels */
"R.UXCXFXHXrXAXyXcXlXgXlXeXgXaXpX8XaXeX=XwX(.(.b.b.#Xn.b.n.=X$XeXaXfX8XV.T.<X+XyXdXaXaXE.#X@X=X*X=X5X$Xn.#XC.iXeX>Xy.B.N.MX:X$Xu.",
"6.T.6Xd.2.n.<XpXkXfXFXpXFXgXyXrXrX8X8X*XwX=XeXeXeXdX=XaXeX&X$XFXFXAXfXhX>XdX=XfX9XiX7X7X6XrX6X6X5XeX$Xb.$.&XaX%XsXt.%X^.V %.b.N ",
"f.:X'.`.bX7.O.DXyX<XfXg.pXtXdXfXeX,XfXyX>XgXrXeX2X<X<X<X&XdXd.FXPX8X9X&XdX2X$X,X,X8XeX&X=XE.#X).&X(.%X`.pX).#XY.jX3 @X<X#X5XN h.",
"P.Q.Q.].!.z 5.PXY -XE.wXAXNX<XmXdX*XLX<XsXeXgXaX2XBX<X%XJXgXz.VXvX8XrXg.1X1X=X2X<X<X8X%X<X#X<X_.`.,X>XyX^.z.,X%XsXgX! k ,X*X^ c.",
"W.:XY.*.:.Q MXmX>.@XO.AXs.R J.R.Y.].R.T.%X%XE.n.8.1.1.E.NX<Xz.gXzX:X>Xs.v G.,.:.7.7.7.J.-.-.-.8.1.o.-.tXp.V %X(.f.mXS ,.5 G.@X_ ",
"~.6.H.-.W AXIXi J.8.c.>XdXR -.BXO.dXc.dX,XT W.3X@XR BXY.dXNX&.BXCX].>X'.n ;X%X:.] ,.4.I.,.,.{.3Xi bXo.tX$X>X2.(.:.'.HXS k 7 R x.",
"{.E.2.9.SXGXt J.!.1.dX^.<X8.8.tX,.c.>X2 $.v.E.9.w LX#.E.dXdXs.fXPX~.eXh.b R.v.! #.~ _ $.R t #._ +.mX~ Y :X%.M Y.G.5 %XtXs.F #.x.",
"I.ZXfXCXtX8 J.9.R.:XeXrXZ @X9.U ( ).m.).V.).tX>XE $.%X( fXyXs.ZXcX,X&Xj.-.~.r.~.,.c.T.tXb.2.n.T.#.h.Q.k ,X$XiXE +.o.k E rX6X0X( ",
"T.SX'.r G.>.G.8.M.rX%.,.1.MX<.^ c.dXc.tX<.GXY.s.T.:XmX,.dXeX%.FXvX>X6Xf.~ #.f.'.$X>Xd.F @X&.%X^.%XA ~ o r tXy.9Xx x *.*.i 1 @.C ",
"Q.>XeXn.G.-.1.%XeX$.%Xc.E.E._ I.#.%Xc.'.2XE #.E.R 2.#.~.2XyXb.lXVX).<XY.+.7.9.+.d 3.Y._ T n.>X/ <Xt { D.r j &Xs.0Xq u *.Y.{.N.Z.",
"2X%Xb.b.E 2.^.AX2.,X2.T.eX:X6.~.S T.T c.T.$XE.(.=X%X,X(.JX&Xt.FXCXeX&Xc.R.@Xn.n.H.9.<.4.b.n.f.G s.s.T Y e D.5 1Xm.m.x.q r v.M.V.",
"H.T.$XV.v.fXT.`.O.6.2.eXE.<X~ :X4.<.<Xc.fXIXIXUXPXIXJXIXUXeXm.FXAX6XlXAXHXHXPXDXvXPXPX$XE E.2.~ c.m >Xw BXr r r ^.~ n.u.M.j.2.V.",
"W.W.$X8XO.c.%Xw 9.,.O.%X^.#.~.Q.1._.=X).lXs.FXgXVXJXJXJXJXgX) lXCXyXlXZXHXAXlXkXlXhX#Xm.b.%.R.9.,.E.n.s.S #.@X-.v 0 5X` E Z.w.y.",
"Q.Q.>XY.R ! 5.6.j W.( <.dXE.T.R.E.%Xv.rXx.x.v.2.s.z.c.#Xv.$.eXyXkXtXn.E O.+.o.+.z =.j 4X'.g.v.v.dX~.1.Y.ZX_ T c.C 7 > @ ( uXJ I ",
"{.{.^.Y.=.] 1XMXE.<.f.nX#.'.VXZX^.f.&X6X).(.<XE.T.(.<X<XE.n.8XdXpX$XR.-.o.-.G.n A.b S.,.`.^.) &X<XdX>X2._ ,.2.#.T %X*.v S.<Xw.w.",
"%X^.%XW.5.=.4.' ` ( <.Y.f.$.f.>XY.>XkXC.x.pX%X:X:X%X2X%X%X^.<X<X).%XR.8.Y.4.D.D.-.O.9.0.b.v.b.R N.@.:X} 3.D.T e 6.j 5 t 5.<X2.( ",
"_.:XT.m.;.H.r 6.|.Y.4.c.O.R.R.0..XjXN.x.8XeX(.lXaXrX9XlX$X8XrX8X9X$XN.8X$X6X6X$X$X&.c.9.#.%Xg.N.h ~ $.D ~ O.#.) c.wXtXf D.5XJ $.",
"{.T.{.B.c H.~ ~ _.eXE f.:XE.c.$XzXm.z.$X<X8XfXpXjXhXrXrXrX8XrXsX8X6X).8X$X*X&X5X#X#X_ c.E.T ^.T.|.E n.V.E._ ' s.T <.#.5 H.iXw.( ",
">X{.{.y.c c.E.1.2X_.c._.N.`.6XiXv.s.v.E.$X9XzX9X9XrXaX6X$X8XlX8XjXrX).b.(.=X$XV.(.).*X$.&XE.t ~.r. X@.&.$Xc.~ ` { <.R 7 D.&XJ $.",
"T.~._.C.c #.A 6.T.f.v.^.^.jX`.j.@.(.%X(.8XpXpXpXsXlX5X6X*X$XN.6X$XaXeX*X6X(.#XV.v.v.).9X$.Y.9.i B.q.C.m.+.9.wX,X4.#.t 5 H.rX) T ",
"T._.'.j.:.SX~ <.tX^.T.8X8Xx.b.@.(._.$XeXyXpX9XiX9X9X&X6X&XsXhX#X5XrX8X8X6X).(.>X(.&XC..X9X%.Y.! q 4.<.s./.S 1.1 Q 2.~.l F.>X) ^ ",
",X'.{.d.b ~ ~ 6.4.mXp.&X@.(.q.E.<X>X$XhXeX9X7XiXkXsXrX6XrXV.).6X$X$X&XiXsX>X(.v.#Xb.V.5XV.$XE 6.-.o.r ^.rXB.s.;X] B Y 4 5.8XJ E ",
"_.~.{.e.b f 5.] D.W 4.yX8Xv.&XeX8XrXrXrXjXiXiXiXrX9XhX8X).b.rX&X(.$X).8X).(._.%X(.$XN.9X`.B.6Xs.,.Y.x :XXX.XA 9 %XE w 6 5.wXJ S ",
">X~.'.g.v ].l ] 5.Y.6.pXwXv.8X^.kX9X9X0X9XiXjXiXpX9X6XiX8X).&X>X<X<X#X*Xb.b.b.n.E.#X(.V.6XC.$X8X%.n.E.>X*X#Xc.nX{ ` ~ l ,.&X..S ",
"|.}.'.h.n :Xm O.~ f.P.uXpXj.6X(.7X6XqX9XqXiX9XiXjX9X$X$X&X8XE.8Xq.,Xb.b.(.v.(.(.f.v.(.^.C.8X$X$Xn.+X0X].uX).=.Y q 5 [.O b }.X.A ",
":X_.^.P.n t 2XY Y 6.,.>X7X^.>XY.pX7X9X0X9XjXhX$XjX8X9X$X8X(.d.b.%.=X).yX>XN.dX$X).E.(.).V.b.t.).z.C.C.].>XN.! 3 &.X.t O ! wX@.H ",
"~.&X(.4.x [.3.3X9.!.4.{.&X^.%XE.5XiX6XC.9X6X`.$X5X8X6XrX8X8X^.`.v.V.V.v.b.$Xx.$Xv.).).(.B.$XN.V.s.5X5X@XT.m.!.;X;Xa :.;.x }.K p ",
":X^._.<.x W ,.] Y ,.<.>X8X^._.~.`.9XrX9X$X).5X5X6X6X8XC.$Xm.N.y.b.%.E.V.b.6XV.N.).(.b.(.).V.m.N.g.).l.].@Xx.*.F + o a o =.'._ S ",
"_./.^.s.9.T.T.b.%X%X(.&X6Xm.$X:X5XkX$X6XeX6X^.8X9X8X8X).5X^.$Xb.T.c.=X(.d.V.).N.v.c.$.d.m.b.x.N.2.5XC.].T.j.c.g.n.z.b.z.j.B.K G ",
"_.OXr.%.n.v.n.x.s.b.b.x.C.C.5X^.9X9XC.0X).6X5X5X5X6XC.5X).$X^.(.(.&X>XE.x.x.V.5XV.(.(.6Xv.z.m.$Xh.$XC.D.4.w.,.p.K z.e. .E ( Z p ",
"Y.OXp.$.O.<.O.p.$.t.%.$.y.).5X_.qXxX8XC.6X8X0X6X9XiX7X).`.x.v.b.6.f.2.&Xf.z.6XM.x.s.T.eX^.f.V.>Xv.C.m.W A N t F m - f 5 e w < &.",
"E.XX`.v.6.h.R.P.s.T.^.$XXXrXuX>XqX0XjX$X6XiXsX.X XiX.X6XC.^.(.fXE.6.6.(.s.8Xg.hX>X(.h.c.s.(.$Xs.v.C.C.;.O.@.*.T &.+.Y <.<.t.l.P ",
"Q.wX&X(.c.I.1.^._.`.*XjXiX5XqX&XjXrX0X6X9X6X5XxX8XZ.$XB.).).$XV.V.s.$Xg.>XN.$X5XM.N.b.E.z.v.`.m.y.m.).z.@.1.b 1.f.y.y.2.q.i.u.u.",
"~.(.>XE.E.9.9.%X$X7X=X8XqX6X7X$X7XrX9X8X9X$X).6XV.$X$X^.y.5X).^.(.v.f.v.^.N.N.).).x.z.b.c.N.).).j. XB.2.&.A k E =.A %.O.#.w.P e.",
"^.N.8XpXdXfXMXfXvXDXJXzX.XN.&XW.0X6X).V.V.).C.$X).$X6XN.N.6X6Xm.t.6Xb.^.s.d.$X).&Xs.f.2.s.v.x.C.2.Z.N._.8X6X<X7XaXxXxX9X8X9XJ D ",
"'.'./.` _.T.s.^.z.^.v.^.M.b.).E.$X).).^.$X8X$X^.5X).^.>X).&XB.`.b.v.{.%.<.`.b.x.N.c.'.f.<.v.N.^.#.b.d.c.e.Z Y ^ H L K H F e.Z 3 ",
"Q.].E.6.t j j 5 t U ] }./.v.XX2.).).).'.(.(.&X).g.).`.v.s.`.).V.(.^.n.f.c.c.N.m.s.v.c.s.<.s.^.B.e.i.a.~.c.<., 4 + + O o [ f.M S ",
"3XP.Y.,.] bX1XW.G.W.F.{.k.a.|.T.6X).N.d.f.N.).N.6XN.^.c.c.s.v.(.v.^.c.c.s.c.v.N.d.c.<.$.<.%.b.v.@.t.p.Y.$.4.s S.L.c [.s ! Q.S 0 ",
"P.U.P.` ,.W 3XU ! [ ] >Xv.c.(.O.5X^.(.).^.).).N.9X0XN.(.$.E.z.v.b.(._ <.2.v.(.e.N.d.%.2.f.s.s.v.2.q.&.9.<.h.7 ,.9 ^ z.i j I.m B ",
"].Y.~.T [ bXf 5.5.I.9.:Xp.2.I.=.).B.`.`.v.N.$X5X5X8X&X(.<.b.c.v.).c.n.1.2.T.N.5Xd.t.s.2.c.f.e.v.e.s.p.Y.t.p.8 &.3.6.t ;.l c.F m ",
"].P.h.] c Y P.5.[ } A.}./.} I.3.XX.XB.C.N.b.).XX0X9XV.2.T.:X(.t.b.2.v.b.n.E.h.^.N.g.b.$.z.z.N.B.@.g.,.Y.p.h.Y W j @ =.W ! I.V 0 ",
"W.f.T.] b ! ,.[ S.R A.uXp.r &.7.p.6X).`.$.V.).).m.5Xj.(.n.f.(.$Xv.v.b.,.2.s.@.c.g.(.s.x.s.$X).C.D d.#.R.p.b.R 9 6 Y.].8 ~ c.V V ",
"W.|.^.} v D.4.Y x NX[ }.B.-.+.0.Y.] _._.^.&Xp.&XN.&XV.T.Y.,.^.B.$Xv.(.E.T.T.2.$.s.z.%.g.v.v.q.D ).g.A 6.g.<.:Xj A 4._.o ,.I.m w ",
"{.P.T.} b nX_ 5.U.G.~ '.^.).&XE O.,.E T.T.c.b.t.`.d.m.c.^.2.s.B.v.d.f.#X( s.s.N.N.).j. .d.e.%.c.@.#.>XdX2 <.c.# & %X_.5.,.h.M 3 ",
"W.'.f.} v Y ( 6.} - *.q |.' MXB.O.] f.{ I.s.).z.^.$XN.s._ (.V.).m.^.s.(.T.).s.g.z.e.^./.e.d.z.E T.(.$.f.: E w 0 A ^ 9 5 ,.P.% w ",
"W.h._.} h t f.,.,.;.2.R n < f./.c.#.f.P.$.E.z.8XB..XM.6X^.^.N.x.B.6XN.s.s.s.j.v.N.N.y. .N.f.<.E.MX1 s.% #.i T 1 m ^ KXr ] p.m w ",
"{.s.f.} v Y.eX4.6.[ m.6.F.-.u B.y./.) p.z.( 8Xj.C. XM.e.s.s.).m.j.j.e.g.(.v.^.d.x.N.s.$.s.( T.2X9 w ) e._ Y % 3 F ,.>Xf ] <.Z 1 ",
"{.g.T.[ h Y.2 E.d.D.PXe.U.%.-.A l.r.).@.%.x.t.B..XM.0X.Xx.j.s.B.N.).) v.(.p.$.V.B.N.e.V.( h.<XV # E e.) -X~ - w A '.Q.@ ] $.% w ",
"].c.I.Y x !.LXaXn.g.4.W ,.' OXHXR g.i..X) g.T.Q ) ( / ^ ( ( Z e...S $.A S A S 2.) ) N.d.@.&XS 1 >X{.(.T.#.9 6.V d.A R.4 ! 4.w 1 ",
"I.I.I.~ y a [ 3 E.5.}.9.r X._.s.~ A p.l.r.` (.I.C.).XX).`.z.N.B.V.s.9.c.c.j.j.N.m.m.z.e._.0 A Q #._ T S B A ~.4.2.Y.9 * =.6.2 2 ",
"I.U.s.<.W.x 7 5.Y.O.-X_.^.~ $.$.O.6.S d.N.K ^ s.e.s.v.s.%.( x.V.m.y.( $.e.e.d.s.v.` S (.S 2.0 R E.2.^ T 4X2X=.r Y 8 4 -.P.' 0 9 ",
"W.I.^.&XBX].D.Y 9 z 1X^.E.,.i <.] R o.S e.a.e.c.N.d.m.h.$.j...l.l.k.h.f.s.%.z.$.( s.s.s.4.$ ] *.,Xt ^ ( 9 _.~.j < ~.p.fX2XQ # m ",
"F.P.e.m.N.#.2X^.D.r ! }.B 6.7 tXY *.O.Y p. .^.c.n.s.Y.Y.n.T.Z j.t.@.Q.f.2.b.v.g.c.c.f.R 9 ~ ! ! k ~ 6.V H.9 5 j h.tX2.w G m & t ",
"K.h.%.G S 2.b.t.2X<.5 0 I.K.} ,.3X,.9.] T ^ T E ( ^ ' U 4.( C i.s.T f.t 9 r 9 e B 0 9 j 6 ~ ,.BX! Y ,.3X$ X f.Y.E.2 ) % 9 3 A 2 ",
"D.f.<.T O.[ # 4.) tXh.r l { R ,.B B Q ] ].5.W { H.! W = 5.,.E a.a.| P.f * h 8 s ~ r D.K.! 5 q $ 9 ] W f 5 ~ Y.` ~ 9 @ O.R A S V ",
"P.{.f.6.x v c 6 @./ E.O.j T.' #.T.c.` 4.f :.y { O.f K.d :.] U a.4.Q P.g O b ;.K.5.W * 5 5 Y r Y { W ] 4 8 #.#. .  7 f r x 5.$.C ",
"s.~.k.i.0Xz s g v <./ ..V Y 6./ O.! S.k 8.7 S.G.~.E.I.# 3.] T t.a.V 4.g = >.j 5.[.l d j j W Y =.B.i j . X.&XA o > h 9 0.1.N t : ",
"W.) K 4.I.j.,.a c T d.j.4.t Y g.T ] 1.,.,.4.#.O.t 2X] y 3.] V e.a.( 4.= = j J.W.~ ~.6.,._.f.~ ] { 7 o f I.; 1 4 d 4 2.( e   . ; ",
"L.|.H :.y i.B.l [ 6.3 ( T W f 6.R 6.Y mX6.w R Y.5.1 j 6 F.[ ' a.a.' 4.a 6 K.l :.~ Y ,.3X9 -XY 4Xg O 8 P._ h.5 r o h.( < O O h T ",
"D.P.] ! [.1 g.h.e Y.2.$.4._ t 9 d * d o 6 z 5 @ @ 4 * @ S.] C a.a.{ 3.d 7 4 W o 4 * 7 @ 4 X * @ o * d h.# : j d 8./ # u [ 4 6 $ ",
"h.j l 5.5 x r XX .c.#.#.s.| Q.!.[.!.!.!.;X@XJ.!.Y.R.K.5.! ,.^ j.e.^ <.@ 5.*.9.D.*.R.H.5.D.!.=.5.8.1.<.T.T r l O T W + = $   q # ",
"h.W.8.5.-X#.i Y.g.g.^.A T MXAXGXGXKXNXHXLXVXfXgXSXBXdXBXmX<.^  .r.$.P.<XbXGXBX2XVXeXVXVXMX(.NXyXNXNXpXO.( q ~ c ' X h c W 0 T.: ",
"} _.R d 3.yXc.W r.^ T.` <.%.s.N.m.y.m.e.z.( @.@.` _ d.%.$._ % d.w.r.( ( D D D $.K H N J K L H F M F B w & V 9 ,.T . [ @ o C X.! ",
"a t & & Y (.c.C L G a.%._ 0.@.e.d.s.s.s._ g.( <._ y.e.a.` ) K y.i.r.j.e.e.u...w.@.( @.%.( ( T ( ( B ! U 9 / V & & , f.% o X : . "
};
