/* XPM */
static char *buisson[] = {
/* columns rows colors chars-per-pixel */
"64 64 256 2 ",
"   c #061808",
".  c #0E2509",
"X  c #132C02",
"o  c #152C0C",
"O  c #1D3B02",
"+  c #1A330D",
"@  c #1E3A0C",
"#  c #183403",
"$  c #162C16",
"%  c #1C3417",
"&  c #0E2412",
"*  c #223C0E",
"=  c #233C05",
"-  c #233D14",
";  c #233C1B",
":  c #263917",
">  c #182D26",
",  c #263D23",
"<  c #263928",
"1  c #071923",
"2  c #244402",
"3  c #2B4B05",
"4  c #25430B",
"5  c #29440B",
"6  c #2D4B0B",
"7  c #284807",
"8  c #314D0B",
"9  c #324E02",
"0  c #2E5301",
"q  c #2F530B",
"w  c #335403",
"e  c #365B02",
"r  c #3C5D04",
"t  c #34540D",
"y  c #365A0C",
"u  c #3A5B0C",
"i  c #39570E",
"p  c #264314",
"a  c #294513",
"s  c #2D4B13",
"d  c #2B441C",
"f  c #2E4A1B",
"g  c #26411B",
"h  c #314D14",
"j  c #314C1C",
"k  c #31471C",
"l  c #2F5212",
"z  c #345313",
"x  c #395514",
"c  c #3C5C14",
"v  c #35531B",
"b  c #39551C",
"n  c #3D5B1B",
"m  c #365A14",
"M  c #3D620B",
"N  c #3D6404",
"B  c #3E6113",
"V  c #3E611C",
"C  c #2B4422",
"Z  c #2D4922",
"A  c #2B432A",
"S  c #334D23",
"D  c #334B2B",
"F  c #34492A",
"G  c #355223",
"H  c #3A5523",
"J  c #3D5B23",
"K  c #3B552B",
"L  c #3E5A2A",
"P  c #35532A",
"I  c #344B33",
"U  c #3B5533",
"Y  c #2F5116",
"T  c #415E13",
"R  c #425D1B",
"E  c #40551A",
"W  c #415F0E",
"Q  c #456B03",
"!  c #42640D",
"~  c #466B0B",
"^  c #4B6D0D",
"/  c #466A05",
"(  c #4C7203",
")  c #4D730B",
"_  c #457203",
"`  c #547C04",
"'  c #50760C",
"]  c #547B0C",
"[  c #587E0A",
"{  c #557B05",
"}  c #436414",
"|  c #466913",
" . c #4A6C14",
".. c #44631B",
"X. c #4A661B",
"o. c #466A1B",
"O. c #4B6C1C",
"+. c #486715",
"@. c #516E19",
"#. c #4D7214",
"$. c #4D721B",
"%. c #497315",
"&. c #527515",
"*. c #557B14",
"=. c #597D15",
"-. c #52741C",
";. c #557A1A",
":. c #5A7D1C",
">. c #526D0C",
",. c #415C24",
"<. c #425C2D",
"1. c #42562D",
"2. c #425C33",
"3. c #455D39",
"4. c #446324",
"5. c #496623",
"6. c #4B6C23",
"7. c #45622B",
"8. c #4A652B",
"9. c #4C6B2B",
"0. c #466A26",
"q. c #516D2B",
"w. c #516E23",
"e. c #4E7222",
"r. c #4E732C",
"t. c #537423",
"y. c #567A24",
"u. c #5A7C24",
"i. c #54742B",
"p. c #59762D",
"a. c #57792B",
"s. c #5B7C2C",
"d. c #597525",
"f. c #466232",
"g. c #4B6533",
"h. c #4D6A33",
"j. c #4C673C",
"k. c #526D34",
"l. c #516C3C",
"z. c #547433",
"x. c #597634",
"c. c #5C7C33",
"v. c #56733D",
"b. c #5C7A3B",
"n. c #587838",
"m. c #4E7035",
"M. c #617E27",
"N. c #627E37",
"B. c #647D1F",
"V. c #566C45",
"C. c #5B7646",
"Z. c #526A48",
"A. c #627D47",
"S. c #495D42",
"D. c #5B8402",
"F. c #5C830C",
"G. c #588706",
"H. c #5C8314",
"J. c #5D821B",
"K. c #5B8616",
"L. c #5E900D",
"P. c #648C0B",
"I. c #618A08",
"U. c #699508",
"Y. c #719B0C",
"T. c #638B14",
"R. c #62851C",
"E. c #648B1C",
"W. c #668A17",
"Q. c #6A9314",
"!. c #6B941C",
"~. c #699517",
"^. c #739B1C",
"/. c #739A15",
"(. c #7BA41C",
"). c #79A515",
"_. c #77A508",
"`. c #5D8223",
"'. c #5D822C",
"]. c #5E8924",
"[. c #5F8234",
"{. c #628524",
"}. c #658A23",
"|. c #698D25",
" X c #62842C",
".X c #658A2B",
"XX c #6A8C2C",
"oX c #6A872D",
"OX c #6C9324",
"+X c #6D922B",
"@X c #6F9A26",
"#X c #709524",
"$X c #739B23",
"%X c #72952C",
"&X c #759B2B",
"*X c #799D2B",
"=X c #7A9D24",
"-X c #638333",
";X c #658933",
":X c #6A8C33",
">X c #63823B",
",X c #67893A",
"<X c #6B8C3C",
"1X c #6A8537",
"2X c #718E38",
"3X c #6D9133",
"4X c #6D913C",
"5X c #739434",
"6X c #759A34",
"7X c #7B9D33",
"8X c #73953C",
"9X c #7A9D3B",
"0X c #76993B",
"qX c #758B29",
"wX c #7CA423",
"eX c #7CA32C",
"rX c #7BA526",
"tX c #7CA332",
"yX c #7CA23A",
"uX c #698745",
"iX c #718D48",
"pX c #749344",
"aX c #7B9C44",
"sX c #78984A",
"dX c #789656",
"fX c #6E8D50",
"gX c #6F8C62",
"hX c #6F9247",
"jX c #82AF17",
"kX c #89B51A",
"lX c #8CBB0C",
"zX c #83AC24",
"xX c #84AB2A",
"cX c #88B428",
"vX c #91BB2C",
"bX c #86AA39",
"nX c #8CB437",
"mX c #93B839",
"MX c #819E30",
"NX c #95C229",
"BX c #A5CD30",
"VX c #819E49",
"CX c #86A847",
"ZX c #8DB144",
"AX c #87A757",
"SX c #98B756",
"DX c #98B84B",
"FX c #839E62",
"GX c #8CA966",
"HX c #98B967",
"JX c #95B470",
"KX c #9DC54E",
"LX c #A7C95A",
"PX c #A9D14C",
"IX c #A9C86F",
"UX c #B4CD96",
/* pixels */
">.H 3.* ~ t.o.4., J.s.h h.p.@ v ~ [.O.x G @.+.: R 4.: x w.,.s.u FXd.+.%XN.xXbXiX5XSXSXVX>.+.#X7X:X7X+X%XnXHXqX/.MXLXMXW.>.qXVXZX",
"1.I = E c i.&.u + O.;.w.J.i.5 L K.J P n @.b.: k H F M.!...w.5.x.+X-.} c.,.8XT h 5.k.N.d.w.H X.B.#X5.-.^ 5X=.u.|.B.P.F.5.M.bXnXqX",
"<   ,.VXp.8XyX0...e. Xn i b n H } U ! u.@.5 M.w.x.,.h 8.f.:.,.S ^ E x oX>.iX>.w.= > F N.=.x.X.1X2Xh 8X-.{ l.>.1X, b q.5 @.4X9 :.",
"X k 8 h n t e * D b x t < & A * A.c ;.g.3 8.R 1.H ' 1X#Xp.:Xq.5.p.A R c AX5 b.A.N.5.T T M.1.X.[ ..l.*.s N.,.MX8XB.=X>.A.:X#.} |.",
"1.qXu.7.k H p ,.1.-.R & < xX=Xk t ;.~ k.N.q...g.b.h R jX@.t.4 p O.4.h.h +.t /.>.X 7.s.T N.b d.VX5. .N.z z.E.u = i VX8.c.`.s P ( ",
"h :.x.v 4 z.- o./ >.T % C.V.R d.; n ,X4 : b w...a F C.X.X 9.K U &Xp 5.O.+.g.1.5.N.M.W.>.oXO.8Xq.k.%XR 1.R 9X0Xw.8.VX:.>Xs.N.j.Z ",
"iXw.a ..t.~ a 9.<.H E 8.qX8 uXd.w.` n S 7.E.t 5.- ,.t.d.b 8.C.@.I.9.D -.t.h X.7XX.g.b F 1.2.w.=./.qXW., H 7.9.n...AXT s.`.q V ~ ",
"..3 z *.y.c.h ..c } S E N.5 > L V o.K 5 p E.! +X1X< ; E.| I n @.C X x E.{.=.5 ; *X5 1.X.W.M.aXi.+   x 5X^.0 }.x N.,.CXF.E.4X$.].",
"< = i H.}.=.+ < x ..*., V.1.j >.W 3.: X.p.{.@.5.$ 6 k 9.$Xp.u.* d u.8Xv ! i.:Xt.] <.e.ZXAX|.y.z T iXk a.C d.M.} 2Xw u.HXq.k.s t ",
"X $ k @.1X1.V.R.f.$._ 4.FXd x.u.R % 9 g.R {.c H $.g ! _ z ..' |.4.u.g 6 | u 5.- < k u.-X..S ; ..XX8.;.wX:X! u.uX-XMXvXOX} t 8.,.",
"X.o C.+.B.W 8 < H h.m 5 j k X.A.b.R KXCXw.u c s.7 X a.*.a ;.o.s f 3.* 5.u.mX} %Xb./ ..c e.d , 3 M.AXzXt.n q.! q.z.>X5XH.8XR fXoX",
"zXd x.~ -.R >.q.x 8.V t ..T oX= x.5.k M.h n 7.R L m G d ,.@.Y G n a i.q i.1.d ,.5.= <.5.x K 6 4.T iX..G V.A |.2.#X] c f.H g.sXb.",
"wX. - ! #XU , ; * B o.e s <.8 gX6.2 : 8 x <.k.X.@ a.6Xa.%.l m O.m f s ..A.b C 1.X.b C.*.e X.`.b.bXR.r 1 . ] ;.{. .E.0 -XCXw.+.f.",
"h > C h C : d.h ;.;.m m.> o S C G u 5X# V.S 8 XXZ c U.%.;.;Xp.t. .e.| *.. 2 D t 3X5.H AX@.:Xe.4.w.R 3.x y.`.y.HX] 9Xj.6.8.H  X{.",
"! y Z R =.}.T } ( %Xs.v j.9.5 q '.}.( s.K. Xu.t.Y CX .A l N 3X$.c.R.z @X< S 8 = e.HX! ;.].`.'.$XF $ % 8 A 0.,X, d dX# b uX;.( r ",
"s n } (.M.:X5.c.$ .. .w R -.g.! m }.A.:.].m * d y Q D C.V K.E.o.-.`.n y.O 5X7Xw.sXdX} ! ! } f 2.+ } p.t ' H.s ! |.s :X-.T.(.9.9.",
"VX4 t.! k H Q 2X0.[.G m.L p 0 4.} H.0.L O 0...n b m y ,Xt.O.q l -.dXoX!.y.C.n T % a w.P t G.S Z ..*.] V p e.n `.n E.<X6X{.{.+.2X",
"; [.s m.f M F h o.' l K. .$ 8.C C > g v K.e.t.o v o.~  .L G O.L.| J E.}.$ v t.0.; i.G Z o.dXG B {.s.e xXs K.a..Xa. X6 J.K.A l.|.",
"& p 6.q c  .< y m c , s X.5.XX, Q q XXh.E.y.P  .' 7XO.y.@XQ e.|.+X' v.4.zX.X .% V u.n.&XR.9.x x F.G.l.c ^ w.L :.Z z 6.7.CX-X} 8.",
"# C y.E.V r.9.3Xo.;XB $.e.5 # p i.t s.n n f L t B rX6.I y Q z.O.o.`.}.] Z # a.! V Q.tXxX^.L z.' *.:Xl.0.M e.kX.XO..XQ t. .x ! ..",
"G s H e m N l 7 % - G G f f.n.+X-.[ :Xw.c 9. .i.n m 3 y.'.h.L E.y.T.~ C o.`.+Xh.V e.%.~ m s  X6XAXQ b.g.B o 5 ; jX|.}.nX..t.+X] ",
"$.b p ^ T.) i.L < x B J.&.'.%.b A '.[ 6 |.B $. .y.'.L.U.B 2 M 7.V eXo.y.B 2 L.n 0 e...v J.F.y.y  X5 #Xn.t.n J fX.Xc i.;.L T.`.C ",
"bXU O.-XzXX...7 - n B _ O.g fX..uXVXu.R z.U u.,X0Xu ) .XI g e.5 oX7 C.f % L K.'.v.7...c Y 7 f.j.j.L F.S i.u./ w.&.&.wXT.8XZXe.9.",
"s.# -.H t.a C ! -.$.].4Xe .X5 b r h v v @.~ G c.w.Z m.V 0.;XN %.d -.m } C d T.| t.| r  .s.y..XJ.9.c x.zXKX{.8 d.|.oX0XX +.J.^ &.",
"1.* n.x C.R.f ;.5.d.u.N.f 7.C ] n < % MXw.s.S pXuXuX5. .'.v '.o.E. .n x.J ..%.F.[ 6Xh U.zXp.^ 6X3X) e.jX*Xz I.|.XXbXA.8.W.kXkX|.",
"W.k + B O c p XX{.j 4 9.%.N o.-.k   k 8.S.vXw :XR : f.} 0 8Xr.o.q GXS % $ }.*.m.r.C C L O & t..X* p.n &.t `.y.<XR $ A t.^.6Xn , ",
"v ! g B j tX5.5Xs.,..X4.V i.y o l.5 ,./.Q <X5 6.9.3 ;. .*.CX..R.g * O k.aXe.'.m s J.^.!.a v ^ 4.J c.mXy.7.J.r.eXt.8.X. X6.u i.L ",
"A s.q 3 $. .E bXh.4 q 9.uXV O.* X.DX5.jX<.MX8.t.`.O.i.n J.{.K p 2 y y.v e.yX| yXb.fX+Xe - u.iXu q >XQ.4XuXZ ^ ....n 5XR sX%X6.g.",
"c.} n y v 8.>XE.b  Xs.'.M 4X6.q 5 @.6.bXt i O.nX7.; @ o.r.:X7Xh | c.-XZ ).u.J y.N ;X%.# B }.N l E.!.o. .E.d &Xk 5.x  X X+X@Xe.) ",
"0 9.-.U e.O.ZXc h tXi.O n o.R q.8.w.O.D + :X| !.b e.'.;.x 9.:.h ' ] } m.J.tXdXQ.M V +XM $.-.p 0.!.~.~ Y O..Xv b |.VXCXuX9.j.p {.",
"a.7.x h.B L.J.u w.- & k a.R w...5.9X, 5.O.).} K * 0 V J w.$...c.}.y '._ U.IX2.wXU ,X0X6Xf.[.'.e !.].G.-.t.~.H xXoXt.b.x :.%X!.#X",
"^.x  .B P K.K.e.! h F h R m.3X8 d.T D.4.:.;...#XL 6.[ [.9.&.].~.i.4.o.B 4.eXk.R hXY ].%.7 m e L `.>XA.| y.t w eXn 6 v O.w.s.&X:.",
"*X6 r.U O h o.o.d K + 3 ..4 ^ b.>X4.z b ..k 3.R $ k ^ #X;X_ 0.q 4 0.r.G K.].m 4 bXn  Xn ;. XB r.XXN &.v.f O $ V f Z.s.~.-XE.+Xe.",
"UX8.n -.s.4Xo.P . T *Xn 4 3X:X;.} ;.r.*.8.N.,.+ f 0 ;.-.G i.B $X[.V |.~.G.0.uXY N.R.-.O.fXJ ~.L.B !.).N e.V D `.V F.K.rXcX'.x *.",
"+.z P u.l.XX{.7 k 8.4.7.t.w.V :.O.t m $X'.7.6.i !.7.j..X=.u.f...w r wXj.B o.7.;.1X4.J Z ;.h.y.m.M hXZ 7.n.M 0 | * } aX&XKXN.u.F.",
"# $ =.r &.sXz.7 ;.C.* hXaX4Xt vX% <Xe.@X+X4.6.t.<Xm c.u.c 0.e.xX} j.t.+ [.m.%.$.6.E., B !.0.;.kXnX+X4.'.@ w `.T.C.} 5Xs.(  X%X<X",
"x R.,.6.h.;.6.e.h.r  .( &.v ! ..#.PXt tXu.@.-X{.%.`.~ e.a.[.t.y.'.v %.m.%.o.G._ }.U p `.~.c Y.y.9.y ' F.[.%.<XjX..XXU.pX&.PXPX8.",
"pXe.a L W.D 5 r z '.' ] i.h L $ /.<.n 4.E VXt =.#.s.h.l.s.;.G.:.0.'.K.L.G.].r.].!.3X XJ <.6XL.^.z.rX].L._.~ t @X} }.Y.pXj.8 = , ",
"+ u D.b.H n f.-.K.].e.c.3 ,.o.5 8X, D.c.Q.U.=XmXoX-.O.H  XW.#XZ V J.z.J.0.V ).r.K l ;.2.u.;.R.w.v ) r.`.~.gX~ J.p '.O.5.R 5.3. .",
",.e.f y.4.V 0.o.g 5 M 4.n y J O.c ! ].O.qX5.W.BXLXMX9 2.>X0.!.&.B l < `.B G.@X_ F.s.zXaXU.lXc.6.E.uXE.] rX7 %.:.(.].5._.^.N.X.^.",
"e.p O ,.b T.m + m m.0.O J &Xx J @.U.(.C l.B.mXqXM.+ j.~ P.| eXo.0 ,XV '.v !.D l '.uX2 K.nX:Xb ! .X@XrXK.V u.cXu.$.t 6X9XeXn.t.' ",
"B f..X6 J 6.R..XV f.L l K `.sXg.&X=X).J.OX/.= ,.$ F H *.-.V uXO.+Xn.y q |.NX~ ~ rXO.0.y.B } T. X'.`.y.@Xm $.:.s.PXmX:X<Xx e.;.:.",
"B a J 5.u.H.~ `.*.;.`.O.:.@.{ w &XE.'.- y. Xk P.R.*X@ @ c.) o.Q.B aX4.,XMX$X6 A.8Xh..X6.; }.' 4.@X$.$.V hXZ.' (.<.2.^ 0X[ @.a.;.",
"c ! ;Xr z.p o ,Xi.F.s 7 s.,.p.N.3Xc.K.4.!.*XB.Q.yX{.J.Q .XcX`.sXi.T.V @X;.>.:.}.dXC..XK.r.0.G ;.J.| m._ LX&X$.y.K.(.AX^.t.4X>X*.",
"O.g.k C o.# } u.v B m h.qXg.nXVXc CX_.c.!.P.F 6XH.3X( M $XNXjXW.=.-.`  .>.2 xXnX XCX5._ =.K s.mX4Xy.G o.J..X;Xm E.].6Xa.R.).bX3X",
"u p P 3 ..:X^.J.aX;Xr._ ,.X M.s *.X.BX1.X.A O.bXG } t.L [ ( 6.T 8.C OX. R.N.x M 8XJ.i.e n 2 %X=.L.9X$.-.cXG.rXY m | U r.7.$.q - ",
"u.' e.}.t B ..0.>XZ.V G.s.5.(.e O.u.@.^ u.r r J...| &.=.:Xy 1X5.< a {.0.bXH.p !.R.p ..y.9.2 | u.8X .V :.z .X^ v `.&.U.KX@Xe.-XM ",
"a.wXB + >X# z %.o.V ;.U.| d.] ].B * :X} + !  X .E. X4./ u.[ bX4.t.) E.LX# i.0X^.{.s.`.y.z.c `.%XmX;X$.`.c 0.~.y.r.KX$X| y.w.;.w.",
"q ZX,.K -.2 h y.^ -X! &.9.f.p -.6.@.dX: N.u.O.y.3X+X0.L @.ZXbXoX}.XX).T.@ J G.^ J.s.uXc.@.=X!.:XrXsX9.oX^ R.P F.U.9XyXV 0.OXyXOX",
"a A.n D.s.K o.%Xi.FX8X6 &.&.| a.#.9.!.U.zX&.Y...z.^ $.[.nXBXbXSX].G.NX- <Xo.y.z...*.D.(.vX^.2 m.#.%XCX4.T.hX%.~.eX%.e.Y r.wXH.0X",
". ..u.P.K hX}.eXt ..` |.Q./ 8X} }.4 $XXXN.n.%XN.;.u.H.H.^.F.O.{.tXo.H.u o.B +X[.O.}.l.9.i.h.y.%.N._.} y ;.% F.3XHXy.'.p E.W.1X$.",
"1.-. XK.V #.| q } `.}.t.} rXu g.6.}.C.$.q.A.T.(.F.@.:Xd..XnX}.v J.!.y.r.M V K.Y !.K.c h.z.h.4.%.u.,.j e.n.e.3X&.e.L y _ 9XoX8Xx.",
"2 @.%Xe.j J.N S ;.G @ ..t '.7 `.y H.uXmXw iXH.zXw.w.R H.^.{.;.*.'._.e.R.V ].y ].t.XXs.F.].7.E.N ~ [ s.f.h ~ !.I 9.M ;XK.N.SXaXx.",
"5 -.&.G f -.H.) +X..! 5...A.X.' T.*.Y.r.K -.w.^ MX1X8 ^.F.8 +XP.9X~ :X/.v.e %.rX*X..'.6 f 2 .XK.:./ b.c #.@XM  Xn MX_ : oXM.R.8X",
"C.h -X' K.0 h.cXrXz | =.F...L -.>.}.H.h k ' { ^.vX XO..X X.XF.V T. XkX:XM m @X`.+Xc q v +.Q.|.XXpX(.b ! {.! x sX>XSXv.i h.*XMX<X",
"x * t.~.[.~ 0.~., : o.[ :.b.L t q.U e.cXAXE.b.5XH.p u U.W.9.@ ' Q -X.XnXV `.K.T.v c.!.o.F.PXuX5 2 -X$.<.%Xa.0.1.iXUXd t.zX%X[ V ",
"H.wXf r.c.U.F.+X0.B N T.:.8X-X] `.nXy.tXJ.C 6.E.o.|.).@XW.,.N.kX(.G.n -X7./.m E.&.;.|.} ).W.h i.|.OXQ.R rX} OX .%XaX+.-.M.DXxXQ.",
"oXq.+ # w OX^ }.:.h B >XB V h.9X;.` ~ Q.e.y J.J.n b. XF.{.bXN.IXtXR F.-.$X!.$.&Xq.{.rXA.K H r.B % c.n | {.O eX! X.x.5 Q .XZX-X' ",
"p.> O o.6.-.:X} h.p B @Xy.G.hX).%.cX+XR.i.v.h 4.K.K.n ~ .XIX2XT s._.{.*.$.D.j.E.; H.1XA.GXGXMXy.#.R.6.|.H I O.-.=.<X8.+.5.c.O.H.",
"} 6 z.6 u.B m r ! | *.;.J n ..E.- s s K.9XdX;XR.rXu U `.#X&X:X8./.).g bX+XaX6 .XX.Q B.IXDXu.t.y.F.~ !.E.c.+.7.:.<Xn t c.sX[ xX;.",
"-.<XJ t.b 5.^ u.[ /  .=.<.  8.u 0 G V kX6 <XK.XXp Y 6.}.`.Q cXc 1XkXp.zXzX@ H lXe.h C.SX@.y E.M |. XbXJXt.J.z.c zXV.q.XX7XR.(.CX",
"0.! , F z...y.~.:Xz % D.O.x ! 9 ;Xq B Y.C }.Q | p 4.-.M |.R.D.^ U.!.;.( wX| } /..Xd 8.@.} @X9.J -.O.f.4.F.n J.#X).=. XF.i Q.7XA.",
"@.* F # p.R H.F.*.Y : 9.x R CXh.y.e 6.u.a -Xs.:.| e.4...^.*Xg.1.zXxX+ P.i.&.C Y.h r r !.5XZX<X>.' O.J F.cXC 1Xi.).<.! b.^.K W.D.",
"xXo q.x H.3 `.F.&.T./ |.x Y./.x L.V Q c +X7.*.W.*.^.cX X,.=.=.cXA.sXh ..6.m 2 V F.c.9.H.4.aXXXoX'.n.&.'.;Xs :Xq j.u.VX1XVX X;.OX"
};
