/* XPM */
static char *Free_Converter_com_carrelage_80_x_80_texture_37242431[] = {
/* columns rows colors chars-per-pixel */
"64 64 68 1 ",
"  c #89867D",
". c #8C8A7F",
"X c #868580",
"o c #878A81",
"O c #8D8C83",
"+ c #8D8E88",
"@ c #918E83",
"# c #908F8B",
"$ c #959286",
"% c #999687",
"& c #94948C",
"* c #99968C",
"= c #97998E",
"- c #9C9A8E",
"; c #969691",
": c #989792",
"> c #979891",
", c #9D9C93",
"< c #9E9E99",
"1 c #A09E8F",
"2 c #A19E94",
"3 c #A19F99",
"4 c #9EA094",
"5 c #9FA09A",
"6 c #A3A295",
"7 c #A8A697",
"8 c #A4A49B",
"9 c #A9A69C",
"0 c #A7A89C",
"q c #ABA99D",
"w c #B1AE9F",
"e c #A6A6A1",
"r c #A9A7A1",
"t c #A7A8A1",
"y c #ACABA3",
"u c #AEAEA9",
"i c #B1AEA4",
"p c #B1AFAA",
"a c #AEB0A5",
"s c #AFB0AA",
"d c #B2B1A6",
"f c #B3B3AC",
"g c #B9B6AD",
"h c #B7B9AE",
"j c #B8BAAF",
"k c #B5B6B1",
"l c #B8B7B2",
"z c #B7B8B2",
"x c #BBBBB4",
"c c #BEBEB9",
"v c #C0BFBA",
"b c #BFC1B6",
"n c #BFC0BB",
"m c #C2C2BC",
"M c #C5C5C2",
"N c #C8C7C2",
"B c #C7C8C3",
"V c #C9C9C4",
"C c #CFCFCC",
"Z c #EEEDEC",
"A c #EFF0EB",
"S c #F2F2EE",
"D c #F5F5F3",
"F c #F8F7F4",
"G c #F7F8F4",
"H c #F9F9F6",
"J c #F9F7F8",
"K c #FEFEFD",
/* pixels */
"KKKKKJKKKKKKKKKKKKKKKKKKKKKKKKKKKHKKKKHKKKKKKKKKKKKKKKKKKKKKKKKK",
"KKGSHGKSDDJDKHKDJDDJDDJDFJHGDFFFHHHDDHHGGGGFGSSGGHGSJJGJJDJJSJKJ",
"KZMzkbbkkzzknmnzxxllxvxvzzxvxvxxfzkkznnzmbhxxmbmxxxxcmcnMczzzCJK",
"KSf<=5e5<5t5555e31--q8392267qqeqy8#&,-ty0t7q66672,,8eeeut5e5;fAK",
"KDk5;58558e8555a82-6i93822-6770ry3&1<<tuye88q9q78<:8r<<ru505&sSK",
"KKce<5ee55<855eare8igi9eq2-,667q989362,@2&#&2293y83er<<e5&>&&kGK",
"KDs<<5te<<>55eeee87q998386252,57****,882$-83-&3yq3238<:35>05enDJ",
"KSu<<<e<=5<<>e55e872-68:<<676,=,q23933*,277q2<-:3933e3eet5u5ezGK",
"KDs#<e5>&=>t8855r9822221*2w921$16w9*8q21**2wwi9#<<<<55e<>&805kGK",
"KZe>>;+>><4e558yrr89899239iw22296921288q*-872wi98;;;:e5<;;-56xFK",
"KZe5<>+>>50a75-51:*%17622wii929926266227221119ir:,;X5u;e>>&&:zDK",
"KJf555>5=>>86647962--21**9w931792662,21-q81-29yw8>e<;et5<:>=#ySK",
"HDs>454>yuyday70%-229ww9-2261$3992---22177727288y0yy,<e;::8r,uSK",
"KSs>tuut,0tsaaaq22212226--132*29w21787772667r2-*:u<:e5;<>#3r8lJK",
"HAt=5yty8y08<t0t6-*2333q**-231*1712w9771qqqidq*%=#&,<<<<&:;-evJK",
"KJu>,syy8e<,,e8>31:rr937**-**2***-8217962qidd9114&67<:#;#e;+eMJK",
"KSf<#+te>,8<880,<,2rqq9-112221*2--22127q7qd77-16-=6627q22-:&ouJK",
"KAsu+;<#6865-<<<073qq88272722121166116qqq7877666766687q8e8rr,uDK",
"KSct;#<>008e5qty0<&,21**399322211761-677q6271776662667q68808,sSK",
"KSc#e=<t,5<8<tsp3<,,921*12739221-66166619267279661-2686629,$&zJK",
"JDu<eu<5388>;eur3e,29971*1112277276666767162-*61--16qq7667=@:xJK",
"KDut<ut5ee8&>:e<3e:-277%$%%$%1296776677qw26-1%1-%%-6wq7716228lSK",
"KZs5>;te833:&&:<e3<,211%$$%*%%%176766667wq777677-=-6wq67226qyxDK",
"KSu<e+etee5e<:;<83232-1$**11*@@$66661*--1627221q7767iq177662<lDK",
"KSu0t&yr88:88858&<<qq2q--@@*1%%%1666666686266622779q762627-7$zDK",
"KDset&e<8e588<56e80ar9i6-*%%%171%66-177792267772-122166976,76xGK",
"KZte6,tq,8:5<80ye8tq:9r2-%$@$%11*-61<7qq92216772-22--222766q<uDK",
"KDye5,6<8e-5:<8ee3re23231*%1*%*1-%*6667q992*126282676-12i7%2*zDK",
"KJpr3<3<58,88t88e<8ee<;r22692-***@%66666989921276677,**107*,$kDK",
"JZe&&:8e>5>8yy0<:<3>:3392*271%$%%$%-266$28r9212369921298,7q6&8GK",
"KFf:<3yu50:8et5><8e,&3y1*@*61@@1-*16-66$1,382,-1799229yyurq88fFK",
"HSx0t8e80t,58y05t<5t:-r2*26937976*2q67q63--22--1w962399ir8:8,fDK",
"KGz7trr23382:;<<,&<222*@ *3r*91*7q-@,rrr9r9::*:3i992rr339912$lFJ",
"KGh00,3r>+O@&#:*8&&88-X@*@*r2:@%.-=%,-19rrriw* :393*39rr31-22gDK",
"KDf6<:,88rp9:*-:>#,881@@@@$13**$1,$$8922*&&9i3**-292933991132gDK",
"JZt2slvgiqwiir93>errq6**-931312@-7# &2:23:*&3r2*$-23ir932972,lJK",
"KHxuxli6q1-qii99uuutp3*:%---9%392iq2223r-32:,rgl3r99332:2q70-vHK",
"KDhai239q7qfw33iuuyeyp8<9--%1@$*393399--8892-29yilpr2$*@*==6-lGK",
"KDhq7=6q222irr330tseyllr32323222338q812272282*&-3irr2***%%%7,fSK",
"KSg66-1-6,,83i9363usrrpfr199392:*29q9ww279id31263iri93332=272fSK",
"KSl85q6639223r93,8tu73r8399333*33rr3:3ir33gg2@r6<0#;,58qdyry8xDK",
"KSxe6st03wiirr3307600883993632:*:33e388867wwr82#>>;<>,7dyyeuycGK",
"KSx88dat9rw9ri3:-55qdr3,373rw9r3rpey39122w2619--8>5e&#*4<<<remFK",
"KGl<8usaqir3iir3ya00r32q7rrir9i33y3e28--$97988*18,8e<,+#&;;<<cDK",
"KJxettuu2993urrqdsq8q2,r66iyrir9388806*-$22qqq92,56eee#,<>#>,cDK",
"KDcphqt03122iiui8008091322w9ydiirry7q622:-1,2282,885<5,88=O&:cHK",
"KDxys0a6w3:2ipyrytu839289679rr298866,6qw-,236-11=<<e8550:,#==xGK",
"KSh2tqd093:889&:&,yr9q21ww37wr96886q=667r8,2q62i788fe58,5077,hSK",
"KSx64y=00tq832220t00<yt0yryufw98968283ryt7,88q68i787<46%=ura0lHK",
"KDz--65aqair8623tyyt<8ufryuyrq72q9q9iifpft886tta7rut7,-16qattcHK",
"KDz5--8y0tur93990tt5850tyuppa7772289riiizsr<8tshggt7ua7a&-<8tmDK",
"KDz05,8687q7939quyauayeyptaut55888qiiiiihdt<0yhfgst3328ua8,-<vGK",
"KGzee3t09q0888rpsffkattkpfffyryuqqqrarqwuyy5yalufq87998,8q970VFH",
"KDcsptd7r888rpppszkzst<tqfht8rt5877q70787600yaat:,qr1-7qqr62,mKK",
"KSmsfru5938erpklzzzbzue>0shy0eteqwwi7756588000qtt86688idqgqi6vSK",
"KDnye87<888eryuuzsbbkttertpfu8eewdwi66-5,6,8-66qtq,-21-82i7d7xDK",
"KGcya44,qrt0eetskznfztttrppxyd867ryy083<,566557t84--6666%1*u3fJK",
"KSh0ay0530ttteteuukffuetrydxdt,28700886<880000qt6,-4777q99&3,uSK",
"KSf560ee8eeeuyyteu0kua50ddidga226267q777t7580qtq8,177qdd8i23,iSK",
"KSs<-ysfsfsu0t5,400aak85qr98fq72667aiqadt767tuaq6-67-6qw2pp2*fJK",
"KSf55ssukzzfuu8>,tuyuky3rii3fiq8:%-682285<,<588882qq16qi9yu: dKK",
"KDCMnBMMMBBBBBMnlnnxmMcfvmMxVmmxxhfzvvxjzxzxxcxcxxmmxxmmVmMnsmFH",
"KKJJDSDKKJJJDJGJDHHDKHDDDJJJHHGSKFSGGKHSDDGDDDDHDFJFFFHHFSDHSGKK",
"KKKKKKKKKKKKKKKKKKKKKKKKKKKKKKKKKKKKKKKKKKKKKKKKKKKKKKKKKKKKKKKK"
};
