/* XPM */
static char *Free_Converter_com_carrelage_exterieur_5_12041542[] = {
/* columns rows colors chars-per-pixel */
"64 64 114 2 ",
"   c #6F5640",
".  c #725943",
"X  c #7A5A45",
"o  c #715549",
"O  c #7A614B",
"+  c #7C6557",
"@  c #80604B",
"#  c #8A6B4F",
"$  c #836651",
"%  c #8A6B56",
"&  c #856B5A",
"*  c #8B6E59",
"=  c #8D725D",
"-  c #90715D",
";  c #8D7562",
":  c #917560",
">  c #957965",
",  c #9A7A61",
"<  c #937769",
"1  c #937B6C",
"2  c #9A7F6A",
"3  c #9D826C",
"4  c #9B8472",
"5  c #9C8B7B",
"6  c #A18266",
"7  c #A2886F",
"8  c #A08572",
"9  c #A48A75",
"0  c #AB8D75",
"q  c #A58C7A",
"w  c #A98E7A",
"e  c #AF9177",
"r  c #AD927D",
"t  c #B09175",
"y  c #B2947D",
"u  c #B4997E",
"i  c #B99B7F",
"p  c #AB8F81",
"a  c #AD9482",
"s  c #AF9B8C",
"d  c #B29683",
"f  c #BA9680",
"g  c #B59A85",
"h  c #BA9C85",
"j  c #B39689",
"k  c #B59B8A",
"l  c #BA9E8B",
"z  c #B49F91",
"x  c #BA9E90",
"c  c #BDA185",
"v  c #B5A08D",
"b  c #BDA28D",
"n  c #B6A291",
"m  c #BDA493",
"M  c #BEA995",
"N  c #BDA698",
"B  c #BEA999",
"V  c #BFABA0",
"C  c #C09C86",
"Z  c #C09E8B",
"A  c #C0A286",
"S  c #C1A48D",
"D  c #C5A98E",
"F  c #C9AB8E",
"G  c #C2A692",
"H  c #CAA793",
"J  c #C4AA95",
"K  c #C9AC96",
"L  c #C2A699",
"P  c #C4AB9A",
"I  c #C9AE9A",
"U  c #C4B097",
"Y  c #C9B095",
"T  c #C5B19C",
"R  c #CCB29C",
"E  c #CCB89F",
"W  c #D1B49D",
"Q  c #C4AEA0",
"!  c #C9AEA0",
"~  c #C6B2A2",
"^  c #CCB4A2",
"/  c #CDB9A4",
"(  c #CBB7A9",
")  c #CEBAAA",
"_  c #D2B6A2",
"`  c #D4BAA4",
"'  c #DABCA6",
"]  c #D1B6AA",
"[  c #D3BBAB",
"{  c #DABEAA",
"}  c #D4BFB1",
"|  c #DFC0A4",
" . c #D6C1AC",
".. c #DCC2AC",
"X. c #D5C2B3",
"o. c #DBC3B3",
"O. c #DEC9B6",
"+. c #DAC6B8",
"@. c #DDC8BB",
"#. c #E2C3AE",
"$. c #E2C6B3",
"%. c #E3CAB5",
"&. c #E8C9B4",
"*. c #E3C6BA",
"=. c #E4CCBB",
"-. c #EACFBD",
";. c #EBD2BD",
":. c #F0D6BF",
">. c #E3CFC2",
",. c #E7D4C5",
"<. c #ECD5C3",
"1. c #F0D5C0",
"2. c #F3DAC5",
"3. c #F6DDC9",
/* pixels */
"b b b b x b d x L k m S G G d x k P L G P *.5 P I K R G S S H c D Y b F D c c Y i D W Y / R I R E U M T ^ _ ^ ^ { n b R U b D b ",
"g I J k P d { I ! P L L G x P k G L G x G j 1.1 / R ` J H S y c U c D c u F F A D ` W v U R R Y E K R ^ [ ! Q ! P G / ' J Y g g ",
"^ I o.^ m ^ x P ~ j z ! _ x p L w m P x _ P m =.9 O.` J h S D F c c c F F c c i ' R G U / b v E R R P _ P _ P o.I G K ` D U b U ",
"P a I $.P ^ R ! ~ Q m j j G o.G G j m _ j x J J =.p o.R D h A F D c W c F D u W I ` R b U / E J K P ^ R ^ ] ^ ..{ ^ G W U D J J ",
"m { k P ^ x n R N ! x x x j L m L x k a P _ M m m =.9 b G R D D Y K W S i D ` Y _ P K U R E ` / R ^ P c M R R [ _ _ m S S K I b ",
"m ^ I x j G G m ( ! ] Q x m N ^ n m x x k b b K P k ,.4 B b S C W A K A F W D K R D P U M U / P M / U U P / U M E U K D K I U T ",
"m P [ l m k K g z ! L ! ! N n M n _ I x L G P { K L G ,.9 / U b Y D y A W Y G R K G D M U T T P ^ E U v / J E M U U U ` ' E U U ",
"I G L R J K b b x N x L Q ) s M Q N L K G x P _ G b B T ,.4 W J b f h W W W U M R U b M / E ~ X./ R M U E M U v E ` c R R  . ./ ",
"J G b x ! [ P M L x x L ] ! x x P L x ^ G L ^ G G I m G V @.5 V h D _ Y S W Y b J m b R ` U M T ~ T ~ E / ~ / T B T v v n / } ~ ",
"R v b L k P L G ! x L L ! ! Q ! N ] ! L P P _ P I h k k / N ,.4 b _ K I J b R J D K c E M U U E T ~ T B M T E T ) T ~ ~ M ~ +.( ",
"E y _ I x ] d I L L x m x x ! L ! G L G I m ^ j Z S R P a / ~ =.G ^ J J v b K k K W G U T B M / ~ )  .U ~ n U M ( ) @.) ) ) ) ) ",
"G ` d l ! w ^ m L L ! G x Q L L [ x P ! I x P a h J b U P M P  .=.p T _ k P c D J m U U U U / ^ V V ~ T T v E  .~ X.+.V ~ ( / ) ",
"b ' d M x k k S G W x K ! L ! L P ! ! ! ^ L m G d G E I U I _ R / @.q U n b k K G ` U M b E v M ~ V V O.n v s v ~ V ) ~ M / E / ",
"b b { I K b b K G G b x P P G ! ! ! L P P G x ! d G d K G %.G K M T ,.; U U h G K b b U M R R ^ V M M / n B U n V U V ) / / T  .",
"S J ` J G x G K m K l H H x ! L ! L x I P P G ^ P v R `  .Y K b G ^ M ;.a U I J ` J J G E K m _ M B U ~ ( ~ ( V U ( M M / T ~ O.",
"d { ! b G b S l l S G K Z x ! Q k ] G x G G d P G R c { R h J Y G G R U O.w G ` K _ K G g R b b B ~ z n ~ ( V ~ ~ ) ( V ~ T X.X.",
"x g H x G k b K G K I l x H ! L ! ! P L K L G P K b ` J P h m J G I G G M ..r I b U R K g b K m ~ T n U m M ) ) ~ ~ ~ @.) X.( ) ",
"I 0 r b l h G I I G I G G G G P P L _ x P K _ x G R U K v h U b G J K ` ` b ;.> k U b a d b g J v U B U ` M B ( X.( ) } >.X.>.@.",
"S g S K K h h G R W h J _ S I H H G G w g b l h ' U ` r k b G G K b R G b U U ..q ` b c U K G g B M n T x L N Q ) V X.~ +.) ( V ",
"C y 0 u D K R g I K J G K J G G x I I R l l d W R K b S G M B v b U _ G ` K m R ;.0 k G J G S _ B B M s ( ( } @.( ) ( V ( ~ } B ",
"t h h D b e e ` K K _ K S b g J W g b b D J R K G b b P P b m x P P J K K R b J G =.g _ l x K G B ) M P I X.T ~ ^ M / v B U Y U ",
"6 t i f W b K c J K J K S g u h u D D W S ` K S G x W b b k x M M ^ ! P ..M R _ m J 2.a l l x G B B ^ P ^ ) *.} E E b R U b K K ",
"| # y t S S y d H G P G G K d g l H J g R S K k k I G R k k m x P ] ! ^ b ' ` m U M b ;.8 I I k M [ G M G P P } ` G b G b R R ..",
"A | , 0 h u k h d W P I G J K h J J g ' l l G S M b G m b m G P L k G P I I I I k E P v -.9 _ J ~ P P _ I m ^ N ^ U / G R P | Y ",
"h c ` 6 0 h b J c r R [ x I R S S h _ k l h d g m x l w P x Q ! L N G I G U P I ] P ] P ! *.q } ~ G R G T _ P ^ { M G P I ..J J ",
"c S b ' 3 S J S b G G P M g P b h ` h h 0 R y d k x k L P n s M P P _ W b K n P m _ m P ^ m =.4 G R b P ) B ~ ~ [ a K R ..` U W ",
"h J J c ` - S I b b q m [ d I d ` b b d G w r r m x k L n ( ) N N n m k J G _ L d ^ M b k G x 3.; R G U G ` _ P x k K ..b c Y Y ",
"J G S G M ' $ h K k I G k K d W G y g G d b r b ! ^ P Q ( N N V x n ^ _ b _ b P J G x m k x b G <.q E I P P _ x j G { D r u h J ",
"b b J P k R ..> b P b R K d ` J l G K c k n q b m n z s ^ } +.N n P k K G _ P k v G M k x p R L ^ $.9 R G G J ^ I ' h y I c k J ",
"b b m I G W d &.2 J K b G R U G b b b P K b c R m ! x N ~ N n ) ~ m / g G I `  .P v R _ J G a P P x ;.3 x G I l W D h h c Y u R ",
"m { G I b R b R &.= b k R G K b K G I G J k K b L P L ! N Q n s ~ B b v b U ^ T v ~ T ^ ^ k P m ^ M P 2.2 _ m #.C e F H c c D b ",
"P ` { g b k G R ` &.4 ` I ` b G b b W c J G h P x N m Q z s z V B n G a h b ^ ) ^ B ( N P ^ ^ P P ` a J 1.r ' h i f F Y R Y e v ",
"M x ! K I j K I W x { 4 R _ x ! J k ! } P L M k x L L L s L P P ^ P S g b c b  .~ B } n G T ^ M n ! P ! ^ *.j l f C A A H i H G ",
"m L P G f G G G h _ P &.9 ^ G P k I G T Q ( P k b L P ! _ n L d j m G G b R U B B ~ M ~ ^ a B G n m K P { ^ -.q h f i F C F W W ",
"P K H l I f H S ] h G P o.1 { ! G K b m k k d h K m N L L L m L ! k m G b v M M n V z P N ~ T N K x m =./ b { *.g y i A i F b S ",
"K b G l G Z C W H G x m K [ o ] h J k G d g k J G G L Q ^ j ] P ( G ! m b v P n N n ) ^ ^ N G j G x _ _ d m m b -.0 c A t h G R ",
"S R h y Z S _ K G f G a k ^ o.< S g I J K K G y x L ! [ n ! x ! m I I G m B B M ^ } m T M J J P x _ R G K x G U J =.7 u F F h W ",
"b G S l S ' I I Z G m m b P M o.> J I D D D G R k J G K L x P k Z ! P G G M M M I { ^ M I J j b #.I k G g b J d b D ..4 b h D H ",
"h d Z S _ Z K x l K G b M h G b &.* A H Y i h R g l x P G P k r j K I G K I P d x G G _ b S h %.K Z K H k G l G U b K 1.7 b g R ",
"k f l W S b k G S J b b g K g b S #.X Z D b S K J m G G ^ M M a Z l g W R I G M H Z x G Z S $.b S G G G u ` Z H m ` _ M %.r b S ",
"b c ` r h h b g G g R S J d l D G x #., H Z l G m x ! G l k J b H S K d G b G H C S Z P G ..P G G I d G g b K J g b _ G G ..a b ",
"S K h P d m g j h k G b b h k c S h S #.- G _ x K I a G K I c J G K ` G h k G h f h H C | J r K J b K S k R G S G G K W S b  .9 ",
"R g S h l S k S b J G b G b S b R K R I #.: J K G x p K b J K K K K c m G G f C C f l $.K R I l I G g l g _ J K b _ A h J b K $.",
"J h h S G j l x k b b b _ G K K b R _ b R W $ G ! K G _ b S K g c R G b K W h A h Z ' W b R W W W H S G K h b g Y S y H D S Y Y ",
"S g k g G j K G k b k k R b K J I G b K K K _ * W G W G b r f K G k G _ Y S t Z H &.W Z S l Y _ b h S ` S G d b l h F Z D h D D ",
"b h g b k P G P g m k b G P G G S S G b K { G { - W H G h G h G x G H x Z A h C #.G Y l J S R I R J S b S h G c F f h y Z H H R ",
"b K l J G j G j j k b G U _ R _ _ ' b m W I J S ' - C G d h H K x ! G x S h D | Z H x I b l J F b D y G G J R b y J u G l c G K ",
"G U g m q l x ^ G k P P R U J R h G _ ` ' G H S H #.@ I Z f x f j H j Z l H ' A Z Z W G D G W f J g K S b b c K d h K Z h R K J ",
"K K b U b P b k b g m ^ T ^ P b R K I b R R J J S ' ' % l g S S j j l x k $.b b h b l W J J G K K J h J b b D U G G J k R D W S ",
"m b R b b G m m I L M P B P P M h k b R G Y S G S Z W &.$ S S h H Z j x { S J S G G b G S I K G m d Y b R J U K G J S S D I S D ",
"R R P U T  .~ T ~ ~ Q M B G M m b g S I H b J G K K S I $.= U d L j h { W I G Z b l l b b P P G I _ G U b K K P K G b S S R h S ",
"b K r U M M N N ^ ( ) T E P K G K G J K K b I G l G K I G ;.  c H H ' H j C I f c S J K J G P I L M K G m K D J G S J G R K g b ",
"J J s M E n B N ~ T ) Q M G R K b K G I U K G K G I K b g P ... H W H Z S Z l h S h J S j g x J P ^ j G G l _ K g S J R R S h k ",
"U D b m B E M n B n ~ E M M R m k U K m m G K I K S b G b J b %.8 ! P G l S D G b b K G l x x b I P ] _ [ G G b S S g G S J b g ",
"b m U T v P s B B n P ~ P I I G K K I k G G K G R H K b W b Y ' 3.* H G G G I G g j G G h G g x G P G [ L L S K R b g h h K D g ",
"G n P ^ B v b G T U x M N ! P P K b b m c R m d Z k b h b R E R m 3.O K m S G x G l Z L l k a P G x _ L L L x I K h R b G D H c ",
"m M x m M G k G B M P P m P I ! k R G S R b R g K S S S K R K W I K =.& _ ^ M P j m G x h j d G N L x m G x L P m P G h G l I f ",
"P L I P I k L m G n G n x m L ! k c m K K I K G G G J Y R H R S K b x <.3 _ K m S g j Z x Z x P x G I K P j G m G x H x h l g b ",
"P I G P ! M x n P x x b G I ! L ` M G G u F K _ W K S W Y R K g J G j h $.q L b k j G L x x G x x K _ x m b K d G P h P b S S J ",
"G P L P m m b L m G P [ n L x L U b c h g h S f l b ` W R ` S J R W h G n $.- k G b j k l x L x G h P K I b G j q d Z h R h G 0 ",
"! x I M G P G m j k k ^ P } ! ^ n M J m S h f h S ` S g K r ` R K H J y k k $.> j x P d j G L x G k I I R G W W x S J g r J h k ",
"G ! P x P G k n m G P P x N P ~ ~ M b g g S y S W I h 0 b b c b c J K S S h y -.< L k L x L L I G S G y r S Y G b b G S b G b S ",
"k [ G L x k x P P m M k n B T N n N _ P g h M ..K G d d r g G I k h A S h b G r *.< N m x j x x K S G K J G k S G K g K l K J W ",
"[ P k P x x %.d x x k k k T N M ~ P B b J G ` b K c b h G e R h h J D K F G y M z *.+ n M m G b G G K I G G h G K b I S h l b ` "
};
