/* XPM */
static char *cieletoile[] = {
/* columns rows colors chars-per-pixel */
"64 64 34 1 ",
"  c black",
". c #010101",
"X c #020202",
"o c gray1",
"O c #040404",
"+ c gray2",
"@ c #060606",
"# c #070707",
"$ c gray3",
"% c #090909",
"& c gray4",
"* c #0B0B0B",
"= c #0C0C0C",
"- c gray5",
"; c #0E0E0E",
": c gray6",
"> c #101010",
", c #111111",
"< c gray7",
"1 c #131313",
"2 c gray8",
"3 c #151515",
"4 c #161616",
"5 c gray9",
"6 c #181818",
"7 c #191919",
"8 c gray10",
"9 c #1B1B1B",
"0 c gray11",
"q c #1D1D1D",
"w c #1E1E1E",
"e c gray12",
"r c #202020",
"t c #282828",
/* pixels */
"   @----6>3>3>3>>>3>3$@     @   @ @@@-3->33336663>3>-$@@@    @  ",
"    $$-->>6>>33>->33--@@   @   @@ --$-->>>>>>>33333>-@$-     @  ",
"   @@@>>>>3336333-----@          $$>>>->33>>>>36>33--@$        @",
"     @$-3333>>>>>---@$         $$$$$3$->6663>>3>6>3-$     $$    ",
" @   @-->33>>->-$-$$@@         @$$-$$-3366>>>3>33>>$$@ @ @      ",
"@    -$$>>>3>----$-$@@      @  @$$-$-->>366>>>>63>--$@          ",
"-    @@--->->---$->$@   @       $$3--->33666>>3>3>--$$$         ",
"@      $$$$>------$$@@          $$-->-3>336333>>->-$$$@@     $  ",
"    @   @@@@-----$>@@   @       @$$-->>33>333>----3$$$@@@  @  @ ",
"           @@@$$$$@@      @     @@-$->>>>>>3>-6$$$-@6>$@@  @  @$",
"   $ @   $$   @@>@@@@$ @@        @$-e>>>-->6-$$@$ @@@$@@   @   @",
"            -    - @         >   @$6>>>>----$ @@@@  @$@@     @  ",
"       >  @ @   @@  -      @     @$--->-$>$$$$@@@ @  @ @@      $",
"  @            $ - @@@@ @         @$$-$-$>@@@    @  @> @    $   ",
"         -           @@           @$@>$$$$@@@    @$$@ @@@  @$   ",
"      @          @   @@@ @         3 $@$$$@-@ @ $ @@->@3 $  @@$ ",
"  @ @@                    @ $@ @@   @@  @@$@$ $@@@@@$--$@ @$--$@",
"              @        @$ @@ $@     @ @@@ -$ >@@@$@$->--@@@->>-$",
"  @  @           @    @ @@@@               @ > @@@--->>-$$->>33>",
"        @        @@ $  @@@@@@                  @@@$$-->-->>3333>",
"  @            @ @-  @@ $@     @        @       $@$--3->>3363333",
" $  $ @@@$@   @$$@     @$ @ @         @@     @ @ @@$-----333e363",
"@    @ -$$$   @$$$ @@$   @$$@ @       @  @      @@ @@>$--36er666",
"      @@$-$@ @$$$@@ @   @ @@@@- $@@         @@ @   @@ @@-->366e6",
"      $$--$@@$$-$$@@@ @   @$@@@@-@         @@ @        @$->36636",
" @@ @$---$$$$--$$$@@ $@ @  @ @@ @         @@ @@ $  @    $$->>336",
"@ @@$->$-$--$@@@@@@@@@      @@ @@$@ @       -@@$        @>$->>33",
"@@@-----$$---$ @@@$@@@@@      >  @ @ @       @           $$3>>>>",
"-$$-3->$$---3$$$$$@@$@@ @@@ -  @@  @@@ @ @   $   @       @$$----",
"-$-->--$$@$-$--$@@ @ @@@@                @               @$$$-$$",
"@@$-----$6-->>--$$@@@ @@                      @          -$$$--$",
" @$$>--$---3333>--$$@   @     -             @         > $-$$-$$-",
"@ @$-$$$--3366663>3$@   $@               - @       @  - @@->--$-",
" @@@$$$$->6eeee63>>$@@  @@   @                    >  @$@@@-->-$3",
" @-@--->36t6e6e633>-$@ @ @@ @        $ $           @@$3$$-$$$$$-",
"@$@@$->>363e66e6>3>6$@@     @@          $           3$$$$3$>@@@$",
"@@-$$e>66666363>33>->$@@ @$@@ @           @$        $$---$$@  @@",
"@$-@$->6633>33e>333>--@$$$$$$@  @ - @    @  @   @   @-->@@$-@  @",
"-$$$$>>333>>>>33>3e>>-$$$$$>$$@ $                $@$@@$$$@  @@ @",
"@-$$-363>>->>363333>>>--->->-$@             @      @@@@@@ @   - ",
"@@@@$--->6>->>>3>336>>3>>>->--@-     $       @     @ @@@    @$ @",
"@@@$$-$$$$->>6>>3333>66363>>---@@   @ @       @ @      @$   @ @ ",
"$$-$$3$$@$--->>>>333366r6e>e6-$$@@            @@  @  @  @    @ $",
"@$-$--$$@ @$$-->>33>3e6666333>-@@@   @                $       @ ",
"@-----$@@ @ @$-->>333333r3e33>->$@@      $@         @ @ $       ",
"$>->->$@@@  @@$->>336e6663>3>>---$@   $   @     $  $            ",
"$$>-$$$@    @ -@->333633636>33>---@@@      @              @     ",
"$$$$$@@ $      @$-3>3633>633333--$$@-                       @   ",
"-$--@ $     @ @  $->-333>e>3663>-$@@-  $                      @ ",
"--@@  $@@   @ @ @@$-->>>>>>333>-@@@@@@    @  @@               - ",
"-$@ @   @       @$@$>----->>>>6-$$-$$@ @            @   -      $",
">@@           $  @@$$-$$$$-6->3>----$$     @   @$           @   ",
"$$                @@$-$$$6$-->>3-->--@  $  @ $               @  ",
"$  @       @     @@-@$@-@-->-->--->>>@@  $   @    @          @@ ",
"  @$  @   @$           $$--$$$-----$@$@@@           @          @",
"              @@    @ @@@@$$$@$$-6$$ @ $@      $    -   @-      ",
"           @@   @ $   @@@@$@@@@@$$@   @@ @  @                  $",
"     $               @@$@@@@@ @@$@$@ @@ @      @        -       ",
"  @@      @           @ @$@@ @@@@@@@   @ @@        $ @      @  @",
"@           @    -      @  @@@@@@ @    @@ @                     ",
"@ @           $ @    $  @  @- @   @@@@@@ $@@@     @   @         ",
"    @         @  @   @@    @@@-    @@@ @@@@@@ @@         $      ",
"@@     @          @ @      @  -     @@@@@@@$@                @  ",
"  @       $$  $   @@ $                @  $ @$$ @                "
};
