/* XPM */
static char *_____________[] = {
/* columns rows colors chars-per-pixel */
"64 64 68 1",
"  c #010101",
". c #070709",
"X c #080609",
"o c #0B0B0C",
"O c #0E0D12",
"+ c #131314",
"@ c #16151A",
"# c #1B1A1C",
"$ c #1D1D21",
"% c #201E24",
"& c #232125",
"* c #26242A",
"= c #28262C",
"- c #2A292E",
"; c #2A2732",
": c #2E2C32",
"> c #312E35",
", c #322F38",
"< c #323136",
"1 c #35333B",
"2 c #38363E",
"3 c #3B393E",
"4 c #3A3642",
"5 c #3D3B43",
"6 c #3E3A48",
"7 c #413E46",
"8 c #423E4B",
"9 c #434146",
"0 c #45424C",
"q c #48464E",
"w c #4A494E",
"e c #464351",
"r c #4A4554",
"t c #4C4955",
"y c #4C4758",
"u c #4E4A59",
"i c #504C56",
"p c #524D5D",
"a c #54515E",
"s c #59565E",
"d c #554F60",
"f c #565161",
"g c #5A5465",
"h c #5D5966",
"j c #5D5768",
"k c #5E596A",
"l c #615E65",
"z c #625C6D",
"x c #655E71",
"c c #685F72",
"v c #64606E",
"b c #666171",
"n c #6A6475",
"m c #6D6977",
"M c #6D6679",
"N c #6E6979",
"B c #726C7C",
"V c #74707F",
"C c #756E80",
"Z c #767181",
"A c #7A7484",
"S c #7D7987",
"D c #7C7788",
"F c #7E7988",
"G c #827D8C",
"H c #827F90",
"J c #878391",
"K c #888191",
/* pixels */
"GBnDv<mBAJAJFCNnMBN9pkxNNzxbbbmb2vBnNNnckgvBn<zbbnnbxkxNZb2bNnBG",
"Bnzna-vnBBbZNnzzzxb2qfdzgpjljzzk=gzzxzjjgpgjz*dljklggkknNk-kbvzB",
"Znznf-bnANkNMxxxxkk:0jkzkgcxkkkk*hbzzldgjjjjl-hxkkkjjcxnBz:vzznV",
"Vnzbh-vmFNkNnnxzkzg=uzjjxxckhgkf=kvkzjpgjkgjb-hzgjjggzkcBz:zzcnZ",
"Znzzc>hnBbnMnnxjggd*dkpjgjkdfggg*zzjgddpggpjk-yggggggkjcBb;lzzcM",
"ZnMnn>fmNbjnxxzjkjf*fgrgjgjdupak*fjjggdpffrgk-uapdfgkccMBb:jzccB",
"ZczMb<pNnmjxczjlkkf*pgtjjgddyddj*pjzzjgdfutgv=yaufdddzzMnn<lcccV",
"AzzNN1rVmbjczzjgzka*puugggddukfg*pjjzjdufyaag=epujggdjjcBb:zccnV",
"VbmmB95BbbfNbggfpkp*upufjggfdzzj-ylpfgurpyupf-a4yxkgdgzugz-vNnBZ",
"ZNnmZw2BNbhZBaauuff*upuufjggdzzk>egfugprpuauf*a7ubjfggl7pn-zbbnZ",
"ANVVbv9VvvnASvzq8df*p8rppfjvzf0z7yg0agfupf08a*uglxxkzcbBVn2ve8BZ",
"DBANum2nqfnSBvfa0as&perpppzvvaqz9qliafgypfryt;gkzfjglbnBBn<lgpMD",
"ACBNvl*plzzVmzpptuf*yjdgddjjgggg22pytudrufpgq=kggfufggkMnb-jcncV",
"ANBNxz-szbnBBnjayua=dcjpgffdzzdd7>ddedpyubfd6@fgkuepdzzcnz-gzznA",
"DNZBcb*=8yeplvzghff-dcjpdddpzgud0:pgydpeundf9 1&$*#-8dbnBb=jcnnA",
"ZCBBnz*>*X   $--::*&gxgpgppjdupfq:gueddyubgd5+;4eia6>&:7jl:zncMB",
"ZBCZcz>8kt$%uknzsq<&hzffgfggddgue:kprpgggzaf44fjafpfkft4<#$vNnNB",
"AZBnbl>8fkkmAnzNnzf:kffgkfgffpfu0;gfrygkgapa4:fguuuyugknVt-kVBBB",
"AZBMbz>ezzzACMxncku;kjgfjjdpdppdt-gferajggfa51ptrtuuyugxnh<bBMnV",
"AZCBxz,8kjkZnnzbcgu:kgfgkggugfuzt>jjrydjjgfg62fyyfpurygxng<nnBBZ",
"ZZBnjz<rzjkNczfznvp:vgjgkkgudgdj04ggutjjjggz51kgufppredzja:nMZBA",
"DNNMxx<ejkbNbxzzbgi:vzkgdjfudggz95kuregjzjzk51gppgpdpegkfa>MBVCV",
"ZBnnnn<8kjzAMnzznfr:xjkgdjfddggz2tbayefgjzjj81ffgjpgdyxzja>zBBCM",
"BBzbzm>ubkxAnbzgnve1kgjjdjgfdggl2rxfytygphgk01gffjgpprgzhh=cAVMB",
"CBnMnV:gbvNAMnzgbbt1xdjgugjfgjfz:alddrykjfkg81hfjjdudygklg-vZZNC",
"ZZBBNV:fkbNZMncfzbt1kdzgujjfkzjj:gxgkuudyfkg81jgkzdgzrpfjf-nABVA",
"BBnNNm:ikxbNnnzjkbq1ggzgrgkfzzgh=akkvpdyuvkj51gjxkgkceypgk:bABNS",
"BnBBVm:pbjCNcczjgg01ggjgupffzjjj#&-:11er8e61O>ffxfuzzdpual1zBZBZ",
"DVZZZB:kbzBBzzzzkb02kggdupgazzxg=khu7;&&=;:1;:gdfjfMBarygv:lZVZZ",
"zgblt=#knbBnxnczkC52bbjguppggjlp-nbkvfddggkf9:gp8fuxZk8pvv-qnvnB",
"*>:###&bnbBmbbzlbD61bBzgrggpdgny>bbjkyjkxggg14guegukZZtgnb=**@*1",
"BnBNBh2BxbABnbcMbC34bbbjpkhkjzMq8bbNnhhhkjfk:4kfjvggAAbnBn3vNvnV",
"BBBBVlqBNzGZBMnNBn>:zgjgufvNngm9smmnBbgfzzjk*4ffbkvfmSAAZB3hnbvV",
"CDZZAi7nnzBZMjlbBM#%cjxgrpzzzam<fgxbBvfbkbxg#6sugpgumVmBZB&fVAAm",
"ZMNBA77zczBNngjdzb++z5gjplcbtub-khvzNgfvjguk+9vugfgpvVbnVV+fFmmA",
"ZbNlA3qs8nZBczx8gz@Xdedjcczbgpg*bkkknpggkzpgOafukgkgvSBbZS*pAivG",
"ZbBaZ2pzzcAGnxbnbn*Xflxjdjdjzzu>B8znnllzzcbgOyeyxkzxjABz8F>qmVVS",
"ZzNAV,pzMcNBnxxcBMt*zjzgydfzxb0:NzccBczzgzkg+tgxbjjfuZZbvS1tBNNA",
"BBVAA,icMNVGnxxMBna<cjzfpdzzzx<*zczMMzcjlczs#plxzggpybbbVZ-6FBNN",
"BnVSV,acMMABxkzbBna*gfkgpujzzb;=zzznMzzjxzzg#ubzzkjfuupjmVo9FCbn",
"AxNZV>abznBZNbcxBnh-hlzljpzkbM=:nccMMccczzzl*axzbzxkpypgbs 4NzbN",
"BMBSV<fnnBBZNBnCbzf:hznccjjxxb<,NBMBcjccgzzz:gzxxjkzp8yzbv 1nxln",
"nnBAA<fBnNNACNnNnjh=jcncclxzxb44NBzBcjzjjlcn-gkzbkjxp8rufm+>xcgM",
"BbBAV<fVBBCANxxNxxl;kkbkxjnzxb0<MzcNzczzjjjz:fjzxkjzpr8fgm&1nzjB",
"VbZAA>hVBBAFMzBDdkl&rabbNjkxzms:MzVBpzzzcgzn>pjjzbzzgr8azz>3Bnnn",
"NbSAV:kBBMBGMlzFznzo X$1au5;1e9-czcGjMgljpzC>rgdxxxxjreazz>7MMzM",
"BnAZV<snNnMFnxzBNMn..<a2*$#96<#*zzcVMMMBMzcB>8jzkkzxdyrgjM17MczM",
"nkNAZ:gNCCMDMlzxnMv.1nknNgjNzvv:zzzccccnnzzM15lcgkxcgpafjM2iMjjc",
"ncBNN>kVBBNFNzknnbbo0xgbZkznxcx-jzbzxcxxcxcN54cnncbnggjzzz2tnzln",
"nnBVm>vVBmAGNkjnNbb@ukjbBbbnxcz;jjzBBnnzNbcA96nxzxxcgjgccz<tnMzB",
"BxBDV-bVmBAJxzzMANb&fjjjBxnnzlv-pzbBBMncCnzNt4Nnjxxzpffvcn>pcnzC",
"nxBZm-vmnnAFnzzBANf=bjkbNxnMzkm-pzcZBBMMbjzBi2Nnzznnpgfbnb>fnMcA",
"nnNFN:vVvnVSBzxBnjp=jjgkBzvxlzm:pznBBnccgdkNh<vzjxbbfjgxnb-jMnzB",
"nnBFN3VSVmGKmNMnbxl=uggzczbNzMm5fBnNMBlgugjng:bxcBnbfzznVm2zzzcn",
"MlNAN7VSVmVKBBnbzkk;8gkkjdbnxBn9sVnczzggrfkzs%avBBmzzkzNVn,zczzM",
"ncMFm:mSBnVKNnMnzvb:6dbkbgpgzcM4qNNnzxku8gxxv+&=>:20tafnBl>znMcM",
"NzNSm*bAVCAJbvbnznN<ekjjnzupgbB01bnbzMnjgjkxz:f25iq2**4yp1*bnnxn",
"NkbSb*vVVZAFmNbvgzz26jjfkkfppzbt1Bzzhlgprktek-utjnnnzp4->#*xnxzM",
"nkbZm-vmzNAHAMnNedb>9gjdufgfaaza1Nbrzzdpfgdea-tegkbbghckas>zzxxM",
"mzplV-vAabASFBZmbzv10drguffpgpfj:BVpczcpupgpp=ygjgvkfkggza<m7sxn",
"BzpxV-kVNANZDBnbbjl>0zjgggffgajz-nMMncBpegfgf*ugjpzlgjjlNa-ncccM",
"ClzNm:nNnAbFABNbggn:8cbljagfppjl*cVNnnlprfjkl*ggppzfdzzxnf=nMnMC",
"CzzMm>bNNDxbNnNnznN<echggfggjplz*lNccMnftgzjh-afffjgdzgznl=zccnB",
"KMnAm2NZDGNZAZBNNNZ0fbkbNbbkxcMn3bBnNnMzfkmnn<zzbcnxljlnVz2nBBBG"
};
