/* XPM */
static char *_____________[] = {
/* columns rows colors chars-per-pixel */
"64 64 61 1",
"  c #030304",
". c #080607",
"X c #070609",
"o c #09070C",
"O c #0B0B0C",
"+ c #0E0E11",
"@ c #100F14",
"# c #131215",
"$ c #161519",
"% c #18171C",
"& c #1B1A1D",
"* c #1A1720",
"= c #1E1C21",
"- c #211F24",
"; c #222126",
": c #25232A",
"> c #29262D",
", c #2A292E",
"< c #2A2730",
"1 c #2D2B32",
"2 c #2F2D38",
"3 c #312E36",
"4 c #322F38",
"5 c #323136",
"6 c #35323B",
"7 c #39363E",
"8 c #3A383F",
"9 c #363340",
"0 c #3A3642",
"q c #3D3A44",
"w c #3F3B49",
"e c #403D46",
"r c #423E4A",
"t c #424046",
"y c #45414D",
"u c #49454E",
"i c #49484E",
"p c #464251",
"a c #4A4553",
"s c #4D4956",
"d c #4E4A59",
"f c #514D56",
"g c #524D5C",
"h c #55515E",
"j c #58545E",
"k c #554F60",
"l c #565261",
"z c #5A5464",
"x c #5D5866",
"c c #5D5668",
"v c #5E5969",
"b c #625C6C",
"n c #655E71",
"m c #66616F",
"M c #666171",
"N c #6A6374",
"B c #6D6977",
"V c #6C6778",
"C c #6F6979",
"Z c #716B7B",
"A c #777382",
/* pixels */
"XXXOX +O+##$#####$$O##$%%$$%$%%$O$*&&&$$$@%*%o#%#$%##@###@.+@+OO",
"XXOOO ++####$$$&%%%O#%%*&$&**=*=O*=****&%%%*&O%&%*%$$$$%&#.@@@#+",
"OOOOO +#$$#&%%%%&%&+#=*==*===;==O*;=-==&--*-=O==*=**&&%&&$o$###+",
"OOOO+X+#&$$&&=&&==*+*-=-;;:;==;=+;;;;;=-----:+=-===*=***-%O$$###",
"O+O++X+$&&*======-=+===;;;:---;:+:::;;;=----:@-----------=O%$$#$",
"+O++#O#&&&*==;---==+::=:>:>:-:;>+><>:>:;:--<>#----------:=+&&%$$",
"+++##O#&*==;;;;;:::+::;><>>>:<<1#><211<>>>-1,$;:->:-->->:;+==&%%",
"+++#%+#=--=;;:::<<:@:<<<11<<<3<3$>2241<<1><11#;><<>>-<<<,:+--==%",
"+###&+#=---,:;>::1>#>><133332664%<63342<2<223$,->43<>>>--,+::;==",
"###&&##;::;53::,:,1#,211666630q7&,66362<33326%3:1731111-:1#;:;-;",
"#$#&&&$>::>6833;:13$2><6667ee0<r>3016q9340<<6%447e77664663%>&$;;",
"$$&&$;+:%:165511:25$5,2940ryr73r15q6700900343&q0e476686766%>:;::",
"#%&&=&O=:>176311126$600000rqwwrw,:777909009w3*rq7746776e75$,,,::",
"%%&=*;#;>157qq64136&0yrwrwwwadww5:rw6qw90arr3@qer616687e76#>,,,>",
"$&&;=;O#*:=,4806088*warwrwrwrrrr5:qr0rr9rgrr4 :%#%#-16eee7$11,,:",
"$&==;=@##    #&=;=&&rarwrrrprrrr8:ir0rrrrdrr3+-37e7<-%&>67%551,:",
"$&=;;;#=3;@@17rr84:&uaraardarrarw:grwpspagpp21ypre9er94--@@6633>",
"&&=;;;#&>36eirraaur-urppdpaaapar0-dawwddsppp5>ppee09rrrrr4%3e53>",
"&=;;;:$;347uurraurr-aaaassppdradr>sawwpkddap51pe00r099rrre*7863,",
"&==:;:$=446uruuusre-saaskddrddrzy<kkpwakgdag65arrrrr9rrrs7-e7761",
"&;;;;>#;446rrrrrdat:gdsdkkdsdgdgq6gharkkldgl61garrrkr9rre7=qee71",
"&&=::>$;46quprraspt:lkkgsgdsdkgzq0larwklxlxl83darkrrr9rrq6=ee771",
"&;;;>,$;468fasaahyq,lddkdkddgkgx8avdapdllvllq1dskrrrr9rre6=8ee7>",
"&=&:>,$>66qspasrdh01kslkszlgkkkz3avhspalglllw6dddkkrrwrkre&eee61",
"&=;:>1$,7qysasarhht1kakgdlzklzkb3hvggpsclgclq6ldggarrrrrre&qte61",
"&;::,5$,5qysadsrslt1kdbfakzkxbxx,lblbsddslvkq5llkkddgrrrre=eueq6",
"&=;:,5$>60tiafdash83ggzkpzcgbclx>hbxMddsdvvle5lgckdkkrerer-rue86",
"=;;>,5#>77uapapaasq1kghhafkkbcxx&;>149patyw6+2ggbfrkgrr0rr-ete85",
"=;:,15$570usupsdgl83gjhgddkknbbz>vxdt,;;><16<<kkdgdcbrq0ri=8ute6",
"$&;;&#+57qiipsfafb73lbkhadhkkbbg>MNnMllgczvlt1kdraakbf6rui=38q63",
".O+OOO+57qaapasagN74xnbgdkzgkzVa2Mncbscbblzl66zargpgNbrrfu&&%O##",
"&=::1,&87essssfllb65bbbjdcccbcZutMMVMcvcbclv18cfkcfdnngfhi>ee855",
"&;:>5,;qqqffsffhzl,>zgkkakbVmzVulBVVCmzlbbbb-0ggblxsxmbxjf:8t065",
"=;:,1;&688isfyahbb&&xkngpgbbmjN5lvnMZmlMbbbk$rgagasyxvjzjf#8tiq5",
"==;,5&=57qiaaypyfj@#x0zxgcbNssm,xvMmCzlMzjsb@rbagdgplblgjfO8iq67",
"==:;1$;1:easaas6ag@OarkkbnbNlgx:MxvvNlllbnsb@fkazgkslMzsjx&5i157",
"==;=5%>56qafsagljz-.flblgkkcnbs1ZrbVNbxbbnnk@drrckkkfnza1x;1teq6",
"&=:,,$>5qeafsasgzbr;llxkdgkbnMy1ZbbnZMbbzbbj#rbzbkgdpbcgix;1yq06",
"&=:,5$:68yafspslbzi,czcgdkbbbb6;nnnVZbnbbbbj%gcblggarzsdhh=,se91",
"&;:11$>68yihppahbzi:dfzkddcbbN,,bbbNZbbxbbbz&dbzxlgarrraffX,it61",
"&=:,,#:87tusssddjzf:hbzzzdcbnV:1NnnCZnNnbcnc-jbbvllgpwrpdq :t061",
"&;:,5#:87yufshhljff:hzbbbzcbNM56ZZCZncnnznbn>jcccgllp0rpai ;t641",
"&=:,1$,7qttsshslkdf:kbbbbbbbnn07ZCnCncbczbbn>zzcvlklr070tsO=q713",
"&=:,1$,8qyihsaslfkg:glbzbbnbbny3VbbZbnbczzzn1gzcvldkw00wya%;q641",
"==:,1$,8wtsfsufbyss=ravbNzxxbBj1NbZZdbbbbzzN1fkzlzlgd09way=;y061",
"&=;,,$,8qqihaysbsjhO .=3ssq>5yt,nzNAznzjcgcZ5rggzzlkaw6wuy;>w031",
"%=:,,#:50qtgiyajzljXO,u6-=&qq5$;cbbZNnNNNzbC3ejgglglp0qewa;,w611",
"$%;,,#>8qtyduyusglf.2xgbmghMxxb,zccbnnbnnccN56jcfgglyrrwwa;1w61>",
"$&-:,#,888tfirrfsgf.0hgvNkxbbbz:zkbbbbbbbxbN69zbxzkhrrddrr-385<>",
"%=-:,+,888tfurrshgg$ygglbzzbbzz:hhfbbbbzbbzNq6xlggggrrrrrr=18733",
"$%;:,#,58qifrrrfjhf&yssdbzbxjhx:akzNbbbkNbhbt5bjdggderrrrr-3763>",
"&&=::#:557tur0rfhgr-dsggbklxhfb:skjmnbbbzsgbu3xldagf0qerrr&577<3",
"$&=::+,557tiyqysarq=rsrfxfgkfgb:ugjbbxkkaahzs>gfrhaaererre*344<>",
"$$=::$,865tieytuapu=rrafgdgxsbz5abbzzzfaruszi:gsfhfferrrue=43<3-",
"#$=-;$,5558irreerqr=4rpparfgfzk5rbffddarrrsay&qahffreeqrrq=33<>-",
"#$=--O,5367yqqerrrr-<wapsrrrpgh35hjdddrr6raai#&&:-:3366re6%3431-",
"#$&;;O;5358t77qqera;4rrwdrr9esg6>sfsafdrrrrar-w>173-&%=11=#111>=",
"##$=&O=,155q7777670->qr0rr9eers7>srurrre4r04r-66erre83-$%+#,,,--",
"##$&=O;::<688577>38=,70640e96ee7-su3rr970ee4q&317ee73766,,$,>:>-",
"###$=O=:=,567777668&>3264947626e=ii4rer444644%176377131>1:$1%=-=",
"##+#&O&;>,,55333633=-64644447477%reeeee416636$<4434411,14:+>:;-=",
"++#&$O=;-::33313>,6$-67444441366$6eee79<<4373$43<<4<11111-+>;;-&",
"+#+#$O&=-:;;,,,1><3%-6331<4<1113#3764e61>1411%<13-1>>>->>-+-===&",
"O++##.%&=;&;::>;>><%->-><<<><<11$<31<34-->1<<#<->>>---=->=O===%%"
};
