/* XPM */
static char *_____________[] = {
/* columns rows colors chars-per-pixel */
"64 64 256 2",
"   c #000101",
".  c #03030B",
"X  c #090A15",
"o  c #0E131B",
"O  c #12131D",
"+  c #131C1C",
"@  c #1B1C1C",
"#  c #171715",
"$  c #100E19",
"%  c #1D231D",
"&  c #0C2118",
"*  c #21211D",
"=  c #1B1C24",
"-  c #0F1627",
";  c #221825",
":  c #152123",
">  c #1C2627",
",  c #1D2535",
"<  c #1C373A",
"1  c #242424",
"2  c #25242A",
"3  c #242B2B",
"4  c #2B2C2B",
"5  c #2A2927",
"6  c #2A332C",
"7  c #33342C",
"8  c #2D2C32",
"9  c #232A38",
"0  c #332D37",
"q  c #2B3837",
"w  c #333334",
"e  c #373738",
"r  c #312C2E",
"t  c #201F1B",
"y  c #443B3B",
"u  c #563235",
"i  c #37433B",
"p  c #2F413B",
"a  c #45463C",
"s  c #59443E",
"d  c #3B3944",
"f  c #2C3442",
"g  c #453C46",
"h  c #384846",
"j  c #3E514A",
"k  c #394C53",
"l  c #335156",
"z  c #395A64",
"x  c #3D636D",
"c  c #484646",
"v  c #574749",
"b  c #46554B",
"n  c #55554B",
"m  c #574B55",
"M  c #475A55",
"N  c #595659",
"B  c #4A4754",
"V  c #65595A",
"C  c #694C52",
"Z  c #4C635A",
"A  c #56655A",
"S  c #65655D",
"D  c #73605C",
"F  c #535966",
"G  c #685965",
"H  c #765B68",
"J  c #765E73",
"K  c #4B646B",
"L  c #546A66",
"P  c #5B7468",
"I  c #4B6575",
"U  c #566F77",
"Y  c #696567",
"T  c #76686A",
"R  c #667469",
"E  c #7A746C",
"W  c #6B6573",
"Q  c #7B6C73",
"!  c #786878",
"~  c #687973",
"^  c #7A7775",
"/  c #8A5672",
"(  c #866978",
")  c #986B78",
"_  c #83737D",
"`  c #847B7B",
"'  c #89797A",
"]  c #94757D",
"[  c #846A6E",
"{  c #688579",
"}  c #7A857A",
"|  c #87837D",
" . c #90877E",
".. c #5D7685",
"X. c #59728B",
"o. c #617D87",
"O. c #77738A",
"+. c #8B7B84",
"@. c #887687",
"#. c #937D8B",
"$. c #957A86",
"%. c #947E93",
"&. c #987E94",
"*. c #88768D",
"=. c #A8768C",
"-. c #688686",
";. c #718994",
":. c #7893A9",
">. c #7891AE",
",. c #5F8180",
"<. c #8C8384",
"1. c #8C8987",
"2. c #9B848D",
"3. c #948C8A",
"4. c #968689",
"5. c #8B978E",
"6. c #94928D",
"7. c #9B8495",
"8. c #9B8C92",
"9. c #9C859A",
"0. c #998796",
"q. c #9D9293",
"w. c #999896",
"e. c #8C9197",
"r. c #A38B9C",
"t. c #A58A97",
"y. c #A49394",
"u. c #A3949B",
"i. c #AC959C",
"p. c #A59A9A",
"a. c #AB9B9D",
"s. c #A59796",
"d. c #B3989D",
"f. c #A48A8D",
"g. c #91A999",
"h. c #ACA29E",
"j. c #B0A69D",
"k. c #839CB8",
"l. c #9393A5",
"z. c #A58DA2",
"x. c #AB94A4",
"c. c #AC9CA3",
"v. c #AE9AAB",
"b. c #A896A6",
"n. c #B39CA3",
"m. c #B49DAA",
"M. c #B99BA6",
"N. c #B99BB2",
"B. c #B58EA3",
"V. c #89A6B9",
"C. c #94B7B8",
"Z. c #96ADAE",
"A. c #A9A3A4",
"S. c #B3A2A6",
"D. c #B5A3AB",
"F. c #BBA3AB",
"G. c #BBACAD",
"H. c #B7A8A8",
"J. c #BCA4B2",
"K. c #BDAAB2",
"L. c #BBA5B8",
"P. c #A7B7B6",
"I. c #BDB2B2",
"U. c #B9B3AB",
"Y. c #C3A7AF",
"T. c #C3A5B3",
"R. c #C4ACB5",
"E. c #C5ACBC",
"W. c #C9ADBB",
"Q. c #C5A9B7",
"!. c #C3B2B5",
"~. c #CBB4BC",
"^. c #CDBABC",
"/. c #C7B6B8",
"(. c #D1BBBE",
"). c #D4B6BE",
"_. c #C9B2B4",
"`. c #C09FB2",
"'. c #9BC1BC",
"]. c #A8C3BB",
"[. c #B3C6BB",
"{. c #C9C0BC",
"}. c #8DA6C4",
"|. c #94ACCD",
" X c #92A9CA",
".X c #98B7C8",
"XX c #95ABD2",
"oX c #96AAD3",
"OX c #9CB4D7",
"+X c #A6BBC9",
"@X c #A2BAD9",
"#X c #95ADD4",
"$X c #CBB4C2",
"%X c #CDBAC3",
"&X c #CBB8C9",
"*X c #D3BBC4",
"=X c #D3BCCB",
"-X c #D6B9C5",
";X c #D3BDD1",
":X c #C6B0C6",
">X c #9DC2C7",
",X c #9FC0D3",
"<X c #A2C5CB",
"1X c #ABCCCC",
"2X c #A6C8C6",
"3X c #B8C9C6",
"4X c #ACD1CD",
"5X c #B2D3CD",
"6X c #A9C8D5",
"7X c #B4CBD9",
"8X c #ADD4D5",
"9X c #B3D4D3",
"0X c #B7DAD7",
"qX c #BCE2DA",
"wX c #B2CCE3",
"eX c #BBDAE5",
"rX c #ACC7E2",
"tX c #BDE4E3",
"yX c #BFE4E4",
"uX c #C9C7C9",
"iX c #D4C1C6",
"pX c #C5D9D9",
"aX c #D4D9D6",
"sX c #D0D0D0",
"dX c #C5E6DC",
"fX c #C2DDE8",
"gX c #C9DBF8",
"hX c #C3E4E3",
"jX c #C4EBE4",
"kX c #CBECE5",
"lX c #C5ECEA",
"zX c #CCEDEA",
"xX c #C8E4E7",
"cX c #D4EBE9",
"vX c #CCF2EC",
"bX c #CCF1E5",
"nX c #D3F3EC",
"mX c #D9F7EC",
"MX c #C8E3F7",
"NX c #D5ECFA",
"BX c #CDF4F2",
"VX c #CFF8F3",
"CX c #D4F5F3",
"ZX c #DCFCF4",
"AX c #D8F9F7",
"SX c #E6E9E8",
"DX c #E4F3ED",
"FX c #E3FCF5",
"GX c #E3FDFA",
"HX c #EBFEFC",
"JX c #E6F5F8",
"KX c #F4FFFE",
"LX c #FDFEFE",
"PX c #F3F9F5",
"IX c #F3E9EE",
"UX c #E2E0DE",
/* pixels */
"K L U U X...,...-...,.,.;.;.>.>.k. X|.|..XXX Xk.>.X.I z o.].JXLXLXLXIXcXsXaXsXsXaXUXDXPXLXLXLXLXKXLXLXLXLXLXLXLXLXLXLXLXLXLXKXLX",
"I I U o.,.-.-.o.o.-.;.;.>.>.}.#XoXoXoXXXXX X X>.X.X.:..XmXKXaXI.w.~ j :           % i A 5.uXPXLXLXLXLXLXLXKXLXLXLXLXLXLXLXLXLXLX",
"I I ..o.-.X...;.:.>.V.}.|.OXOXOXoXoX XoX X}.k.XX6XcXKXDX3XY       o 4 8 e e w e 8 8 2 .     N A.aXmXSXJXHXPXLXKXLXLXLXLXLXLXLXLX",
"U U ..X.X.;.:.>.>.|.|.OXOXOXOXXXoXoXoXoX|.6XgXJXLXKXA.B   ; h d e 0 e d d f 2 2 2 2 2 4 6 w @   & Z -.{ -.;.g.Z.P.2X3X5XpXfXaXcX",
"I I X.O.>.}. X#XOXOXOX#XOXOXOX#X XoX XOXfXKXKXLXIXO.  d g e 0 8 8 8 0 2 O # 2 = > @ = = > 5 r e 4 # j L L z z z x I I z z l z l ",
"X.X.;.>.}.XXOXrXrXOXOXoXXXXXoX#XoXoX XrXJXKXLXaXn # B h d e 0 8 2 8 8 2 2 1 @ @ # @ = @ # @ 2 2 8 e % 6 A U U K K I I K K l l l ",
"X.O.>.|.OXOX@X@X#X#XoXoXoXoXoXoXoXoX X7XJXLXuX7 a N c d e d q 2 3 d 0 2 2 1 @ = * ; * = # = @ 4 > > 5   @ M L L K x M z l l h h ",
">.k.oX@XrXrXrXOXOX#XoX}.oXoXoXoXoX XoX@XfXP.w N N B c d d d 0 h h 8 2 5 2 2 % @ > 1 1 @ * 2 1 t @ # # # #   6 M K K z K l l f < ",
"V..X,XrXrXrXrX@XOX#XXXXXoXXXXXXXXXoX.XoXO.i N b c c d g g k d g d d B d 2 ; # $ ; 0 e r 1 1 5 2 2 8 5 % @ @ . 6 M K z z h f f < ",
"}..X,XwXwXrXrX,XOX#XXX|.XXXX.XOXOX+X+Xe.n n 7 7 4 5 1 4 f d g B d d d f 0 d d g m m v y r r r e e w 4 5 * # t . > M l h h q , < ",
".X.X6XrXwXwXrX,X#X X}.}. X.XOXOX@X<Xg.n a 4 5 1 t # = 8 0 d B B N G g m G ! +.#.t.7._ G m g e y 0 8 5 1 5 5 t # # 8 p 9 , > > > ",
"V..X,X8XrXrX,X.X Xk.}.}..X.X.X,X2X].{ a 6 6 7 4 w g m W Q @.0.q.z.&.&.r.s.d.n.S.S.S.x.7.( G m g w 2 1 5 5 7 5 t # @ 3 : & : + : ",
"C.C..X1X8X,X>X.XC.:.>.}..X,X,X<X4XC.A a 5 e e a G _ q.c.K.R.G.F.m.T.R.F.G.Y.F.D.S.n.S.i.f.' T V v e 1 1 4 e 7 7 t # 6 % + + o o ",
"V.C.>X<X<X>X>X>X>X.X>X>X>X<X8X8X5X'.A a 7 e n D ` a.G.~.^.^.~.~.$X~.~./.~.E.I.K.Y.H.F.n.a.f.4.' Q V y r 1 r i e # # 1 3 + + o o ",
"V.C.>X<X>X4X>X>X>X>X,X8X8X8XwX8X5Xj.S 7 7 a D ' s.!.^.~.%X*X*X*X=X&XuX&X$X$X~.~._.R.F.M.d.a.y.f.4.' T c 7 1 7 7 @ # % 6 & o & # ",
"C.C.2X1X>X4X8X8X8X<X8X8X8XeXtXtX5Xg.n 7 a s ' s.!./.(.^.%X=XiX=X=X%X=X*X%X$X$X$X$XR.G.S.S.d.a.y.f.8.<.D a 7 e 7 t # # 3 > + + + ",
"'.'.[.5X0XqX5XqXqXqXqXtXqXtXyXlXpX} i s a S  .H._.(.(.^.{.-X*X=X%XiX*X&X*X&X$X~.~.Y.F.F.S.d.d.y.s.y.3.E c e 7 7 * t % 4 > + % + ",
"].2X5XqXqXqXqXqXtXtXtXtXtXtXyXvX5XR n n n  .U._.(.(.^.^.(.(.(.^.^.$X%X$X~.%X~.E.R.Y.H.S.d.d.i.i.f.f.3.| V a e a 5 1 * 6 > + : & ",
"4X5XqXdXjXbXtXtXyXyXyXyXyXVXyXBXP.S R n D j._.{.^.{.(.iX{.(.)._./.~.~.~.$X~.W.W.Y.F.S.d.d.a.a.s.y.y.y.4.T c a a i 7 4 7 3 : : : ",
"5X0XdXbXbXbXbXbXtXbXvXbXVXyXVXVX[.} E a | j._._.^.^.iX*X).-X).(.~.W.W.$X$X$X$X:XE.T.F.F.S.d.c.i.y.y.y.8.' V c c a 7 7 7 > : : : ",
"5X5XbXbXbXbXbXbXvXtXyXvXvXvXvXnX[.| S a  .U._.{.iXiXiXiXiX;X;X=X*X&X$X$X&X&X;X;X&X:XE.J.N.m.i.u.s.s.q.q.3.| Y b b a p i 3 : : : ",
"qXdXbXmXmXmXnXnXtXqXtXtXtXtXtXqX[.| n S  .{.{.{.!.G.I.!.~.L.E.:X;X;X;X&X;X;X;XL.v.v.9.7.( ! T T Q 1.y.6.6.1.^ n a a i i 3 > > : ",
"dXdXbXmXZXZXmXbXtX0XqX8XqX0XqXqX[.} S  .j.H._.j.Q H m m G V H #.L.:X&X&X:X:XN.J m 0 = ; r g g g y v ^ 6.6.1. .S a a b a > > : > ",
"dXdXmXmXZXZXmXbXqX4X4X2X4X2X'.'.].{ s  ._.U. .n ! ( ! G g g g C @.N.L.E.L.N.$.C g g m H ( $.&.@.] Q Y | 5.6.5.Y n a b M 3 < , , ",
"dXdXmXDXZXZXmXbX0X'.'.'.'.'.'.'.g.{ a s.{.w.` 2.x.r.i.t.@.H H H ( 9.J.$XL.u.#.( / H ( @.#.@.( ( ( ] _ ` 1.w.q.R n i A n > < q < ",
"dXdXmXmXZXFXmXvX0X2X'.2X'.>XC.Z.P.} 7 g.{.s.3.f.$.] ( ( W G [ ( ] &.T.-XL.r.*.@.@.@.*.G B g m m N T _ $.6.w.w.E a i n A j l < < ",
"bXbXmXDXFXZXZXnXqX8X0X8X0X8X4X2X[. .s U.{.h.a.$.T W O.B 0 W z.$.f.t.N.$XD.2.$.&.%.&.;XO.d G *.G v H _ <.6.s.w.| n a y v Q ( Y h ",
"dXbXmXDXGXGXZXvXtXqXtXtXyXtXtXfX{. .} U.^.G.S.f.D @.b.*.@.%.7.$.i.i.`.T.n.2.2.t.z.&.9.&.O.@.O.T T (  .3.q.h.h.6.S s u C / ) 4.W ",
"bXmXFXGXHXGXGXCXVXlXlXlXBXBXMXnXaXU.3.I.iX!.G.H.i.] ( ] $.$.&.B.d.M.).T.d.7.2.f.t.f.=.) ) [ [ ) $.f.f.f.s.s.h.q.D s s [ ) =.=.4.",
"bXmXFXHXHXKXHXZXZXVXAXAXAXAXAXAXSXI.I.^.^./././.Y.D.n.r.B.M.M.M.d.Y.).T.m.i.t.t.d.B.B.t.t.t.t.t.i.i.s.s.w.s.w.w.[ u [ ) ) t.=.t.",
"mXFXPXPXLXKXKXHXGXGXZXGXAXGXGXHXSX{.iX%X/./.{.^.^./.Q.W.Q._._._.Y.R.$X`.n.i.d.d.M.M.M.M.d.d.d.i.d.d.d.a.s.h.w.5.| s C ) ] =. .Y.",
"mXFXPXKXLXLXKXKXGXGXGXGXGXGXGXGXDXuX^.^.^.{.iXiX(.).~.-X).-X-X)._.).).`.M.i.f.i.M.`.Y.M.M.M.M.d.M.M.d.a.h.h.s. . .D u ) =.+.p.sX",
"mXJXHXKXKXLXKXHXGXGXGXZXGXGXZXZXJXsXY.R.^.^.(.*X-X-X-X-X).-X-XW.(.-X-X`.M.M.$.t.M.Y.T.`.`.M.M.M.M.n.d.i.s.s.6.| D s u ) )  .aXDX",
"nXZXHXKXKXKXHXJXZXAXAXAXAXAXAXZXmXsX/.!././.-X-X-X-XiX-XiX-X-XQ.).-X;X:X`.`.d.2.z.Q.Q.W.Y.Y.F.M.n.n.i.u.y.3.6.| V v [ ] ) _.LXLX",
"bXmXGXHXKXHXGXZXnXlXlXbXvXbXbXbXcXpXuXiX/.!./.&XiX-X-XiX-X=X-XN.x.`.Q.L.x.&.t.i.$.`.W.Q.Y.Y.M.F.n.n.u.8.3.3.| ` D [  .] 2.IXLXLX",
"vXmXGXGXHXHXGXZXbXjXjXqXjXyXtXtXdXxXuXuXI.I.I./.-XiX-X;X-X=X;Xm.Q &.*.( ( J ( ( $.`.:XE.`.`.M.M.a.u.8.8.3. .` R D | f.' sXLXLXLX",
"zXCXGXHXHXHXGXAXvXjXjXjXyXvXlXtXjXxXsX^.U.I.I.R.).).iX-X-X-X;XW.v.r.9.%.z.z.@.&.i.`.T.Q.T.M.M.i.i.q.8.8.6.<.| V C 2.+.!.LXLXLXLX",
"bXnXFXHXGXHXGXZXnXvXvXvXBXBXvXvXlXzXcX3XA.U.I.I._.{.).-X-X-X-XE.7.#.r.z.z.*.H J 7.m.N.T.J.D.n.n.p.8.8.q.q.4.E 3.3.Q a.IXLXLXLXLX",
"kXnXZXGXGXGXZXZXCXvXVXVXVXVXVXVXVXBXnXHXaXA.I.I.U._.).).*X$X).x.T f.t.B.z.r.( C [ 8.i.m.K.D.n.a.q.3.q.y.<.<.S aXLXUXPXLXLXLXLXLX",
"dXbXZXZXAXGXZXAXVXBXVXBXAXVXVXAXVXCXmXKXDXA.S.G.!.!.^.(.K.n.8.2.2.=.B.B.B.B.$.( ( T T Q 8.n.A.s.8.8.8.8.6.| ^ SXLXLXLXLXLXLXLXLX",
"dXcXnXZXZXAXAXmXnXvXBXvXVXVXVXVXAXAXJXKXPXP.a.G.I.G.!.a.' H [ ) ( / / @.@./ / C / C m C G ] y.y.8.3.8.4. .E  .SXPXPXDXPXPXLXLXLX",
"dXxXnXZXAXZXCXBXlXlXlXlXlXBXBXBXBXBXHXKXLX%Xh.U.H.I.D.y.8.] ( ( =.=.=.=.=.=.=.=.@./ *.=.f.+.3.q.<.8.8.1.| R g.].g.g.g.g.g.g.g.g.",
"0XpXbXCXCXnXzXkXqX0X0X0XqXqXtXtXtXhXmXKXLXaXp.H.H.G.G.G.R./.Q.Q.W.`.`.`.N.N.m.n.m.n.B.B.D.p.q.` ^ <.<.` } ~ [.g.{ } -.{ { { R P ",
"0XdXkXnXnXnXFXJXJXDXmXDXnXmXmXSXmXcXcXHXKXLXH.p.S.h.D.I.~.%X~.$X:X:X`.`.N.L.Q.N.D.n.x.N.n.u.3.+.Q ` | ^ S g.[.{ { { { { P P P P ",
"0X0XkXnXnXDXKXLXLXLXLXLXLXLXLXLXLXKXKXcXcXSX[.w.A.A.c.H.K./.$XE.:X:XW.`.`.`.Q.L.F.N.n.m.c.u.8.3.<.<.^ ^ S g.5.{ { { P { P L Z A ",
"5X0XxXzXcXHXLXLXLXLXLXLXLXLXLXLXLXLXKXJX5XC.2XA.w.S.S.H.K.I.!.~.W.-X$XW.`.:XK.T.F.S.A.A.p.u.3.4.4.' T N S 5.{ P Z P Z Z Z Z M M ",
"5XpXkXcXcXGXKXLXLXLXLXLXLXLXLXLXLXKXKXHX0X2X'.2Xw.c.H.H.I.!././.W.).W.$X:XW.`.Y.F.n.S.S.p.w.8.4.` T n b R 5.{ Z Z Z Z Z Z Z b j ",
"5X5XdXzXzXDXKXLXLXLXLXLXLXLXLXLXLXLXKXcX5X1X].2XP.5.q.S.G.!.!./.W.W.W.$X:X:X`.M.D.S.c.p.p.6.<.^ Y a a V E  .P b Z Z M j j j b i ",
"5X9XxXcXzXzXcXJXPXPXPXPXDXDXDXDXDXmXdX9X4X4X1X2X3Xg.+.3.h.G.!.!.F.D.m.N.N.N.v.x.x.b.u.u.3.` Y m 7 y V Q ^  .P b M M j j j j h h ",
"5XpXxXkXkXnXKXLXLXKXLXKXHXbXqXqX9X9X9X9X9X4X1X1X3XU.p.+.Q 9.v.D.b.9.9.r.9.9.9.@.+.1.+.^ E N a 4 y G Q _ `  .R j j j j j j h i h ",
"3X9XhXkXkXJXLXLXLXLXLXLXLXKXnX0XqX0X9X4X1X2X2X].].P.A.b.^ V ! _ @.! O.J ! W ! J N m m c c e y m Y Q ' <.' 1.~ j j j h h h h p p ",
"9X9XhXxXzXJXLXLXLXLXLXLXKXLXmX0X9X9X5X4X2X2X].C.].P.A.b.q.Q g c g e e d g d 0 0 4 2 5 7 e m N W @.#.4.$.| | } a h h i i p p p p ",
"6X7XeXxXkXJXLXLXLXLXLXLXLXHXdX4X9X4X1X6X1X,X>X.X+XP.A.v.b.e.W Y W m g g 0 2 d 0 d g m m G ! _ #.%.#.4.#.+.` | A q h i p p p p 6 ",
"2X1XfXxXkXJXKXLXLXLXLXLXDXfX1X2X2X6X1X<X<X<X,X<X2XP.A.F.m.u.+.W @.e.*.O.J X.J O.O.W G J ! @.4.%.&.7.7.+.4.` E } Z p i q p p q q ",
"2X1XfXxXfXJXKXLXLXLXKXJX0X<X>X>X4X4X9XtXvXAXAXNXAX3Xc.F.M.x.8.^ G O.O.%.*.%.O.*.! O.O.@.#.#.2.9.t.7.2.4.+.' [ } E i 3 h p 6 6 6 ",
"+X7X0XxXpXcXKXKXLXLXKXHXAXlX8X<X6X0XlXZXHXHXKXKXsXZ.A.D.F.D.v.0.@.J *.9.%.%.*.*.@.@.%.@.%.7.0.9.7.7.0.4.| ' E E D S 8 > p q q 6 ",
"+X6XeXfXfXCXGXKXKXLXKXKXAXCXhX8X9XeXCXGXKXKXLXI.  1.S.S.A.L.D.v.z.0.@.O.@.%.9.9.%.%.%.%.%.9.0.9.2.7.4.+.' ` [ E E T v X - 3 9 3 ",
"+X6XeXfXeXNXGXHXKXLXKXKXGXAXhX6X9XhXCXGXKXKX7X. 3.S.q.A.H.J.D.v.v.b.z.9.&.9.l.9.z.9.&.9.9.9.9.9.2.#.#.+.' ` E E E S e X O $ X - ",
"2X7XeXfXfXMXAXGXKXLXKXJXAXlX0X1X9XfXzXNXpXe.X G H.h.p.a.D.J.J.D.v.v.v.x.z.z.b.b.b.z.r.9.9.9.9.7.0.@.+.@._ _ _ Q T m @ O O O o X ",
"6X7XfXMXMXfXMXBXAXAXCXNXlXeX7XeXfX6XZ.X.. . - I A.p.s.a.c.v.m.D.D.v.b.v.v.v.N.v.b.z.r.9.9.9.9.7.2.+._ @.^ ^ Q Q G r X O $ o X X ",
"7XwXgXMXgXMXMXMXMXeXeXeXfXMXeX+XX.f X . f f - F A.h.q.a.u.b.D.D.v.b.z.v.v.N.b.z.z.9.9.7.9.7.7.0.#.@._ _ @.! ! G 0 . O o $ o o X ",
"wXgXMXNXNXNXNXNXNXNXAXNXeXV.F   X , f f , 9 9 - e.c.p.b.p.b.x.m.N.v.b.z.&.z.&.&.&.%.7.9.7.%.0.%.#.@.@._ ( ! m 0 . # X o X X X X ",
"gXgXNXJXJXJXJXPXHXNXwXl.k . . f 9 , , , 9 , f X F b.c.c.b.x.z.b.b.b.v.z.z.&.z.&.9.9.9.9.7.7.<.#.@.@.@.! W g $ . - $ O o X X X X ",
"gXNXJXJXJXPXJXgXP.I . X X f , , , , - , , 9 , 9 - ! w.c.m.v.b.z.x.b.z.&.z.z.z.&.9.9.7.7.7.%.*.@.*.@.@.G 0 . O $ - $ X X X # X X "
};
