/* XPM */
static char *_____________[] = {
/* columns rows colors chars-per-pixel */
"64 64 179 2",
"   c #141416",
".  c #13171A",
"X  c #1D1D1D",
"o  c #221E1B",
"O  c #21211F",
"+  c #211F20",
"@  c #232222",
"#  c #2A2623",
"$  c #262827",
"%  c #2C2926",
"&  c #252528",
"*  c #22292C",
"=  c #2C2C2C",
"-  c #312D2A",
";  c #2E302F",
":  c #30302E",
">  c #232E35",
",  c #2E2E30",
"<  c #252F38",
"1  c #312F30",
"2  c #2F3130",
"3  c #2A3239",
"4  c #333333",
"5  c #3A3532",
"6  c #363837",
"7  c #3A3936",
"8  c #363638",
"9  c #393738",
"0  c #3C3C3B",
"q  c #403A36",
"w  c #423E3A",
"e  c #3E403F",
"r  c #42413E",
"t  c #48433F",
"y  c #2D3E46",
"u  c #3E3E40",
"i  c #313D48",
"p  c #413F40",
"a  c #31424C",
"s  c #344652",
"d  c #364957",
"f  c #374C5B",
"g  c #384E5C",
"h  c #37556D",
"j  c #39556A",
"k  c #3E6175",
"l  c #3E6079",
"z  c #444443",
"x  c #494644",
"c  c #474946",
"v  c #4A4946",
"b  c #464648",
"n  c #494748",
"m  c #474948",
"M  c #4B4B4B",
"N  c #514E4D",
"B  c #4F504D",
"V  c #51504E",
"C  c #4F4F51",
"Z  c #514F52",
"A  c #4F5150",
"S  c #545453",
"D  c #595756",
"F  c #565857",
"G  c #595957",
"H  c #575958",
"J  c #5B5B5B",
"K  c #605F5B",
"L  c #5D625E",
"P  c #61615E",
"I  c #455765",
"U  c #475E6E",
"Y  c #5E5E60",
"T  c #5F6160",
"R  c #40657F",
"E  c #4B6478",
"W  c #4D697F",
"Q  c #636363",
"!  c #686765",
"~  c #676864",
"^  c #696967",
"/  c #676769",
"(  c #696768",
")  c #676A69",
"_  c #6B6C6B",
"`  c #6F706B",
"'  c #71716E",
"]  c #676F72",
"[  c #696E72",
"{  c #677276",
"}  c #6A7376",
"|  c #6B757B",
" . c #6C797F",
".. c #747472",
"X. c #787876",
"o. c #7C7C7A",
"O. c #80807E",
"+. c #3F6683",
"@. c #4E6E85",
"#. c #546F84",
"$. c #4E7187",
"%. c #4F7288",
"&. c #567184",
"*. c #587B8F",
"=. c #6B7982",
"-. c #707A84",
";. c #7E7E80",
":. c #727F88",
">. c #5E829A",
",. c #68879A",
"<. c #728694",
"1. c #6189A3",
"2. c #638FAA",
"3. c #6592AF",
"4. c #6F94AF",
"5. c #6792B2",
"6. c #749BBA",
"7. c #76A3C4",
"8. c #7AABCC",
"9. c #7CAED3",
"0. c #7AB0D4",
"q. c #848482",
"w. c #898987",
"e. c #8C8C8B",
"r. c #91918E",
"t. c #8D8E90",
"y. c #8D9194",
"u. c #949492",
"i. c #9A9A97",
"p. c #90999D",
"a. c #9B9B9A",
"s. c #A0A09E",
"d. c #919EA6",
"f. c #949EA8",
"g. c #95A5B2",
"h. c #9BA9B4",
"j. c #9AACBA",
"k. c #98B0BC",
"l. c #A5A5A4",
"z. c #A7A7A9",
"x. c #A9A7A8",
"c. c #A7ACAB",
"v. c #ACACAB",
"b. c #B0AFAD",
"n. c #AEB0AE",
"m. c #B1B1AE",
"M. c #B3B3B3",
"N. c #B5B8B6",
"B. c #B6B7B9",
"V. c #B7B9B9",
"C. c #B8B8BA",
"Z. c #C1C1BF",
"A. c #AEBDC4",
"S. c #B5C3CC",
"D. c #B8C6CF",
"F. c #AEC5D3",
"G. c #AFC9D6",
"H. c #BCCBD6",
"J. c #B4CEDF",
"K. c #BDCFDB",
"L. c #BBD1DE",
"P. c #B7D3E5",
"I. c #B7D3E8",
"U. c #B8D4E9",
"Y. c #C5C5C4",
"T. c #C8C6C7",
"R. c #CAC9C5",
"E. c #C0C7CF",
"W. c #C6CBCC",
"Q. c #C9CBCB",
"!. c #C5CDD2",
"~. c #C9CED1",
"^. c #C7D0D7",
"/. c #CDD2D4",
"(. c #C7D1DA",
"). c #CFD4D8",
"_. c #DBDCDD",
"`. c #E5E5E5",
"'. c #FFFFFF",
/* pixels */
"% $ ; = 4 - 4 4 6 r M H Y Q ! ! ` X.q.q.e.u.i.i.i.i.a.i.i.a.i.i.s.a.a.a.a.i.a.a.a.i.u.r.w.O.o._ ) ! Q K D M a 7 : 4 , = = = = = ",
"0 0 0 e 0 e z z z c M D Q ) ..X.X.O.w.u.i.l.z.z.z.z.x.x.c.c.c.x.v.z.v.c.x.z.x.x.l.l.s.i.r.w.o.X.....) Q D N v x x z p z u 0 0 0 ",
"w 0 0 r 0 z r z z z m M Z G Q ) ..X.O.e.u.a.l.x.z.z.z.v.c.c.c.c.c.v.c.v.c.z.x.z.z.l.i.i.e.O.o.X._ Q G C m m m z z z u 0 u 0 0 8 ",
"7 6 7 0 0 0 0 u r z z z b m M D Q ) X.O.i.b.Y.Y.Q.Q.Q.Q.~.Q.Q.Q.Q.Q.Q.Q.R.W.Q.R.R.Y.m.i.O.X.) Q D C n z z z r r w 0 0 0 6 5 6 6 ",
"7 7 0 0 0 0 0 0 p z z z m n m M S J ! ..r.x.Z.Y.Q.Q.Q.Q.~.~.^.^././.~.~.Q.Q.Q.Q.Y.Y.v.r...) J S M m v n z z z r u 0 0 0 0 0 8 6 ",
"7 5 6 6 0 9 0 0 0 0 z 0 z z z z m m S J _ o.a.N.Y.Q.W.!.Q./.(.(.(.(.~.~.Q.Q.W.Q.N.a.X._ P S m m c z t a 0 w 0 0 0 0 0 0 8 8 6 4 ",
"- % = % = = , , = 4 2 4 4 4 6 5 7 0 r c V J o.! o.e.y.p.d.g.h.k.j.j.g.f.p.y.e.;.Q o.J V n w 0 6 5 4 4 4 4 4 , 2 , = = = = = % % ",
"o X X X X X X + X O @ @ @ @ @ @ @ % = 4 0 x c 6 . * i I &.,.'.'.'.'.A.S.E.~._.`.7 M x 0 4 = % @ $ @ + + @ o X @ X + X X X . X X ",
"@ & $ # $ = $ = $ = = = = = = - 2 4 0 z z B S @ . * a U *.4.'.'.'.'.F.D.!./._.`.O S S z z 9 4 2 1 = = = = = = = = = % $ $ $ $ & ",
"t 0 z z z z z b m m M M C S S S S D J T ^ _ ` @ . * s E >.6.'.'.'.'.G.H.!./._.`.O _ _ ! P H D S S S Z C C M n n z z z z z p 0 w ",
"w 7 0 0 u p z z z z b z b m m M M S D H P ^ _ @ . > d W 1.7.'.'.'.'.J.H.!.)._.`.@ _ ) P J D S M M M M n z z z z z z z 0 0 0 0 w ",
"7 4 6 9 9 0 0 u z w z z z z z z b m M D J ! Q @ . > f @.2.8.'.'.'.'.P.K.(./._.`.@ ! Q G G M m n z z z z p z p p 0 0 0 8 0 9 5 5 ",
"q 7 7 0 0 0 e 0 z z z z z z b m c M S D J ~ ) + . > g %.3.9.'.'.'.'.P.K.(.)._.`.+ ) Q K G S M m b x x x z z p p p 0 w 0 0 0 6 5 ",
"5 4 6 5 8 0 0 0 0 0 0 u u z z z z m M S F P Q + . < g %.5.0.'.'.'.'.U.K.(.)._.`.@ Q Q G V c z z z a z r p p 0 0 0 0 9 9 6 4 4 5 ",
"% # $ $ % $ % = % = = = = = = 4 4 4 7 z z V S + . < g %.3.0.'.'.'.'.I.P.(.)._.`.+ V N c r 7 4 4 , - = = = = = = % % $ $ = % $ % ",
"% @ $ @ & $ $ $ $ % $ = = = = % $ : 4 0 r M C + . < g %.3.0.'.'.'.'.I.K.(.)._.`.+ S M z 0 4 = = = = = = = $ = $ * $ # & & @ @ # ",
"% = , = = = , 4 2 4 4 4 8 4 8 8 5 9 p n M D G @ . < g %.5.0.'.'.'.'.I.L.).)._.`.O G D N z p 9 6 6 8 4 4 4 6 - , , - - , = = = % ",
"v n M M C A Z S D D H H Y Y T T Q / / ' ..o.o.@ . < g %.5.0.'.'.'.'.I.L.(.)._.`.@ o.o.....) / Q T K J Y J H H D S S N N M M b z ",
"x z z b n n m M M S S S S H F H G H T / ^ ....@ . < g %.5.0.'.'.'.'.U.(.(.)._.`.@ ...._ / T J J G D H S S Z C M M M M x z z z 0 ",
"w w 0 w p z z z z b z m M M M C C S G J Q _ _ @ . < g %.5.0.'.'.'.'.U.P.(.)._.`.@ ' _ Q J G S C Z M M M m n m b z z z a r 0 0 0 ",
"w 0 w z z z z n b m M M A N S V S D H Q ! ' ..@ . < g %.5.0.'.'.'.'.I.L.(.)._.`.o ..` ! P J D D S Z S N M M M m m z z z z r 0 0 ",
"7 0 0 0 0 p p z z z z b z n m c M M S G J ^ ^ O . < g %.5.0.'.'.'.'.I.L.(.)._.`.@ ^ ^ K H S M M m n m z z z z z z z u 0 0 7 7 4 ",
"- = = = = = = 1 = 4 4 4 4 6 6 4 6 0 0 z M S G @ . < g %.5.0.'.'.'.'.I.L.(.)._.`.O G S M z 0 9 6 6 6 4 4 4 4 1 2 = 1 = = = = $ % ",
"% # $ $ = = % = = = = 1 = = ; ; = 4 7 e c M S + . < g %.5.0.'.'.'.'.I.L.(.)._.`.@ V V x z 8 4 - - , = = = = = % = % = $ $ % $ $ ",
"% = 2 = , 4 1 4 4 4 6 8 6 6 6 7 7 0 z m Z D G O . < g %.5.0.'.'.'.'.I.L.(.)._.`.@ J D M n z u 0 7 6 5 6 6 6 6 4 4 4 , = = , = # ",
"N M N S S D D H J J T T T ) ) ) ^ _ ' ..o.O.q.@ . < g %.5.0.'.'.'.'.I.L.(.)._.`.@ q.q.o.X._ _ / / ! / Q T J J J H H D D S S M N ",
"v z m M M A V S S G G G J J L T P Q ^ _ ..X.o.@ . < g %.5.0.'.'.'.'.I.L.(.)._.`.+ o.X..._ / Q T J J J H J D G S Z S M M m z n v ",
"t p z z z z m m M M M C S A S S G H P Q ^ ' ' @ . < g %.5.0.'.'.'.'.I.L.(.)._.`.+ ..../ ! Y H D S D S Z S M M M n z z m z z r t ",
"t t z z b m M M C C S S S S D H G J Q ! ) ..X.@ . < g %.5.0.'.'.'.'.U.L.(.)._.`.@ X..._ / T J H J H S S S S Z M m m m z z z z x ",
"w 0 0 u a z z z z b m M M M Z M M S D J Q _ ` O . < g %.5.0.'.'.'.'.P.L.(.)._.`.@ ` ) Q J G D Z B C M M m z z z z z z z z 0 0 w ",
"- = = = - - 4 = 4 4 4 4 6 6 4 8 7 0 0 z M G G @ . < g %.5.0.'.'.'.'.U.L.(.)._.`.O G S M b p 0 6 8 6 4 4 4 4 4 4 4 - , = , = = - ",
"- % % = % = = = = , = , 1 1 1 4 4 6 7 z c V S O . < g %.5.0.'.'.'.'.U.P.(.)._.`.O S S n z 9 4 , 4 2 2 4 4 = = , = = = = % % # % ",
"= = , 1 , 4 4 6 4 6 8 9 5 7 0 0 0 u z M V J L O . < g %.5.0.'.'.'.'.I.L.(.)._.`.@ J G S m z p 0 0 5 0 9 9 5 8 6 4 4 4 1 1 , = = ",
"V Z Z S G J G J J Q Q Q ) ) ) ) _ ` X.X.O.O.w.O . < g %.5.0.'.'.'.'.I.L.(.)._.`.O w.q.o.o...` [ _ _ ) ! / Q Q Y J G H H S S S m ",
"n n C M C Z S S H G H J J T Y Q Q ! _ ' ' o.O.O . < g %.5.0.'.'.'.'.I.L.(.)._.`.@ O.o..._ _ ) Q Q P J J H H G H D Z Z Z M M n z ",
"w z z z z z M M M C N Z S S D D D G J ^ _ ' ' O . < g %.5.0.'.'.'.'.I.L.(.)._.`.O ....^ ) J J G D D D S N C C M M n n z z z z 0 ",
"t z z z b n m M C S S S D D H H H H Q ) _ ..X.O . < g %.5.0.'.'.'.'.P.L.(.)._.`.@ ...._ / Q J H H D H D S S S N M m m b z z z 0 ",
"7 w 0 z z z z z z n n n M M M Z C S J J Q _ ' O . < g %.5.0.'.'.'.'.U.L.(.)._.`.@ _ _ Q T H S Z A M M M m m m z z z z z z w 0 0 ",
"- $ = = = 2 , 4 4 4 4 6 6 6 6 6 6 0 p n M G J O . < g %.5.0.'.'.'.'.U.L.).)._.`.@ G D M z p 0 8 6 6 4 9 6 4 4 4 4 , , = = , = % ",
"- % $ = = = = = = = = = 1 = 1 4 1 4 0 r c V S O . < g %.5.0.'.'.'.'.U.P.(.)._.`.@ S S m w 0 4 4 1 4 , = = 1 = = = = = $ = % $ $ ",
"= ; - 1 4 2 4 4 6 4 9 5 8 0 0 0 0 0 z c V G J @ . < g %.5.0.'.'.'.'.I.L.(.)._.`.$ J J N m z p 0 0 0 0 0 9 8 6 6 4 4 4 4 , = = = ",
"V V Z D D D J J J Y Q Q Q ! ) _ _ _ ..o.o.w.q.O . < g %.5.0.'.'.'.'.I.L.(.)._.`.+ w.q.o.X.X.' _ ) / ! / ! Q J Y J J H D S S S V ",
"x z c M M A S A S G G H H H J J Q ! ! [ ..o.o.@ . < g %.5.0.'.'.'.'.I.L.(.)._.`.@ o.o..._ ) Q Q T J J H H H H S S Z Z Z M m z v ",
"t t z z z z b M n M C M S S D D D H J Q ^ ' ' @ . < g %.5.0.'.'.'.'.I.L.(.)._.`.+ ..' / ! H D S D S S S Z M M M m n z z z z r t ",
"t a z z b c v M M M Z S S S D H H J Y ) _ ....@ . < g %.5.0.'.'.'.'.I.L.(.)._.`.@ X.' ^ ! K G H F S S S S C M M m m m z z z z t ",
"q 0 u u a r z z z z n n n m M M C C D J P ^ ` O . < g %.5.0.'.'.'.'.I.L.(.)._.`.O ) ^ Q H D Z C M M M m m z z z z z z e 0 0 0 7 ",
"- # = = = , - 1 1 4 1 4 4 4 4 8 4 8 0 z M S G @ . < f %.5.0.'.'.'.'.I.L.(.)._.`.o D S m z 0 0 6 6 6 8 4 4 4 4 4 ; = , = = $ = - ",
"% # $ $ % % % = = = = = , , = 4 , 4 5 r n V V @ . < f %.5.0.'.'.'.'.I.L.(.)._.`.& S N n p 0 = 4 - , , = , = % = = = % = % $ # # ",
"% = = = = 4 = 1 4 4 4 4 4 9 8 6 8 0 0 z M D G @ . < g &.5.0.'.'.'.'.P.P.^.)._.`.@ G D N m r 7 5 8 6 4 4 4 4 4 1 1 1 , = = = = % ",
"v v M M M S S S D G H J K Y T T Q ! ) ....o.o.@ . < g $.5.0.'.'.'.'.U.(.(./._.`.O o.o...' ) ^ Q Q Y Y J J H G F S S S M M m b z ",
"x z z n n n M C M A S S F H G G J Y Q ^ _ ..X.O . < g %.3.9.'.'.'.'.P.L.L.)._.`.@ X..._ ^ P J J J G D S S S B S M M M n z z z u ",
"w 0 0 p z p z z b b m m M M M Z A S D J Q _ _ @ . < g %.3.9.'.'.'.'.P.L.^.)._.`.@ ` ) Q J G V V C M M M M m z z z z z u u 0 0 0 ",
"w 0 w a t x z b n m M m C Z Z Z S D H P P _ _ @ . > f @.2.8.'.'.'.'.P.K.^.)._.`.@ _ ` Q J J S S N C M C M m b z b z z z z 0 0 0 ",
"7 7 0 0 0 0 0 z z z z z z z z n c M V F P ! ! @ . > s @.1.7.'.'.'.'.J.H.^./._.`.O ~ ~ J G V M m n z z z z z z r p u 0 0 0 8 8 6 ",
"- % $ = = = = = = : 4 4 : 4 4 4 6 7 e c v V S O . * s E >.6.'.'.'.'.G.H.!./._.`.O V V M z 0 0 8 4 4 4 4 4 4 = 4 , = = = = , = $ ",
"- % $ = = = = = = = = : : : : : 4 7 7 r v V Z + . * a U *.5.'.'.'.'.F.D.W./._.`.@ V V v z 0 6 4 4 4 - 1 = 1 = = = = = = $ % % $ ",
"0 0 0 0 0 0 r z z z z z z b z b n M Z S J K K +   * i I @.,.'.'.'.'.A.S.E./._.`.+ T J J D N M b n z z z z z z z z p 0 r 0 0 0 7 ",
"Q J Q ! ! ! ! ^ ^ ) _ _ ' ........o.o.q.w.w.q.+ @ * 3 i d h k @.l l j d i 3 $ @ + q.w.q.q.o.X.X.......' _ _ ! ) / / Q Q Q Q P P ",
"K J K Y Y Q P P Q ! / / ( ` _ ' ....o.q.w.u.t.o.! _ } | =.:.<.<.<.<.<. .| [ [ / o.e.u.w.q.o.....` _ _ ^ ) ^ ! Q Q Q Q Q K J J P ",
"G D G J H J J K K K Q Q / / ) ) ' X.q.t.;.' Y Q ) ) ) ] | | =.=.=.=.} } ] [ ~ ! Q Y ' O.e.q.X._ _ ) Q Q Q Q Q J J J J J J G G K ",
"K D G K J L K P Q Q ! / ! _ ' X.O.w.u.a.w.X.Q Q / ! ) [ [ [ } | | } [ [ _ ) ) ) Q Q X.w.a.r.w.O.X.[ _ ! ! ! Q Q P Q J H J J G K ",
"S D G G G G J P K K Q Q / ` X.q.e.r.i.a.l.v.b.N.B.N.B.B.M.C.V.B.B.B.B.B.B.B.N.N.C.b.v.l.a.i.e.e.q.X.' ( ! Q T T J J J G H H D D ",
"V S V S D D D G J J K / ..X.q.w.e.r.i.f.l.z.m.M.M.M.M.n.M.M.M.M.M.M.M.M.M.M.b.m.M.v.v.l.s.i.u.w.w.q.o...^ P J J G H D S D S N V ",
"N M V S V S S S J Q _ X.o.q.q.w.e.u.i.a.l.x.v.b.v.b.v.n.M.v.n.n.n.v.n.b.v.v.b.n.b.b.x.l.a.i.u.e.q.q.q.O.X._ P H D D D V C N N N "
};
