/* XPM */
static char *_____________[] = {
/* columns rows colors chars-per-pixel */
"64 64 256 2",
"   c #3A0B07",
".  c #310F30",
"X  c #302A26",
"o  c #500D0B",
"O  c #700C0D",
"+  c #493314",
"@  c #722E06",
"#  c #6D102A",
"$  c #753330",
"%  c #58162D",
"&  c #2E5330",
"*  c #0E6C33",
"=  c #286022",
"-  c #544C0B",
";  c #6E500F",
":  c #4F700D",
">  c #736E11",
",  c #6F502D",
"<  c #736E30",
"1  c #4B5E30",
"2  c #2E1251",
"3  c #0A0F75",
"4  c #330B70",
"5  c #1D2D5E",
"6  c #500854",
"7  c #6E344D",
"8  c #513172",
"9  c #6F306D",
"0  c #5D175F",
"q  c #25724D",
"w  c #10536F",
"e  c #08716D",
"r  c #2B7171",
"t  c #195A55",
"y  c #774C77",
"u  c #526B75",
"i  c #5D6156",
"p  c #91310B",
"a  c #951332",
"s  c #93332A",
"d  c #9F1B23",
"f  c #8D500A",
"g  c #AF750E",
"h  c #8F4E32",
"j  c #916E33",
"k  c #AC6E2F",
"l  c #A05C1A",
"z  c #D46730",
"x  c #AC334F",
"c  c #9D225F",
"v  c #CA366D",
"b  c #D7375B",
"n  c #94514D",
"m  c #B04E50",
"M  c #9A6950",
"N  c #AE6D50",
"B  c #8F506E",
"V  c #B15473",
"C  c #92736C",
"Z  c #B17071",
"A  c #CA514F",
"S  c #CD724F",
"D  c #CF5073",
"F  c #CA6F70",
"G  c #EC665F",
"H  c #2E8D14",
"J  c #328D2D",
"K  c #0FAE31",
"L  c #30AF31",
"P  c #11A115",
"I  c #529108",
"U  c #4B8E30",
"Y  c #6A942D",
"T  c #63A421",
"R  c #25C82D",
"E  c #5EC41D",
"W  c #0F9250",
"Q  c #12AF4F",
"!  c #2EB152",
"~  c #0A8F70",
"^  c #2D9371",
"/  c #2BB172",
"(  c #1CA366",
")  c #4CAE75",
"_  c #64985F",
"`  c #14C754",
"'  c #2BC667",
"]  c #4BCA6F",
"[  c #A38E27",
"{  c #CE8E35",
"}  c #ECB632",
"|  c #D9A324",
" . c #A3DA35",
".. c #EDCD35",
"X. c #DEE12C",
"o. c #B08B52",
"O. c #8E8C78",
"+. c #AE8D74",
"@. c #88B26C",
"#. c #B5AA70",
"$. c #97A151",
"%. c #CF8F50",
"&. c #CEAE52",
"*. c #EEB353",
"=. c #CE8E6F",
"-. c #EE9173",
";. c #D2AB6F",
":. c #F0B072",
">. c #EB995A",
",. c #96D050",
"<. c #ADD46F",
"1. c #B1E870",
"2. c #9FDA5E",
"3. c #D6CF52",
"4. c #EDCE50",
"5. c #D6EE53",
"6. c #ECEA53",
"7. c #D7D26F",
"8. c #F2CF6E",
"9. c #D0ED6F",
"0. c #EAEC6B",
"q. c #130F90",
"w. c #2D0A8F",
"e. c #052D90",
"r. c #2B2C90",
"t. c #0C12AD",
"y. c #2C10AB",
"u. c #1031AF",
"i. c #2E2DAE",
"p. c #540790",
"a. c #5D209D",
"s. c #155092",
"d. c #0A6F90",
"f. c #1051B1",
"g. c #2A53B2",
"h. c #0B6BAF",
"j. c #2C6DAF",
"k. c #346992",
"l. c #4F7591",
"z. c #4C6FAE",
"x. c #6E74B1",
"c. c #66559D",
"v. c #1235CB",
"b. c #2B31CC",
"n. c #1B10CC",
"m. c #4E1FCB",
"M. c #306CCE",
"N. c #225DD6",
"B. c #5176CC",
"V. c #5F6BD4",
"C. c #93348E",
"Z. c #E1369D",
"A. c #93708E",
"S. c #AE6B8B",
"D. c #8F77AE",
"F. c #A3539D",
"G. c #D04D94",
"H. c #EF508D",
"J. c #D26E92",
"K. c #EA6E93",
"L. c #CF52AB",
"P. c #F554B3",
"I. c #D670AE",
"U. c #ED6FAE",
"Y. c #9F64DA",
"T. c #D351D2",
"R. c #F056CE",
"E. c #D06DD0",
"W. c #EF70D2",
"Q. c #CE79EE",
"!. c #CF4CED",
"~. c #E934E1",
"^. c #2D9091",
"/. c #33B28C",
"(. c #2E91AE",
"). c #35AEB0",
"_. c #1494A1",
"`. c #6F8E8C",
"'. c #4BB291",
"]. c #6FB197",
"[. c #4F8AAE",
"{. c #6A92AF",
"}. c #4DB1AF",
"|. c #72B1B2",
" X c #519793",
".X c #32CC8F",
"XX c #39CFAA",
"oX c #4DCE94",
"OX c #51C9AE",
"+X c #70CDB2",
"@X c #6ADFAB",
"#X c #398BCB",
"$X c #3296DA",
"%X c #508FCD",
"&X c #6F95CF",
"*X c #53B1CF",
"=X c #71B2CE",
"-X c #52AFE5",
";X c #71B0EB",
":X c #6291E4",
">X c #5ACECF",
",X c #6FCECF",
"<X c #74CFF0",
"1X c #6BE6DD",
"2X c #918E90",
"3X c #AF8B8E",
"4X c #90AC91",
"5X c #AEB08F",
"6X c #8FB4B3",
"7X c #B2B4B2",
"8X c #A08FAB",
"9X c #EF8D92",
"0X c #D1AD8E",
"qX c #EFB28F",
"wX c #D490AF",
"eX c #F18AAE",
"rX c #CFB0AE",
"tX c #ECACAF",
"yX c #D29292",
"uX c #8ECD91",
"iX c #B0D38C",
"pX c #B2ED8B",
"aX c #8ECFB1",
"sX c #B0D2AF",
"dX c #8FE9B4",
"fX c #B3EDAF",
"gX c #99E581",
"hX c #D2D191",
"jX c #EDCC90",
"kX c #D0EE8D",
"lX c #CDE9AE",
"zX c #E2D9A3",
"xX c #8E94D1",
"cX c #8DB2D2",
"vX c #B0B1CD",
"bX c #AF92EF",
"nX c #8EAEEC",
"mX c #AEB1EF",
"MX c #A395D5",
"NX c #D393D1",
"BX c #CCADD3",
"VX c #CE8CEE",
"CX c #CFB4F9",
"ZX c #EC98D7",
"AX c #8FD2CF",
"SX c #92ECD1",
"DX c #B0ECCD",
"FX c #90CFF0",
"GX c #B6CAED",
"HX c #92EBF1",
"JX c #B1E8EF",
"KX c #AFD0D2",
"LX c #D1D1D1",
"PX c #CDEECC",
"IX c #CAC9ED",
"UX c #D8DEDD",
/* pixels */
"E T f a A o.&.3.9.2.AXHX@X'./.W 3 n.i.p.d > C x =.&.} F P.P.0X:.8.-.R.P.>.*.;.N h C < O a.w.i.3 W /./.@X<XDX<.5...&.o.S d n T E ",
"Y Y O.c v qX4...5.2.AX;XOX` Q W . 6 c.C.p n Z D ;.4.6.tXE.E.sX5.9.sXVXE.jX8.8.>.F F M p A.a.6 . W Q ` >X;XcX1.3.4.4.-.v c M Y I ",
"o j ;.Z Z.K.zXjX1.,.`.V.(.Q K L + O B 2Xg Z H.K.jX5.5.PXbXxXSX<.2.SXbXMXlX7.6.jXU.D F [ 3XS.O + L K Q _.:X4X@.gXkXhXK.v J.;.j o ",
"# c x G P.I.LXDXAX4X`.j.f.e I T < d N 0X| =.T.E.LXiX,.SX<X;XAX5X4X,XnX;XAX<.pXLXT.T.-.&.+.S d ; T J t f.%X`._ FXDXIXE.P.-.x c O ",
"p x x b R.!.CXFX<X&Xz.j.u.4 + Y _ x z 8.6.zXBXY.vX,X[.*X>X/.*XV.V.}.}.XX*X{.AXFXY.NXzXX.:.z x _ Y + 4 b.g.l.|.<XJXCX!.R.v x m d ",
"f N J.U.R.~.Y.FX>X%Xg.g.i.6 # $ C G -.8.X.PXsXxX=X-Xg.f./ ` ~ u.f.~ ! / g.g.*X;XxXKXfXX.8.-.G C , O 0 i.b.f.[.1XFXY.~.R.H.I.N f ",
"k g >.tXCXVXD.{.oX).e.r.a.9 $ m G.D tXsX,.+X=X*X'._.t.q.q L q q.t.= T W q.y.(.'.>X+X6X<.lXtXH.I.x s 9 a.i.s._.oX{.Y.Q.BXqX>.[ g ",
"+.| } hXUXGXxXz.oX( w w.m.l.j G P.P.VXJX]. X%XXX! e y.p.1 : , 0 p.; > & w.w.e L ).%Xl.+XHXVXZ.W.G j l.m.4 t / /.x.=XFXUXjX| | 3X",
"VX7...6.DXHX1XoX( ` U o @ A.3X{ jXE.bX1X-Xi.r.~ H 1 0 C., j 7 n Z n j $ c.6 1 P e u.g.*X1XY.E.8.*.Z A.f o q ` / oX@XHXDX9.X.*.bX",
"| 3.8.9.dX<X<X/.` Q J $ $ k %.4.lXIX*X/.}.t.q.4 I < 7 Z %.D I.>.>.J.V S o.x j : 8 q.n.}.}.&XGXPX4.&.N # @ U ` ` /.>XFXsX9.6.4.| ",
"| 3.5.X.@.=X:Xd.* J E j $ S 4.6.fX1XoX' ^ 3 p.9 f N N ..:.T.ZX4.4.NXL.:...N m f 0 m.3 W / XXSXsXX.3.z c [ E J * j.$X&X@. .0.4.| ",
"-.4.9.2.Y _ j.v.5 o > o.D eXjX1.@.}.(.R U + B +.A G.qX5.zXCXvX1.1.cXVXkX5.0XG.Z Z B - J R _.&X@.1.jXU.V o.1   X v.j._ $. .5.:.%.",
"K.jXkXAX{. Xs.t.4 o # V K.R.BXSX`.z.i.& Y > N *.0XE.BXfXaXFX}.*X|.>XnXaXsXBXE.qX} M j I 1 i.l.}.AXLXP.H.V # # 2 u.s.l.|.SXlXtXyX",
"T.wXUXJX;XM.i.t.y.n s H.P.L.bX,X&Xu.u.2 h V yX4.1.IX=X*XM.(./.f.f./.^.N.:XcXIX9...yXV f 4 y.s.%X1XbXL.P.H.f 9 y.t.u.M.;XHXUXZXL.",
"L.E.mXHX,Xj.u.y.m.y g :.ZXMXxX}.l.e.i.B x G.ZXpX].,X/.d.t.u J 4 5 J t t._.'.=XuXhXNXG.m B r.q.) /.xXQ.ZX-.[ c.m.y.u.M.=XHXmXE.L.",
"I.L.x.,X+X_.w 2 C.A.=.X.pXJX+X/.K & p.3X=.K.Q.1X{.s.Q q 6 , : c B ; i 0 q ( d.B.+XQ.J.&.D.p.X Q ).+XJXpXX.0XC c 4 w ^.+X,XxXF.I.",
"W.Y.Y.x./.` * % p k *.6.1.+X}./ L : s [ 8.PX<X(.f.q.1 < k A G ;.&.H.z k > i w.e _.<XzX6.{ s I U .X*X|.1.0.*.g @ . * `  XD.Y.D.W.",
"BXKXAX|.'./ J - # A *.6. ._ N.s.: [ D >.9.2.OXP q 9 m G.4.jXVXhXhXVXjX6.V x C.t K ).sX9.;.D [ H w M.)  .6.:.S # - J ) '.6XAXGXBX",
"PXJXHX+X) / ) Y < x 9XPXaX[.g.q.  m P.ZXaX{.N.1 j { >.ZXBX@X>X).}.;X@XBXZXqX%.> i b.:XaXNXL.h o q.s.[.6XPXeXb i ,.) / / @XHXJXLX",
"pXfXnX).d.q i Y Z J.Q.mX<Xh.y.y.B S K.xXcXV.t.9 V ;.lXAX*Xd.W f.d.~ h.$XuXkX;.A 7 y.[.|.8XL.S n i.y.#X<XCXW.V =.i 1 q ~ ).;XsX9.",
" .@.&XM.f.5 o O v F L.Y.aX^.w.a.A.*.lX<X).* 4 V I.BX:Xd.e 8 , n n $ 5 ~ e :XBXU.o.2 * '.FXzX8.A.a.w.).|.Y.L.F x O o 5 f.N.&X@.2.",
"2.$.`.M.v.4 # l A -.8XY.|./ = o o.4.1.=X/.I h X.kX*Xh.5 ; z yX9X9XqXk , 5 h.-XlX*.n I /.}.1...S o * / ].xX8X-.A h % 4 v.M.`.,.,.",
"pX4Xz.g.t.y.9 C { jXPXSX X! L j G jXuXj.3 ; F 5X,X~ I k -.qXSX6X6XJXrXK.k U _.|.7XG.$ q.g.6XqXF < T ! OXSXDX0X>.C y y.t.u.x.@.iX",
"SX<XM.f.t.a.c.8X*.5.DX;X(.q 1 j G.ZX>Xf.w.Z W.mXj.w.A rXAX%Xd.d.w e ).DX=.c 4 (.7XZXM w.h.,XCXG.j i q _.-XPX6.*.D.F.a.q.f.$X;XSX",
"HX,X[.r.3 8 , S 8.5.,.k.v.4 a l L.Y.=XW 0 o.kX].W N 0XmX_.; Z F F S.- ~ nXtXg W |.9.| 0 ~ ].xXW.h # 4 v.^. .X.8.o.B p.e.s.[.AXHX",
"AX1XXX_.& o p z *.kXuX[.v.t.y *.jXJX.XP k 0XvXd.6 K.aXP n rX4X=X4XvX5Xm W 6XU.6 d.AXtXM P '.FXzX{ B b.g.l.uXkXjXg p   & W .X1XAX",
"x.[./ Q = ; a b K.DXSX#Xu.p.F.;.5.+Xh.= n I.xXh.F tX(.B rXxX_ < i l.xXrXy ^.tXN s.{.I.h = f.|.X.*.C.y.i.[.<XJXU.v a - I K / [.V.",
"xX|./ K R T $.F R.MX,XoXq o p *.<.z.n.p.9XLX}.: 5X6Xw 3X].c.I.4XiXK.A.].+.u cX0X< >XUXF 6 n. XlX8.s o * oX,X8XP.J.N T R K ^ &XxX",
"HX1X.XK H < V J.R.!.V.) R : n K.LXcXu.0 } 1.h.$ eX XO.uXC O.8X`.2X3XC +.<.O.{.wXs f.1.} 0 v.>XLXK.n 1 R ) x.Y.R.K.N I H Q .X@XSX",
"FX-X(.e X o a G.wXmX<X/ K Y F Z.Y.' P ; wXcXh.S.zXi o.8Xx.#._ 3X8X_ 3X{.2X+.u zXN h.AXyXf P '.Y.Z.N T L /.,XmXW.G.a O . w (.=XHX",
"KX&XN.u.2 O f | jXdX1X$X5   m eXGXoXP j E.7XJ [ wX X2X8X3XO.2X3X3X_ +.A.3X4X^ wX+.~ nXE.g P XXGXeXm   5 M.>XSXzX| f % 4 u.N.*XcX",
"@.{.B.b.i.c.n =...<.6XB.u.0 S 3.aX&Xt.h -.AXs.C vX_ 8X2X3X`.2X`.x.8Xx.2X3X2X`.7XZ w aX;.s q.%XsX3.S 8 r.B.cX9...%.B c.r.g.z.4X4X",
"_ _ i i.b.c.C =.4. ._ k.b.c.o.3.7.z.t.u 7.6Xe.=.7Xx.3X2X2X$.D._ $.8XO.2X2X2XO.sX#.t.4X3.C n.B.,.3.N 8 g.z._ 2.4.=.A.c.M.c.u u _ ",
"aX=XB.v.y.9 N | 8.lXcXN.3 % A :.UX}.5 p tXnX* Z cX) S.6XO.C 8XA.{.C 2XO.5X8XB cXD K cXNXh X '.JX8.A # t.M.=XfX0.{ k 8 w.v.B.cXaX",
"FX=Xh.w 2 % s S LXDX,X X* ; m U.nX' K l U.cX( 2X#.2X3X8XD.2X$.8X3X_ 2XD.8X8X_ 5X+.~ mXJ.f P ' bXU.A - = ^.AXDXtXS s # 2 w h.-XFX",
"HX>X/.q - O d Z.P.MX,X/.Q E V P.Q.>X* p >.5X3 B 0X XC 4X4X#.`.2X3X2X3X3X#.i {.0XB 3 6X:.O W =XVXR.Z L R ] =XMXR.Z.d O - q /.,XHX",
"AX>X/.` L T $.3X~.Y.xX/.K = p -.DX;Xt.8 ;.lX_.j yXxXx.5X`.c.7X`.`.vXx.{.5XA.MXyXs _.lX;.9 t.*XDX-.s + K .X&XY.~.3X$.T R ` .X>XAX",
"F.z.^.Q ! Y M G.W.IXSX/.5 2 s &.1._ n.4 S.wXxXi $.5X~ N 0Xl.k ;.&.k u 0X+.~ 4Xo.q cXyXJ.p.n. X .7.s 2 5 }.1XBXW.D M Y L K ^ V.F.",
"xX*XoX/ = o d b *.fX<X:Xn.m.D.;.kXaX XP m yXaXf.c qXcX8 +.GX Xl.l.2XKXyX8 {.rXc f.aXyXn H k.GXkX3.A.m.b.B.1XfX:.b d   = ' XX&XxX",
"JX1X/.e X o p [ 4.7.,.u s.y.B g qXFX XK , } hX(.q S sX).i A 5X7X5X7XA t ).zXo.i (.iX*., P oXcXeXg c q.u._ @.0.4.[ p % . e _.1XJX",
"HX,X#Xv.u.8 y 2X*.0.pX{.g.5 % h L.T.OXd.p.>.rX,X~ y =.BX{.t 7 B B i 5  XvXeXi ~ ,XLX>.p.h.*XZXL.h % 5 g.{.gX0.:.S.B a.r.f.B.<XFX",
"SXnXB.N.n.m.c.A.4.7.SX1X}.( U j H.UX,Xf.y.x L.vX%X3 - :.vXOX}._.(./.=XLX:., 3 *XvXL.d w.f.@XtXJ.N U ^ ).1XfX9.} S.c.a.n.v.$XcXSX",
"2.@.^ s.n.m.c l S qXKXAX}.' J @ Z 8.<.z.s.: A qXdX)._ c.Z ;.lXvXLXiX0XM 9 r /.dX8.V : d.z.<.4.Z @ H ' }.FXLXqXS f 9 m.t.w i _ 2.",
"3.$._ g.u.4 o @ x K.T.Y.}.! & 6 F ..9.+X( H i *.0XAXj.5 : m V S S N V 1 t j.cXzX;.n H / ,XkX} yXo = ! |.Y.T.U.h @ O 4 u.M.l.,.5.",
"1.sX:X$Xd.& X 7 V G.T.VX1X(.4 m.S.%.rXnX*Xk.q.B D BXKXOX^ e.& u 8 & e.k.OXAXwXG.B w.r }.FX0X{ A.m.r.(.<XVXL.G.M 7 & = d.$X;XsX1.",
"fXDX<XXX( W _ Y Z D 9XDX<XB.v.t.7 k Z.E.<X(.3 8 m &.hXmXnX)./.d.^.' ).nXbXkX&.h 7 q.(.<XE.Z.k 7 y.n.M.<XUXtXD Z Y U ~ ( XX,XDXfX",
"UXJXHX|././.! Y s A :.9.uXx.g.q.+ j G.0XlX@.^ ! , M =.wXjXsXcXdXaX=XiX8.J.S M , W j.4XlXwXG.N + 3 s.{.uX9.qXm # Y ! /.'.|.SXJXUX",
"eXvXxXx.`.! H + O l ..X.<.6X^.W R M x &.0.sX>X^ w p.; h %.:.W.jXtXZX:.%.Z s y.r ! >XiX6.&.n j P ~ [.cX<.X.| k O + J ! `.{.xXMXeX",
"I.T.Y.%XoX/ t . a N qX4.kXHX1X' L - # N 7.LXbX=XN.q.J I a.V j G J.h m a.: H t.j.|.bXIX7.S # 1 K ] <XSXpX4.qXN # . t ( oX;XY.T.I.",
"L.T.bX+XOX#Xu.4 8 D.o.} jXGX=X'.^ 5 a.x.k H.ZXSX}.z.^ r w.1 1 0 a.I 1 w.r / M.].1XZXH.z c.a.5 ^ / |.GXjX} o.D.y w.u._.@XAXMXY.I.",
"G.ZXIXSX-XM.f.w.b.C.g %.U.!.D.,X(.t.m.a.s D eXkXiXAX}.$Xu.W ( r.r.K ^ u.%X*XAXiX9.eXD p 8 m.u.(.,XMX!.W.S g C.m.y.u.M.;XSXIXQ.G.",
"J.tXPX1X:X%Xg.t.p.7 f c H.T.CX<X=Xg.i.X j j F ..jXvXnX;X{.}./.z.(./ *X%X+XGXvXjX} =.M > . y.g.{.FXmXE.H.c ; $ w.t.f.B.-XdXPXtXI.",
"tXqXkX1.] u h.v.2 o # Z I.U.tXfX_ {.f.W I + m #.:.L.ZX9.iXmX=XdXuX;XmXsX9.rXL.=.#.n ; I W s.{.].dXBXU.I.Z O o 5 u.h.u @.gX9.qX9X",
">.4.9. .,.`.M.g.5 = Y { C.yX6.X.iX=X).` H 2 C.B m D eX6.3.NXVXkX7.CXNX8.X.=.Z.h y C.X L ` XX=XiXX.4.-.C.{ Y = 5 s.M.`.$.2.9.4.| ",
"| *.0.5.#.;X-X^ Q L Y < $ z | X.lXHX>X/ W t.i.. ; h V &.%.L.wX&.;.wXL.>.&.Z N > 2 y.e.k.) >XJXPX..} { , , Y L Q ^ -X;XuX5.kX8.| ",
"o.:.0.0.DXFX>XoX` Q U o @ M #.jXkXIXxX+X*Xv.t.8 I I 7 C N D A S F l v A B 8 : I r.q.v.*X|.&XBXlXjX=.M @ o U ` ` oX>XFXfX5.6.:.+.",
"yX-...0.IXHX1X X( Q t 2 8 B +.%.K.~.bXFX=XV.k.~ L t p.a.1 > , C.a.j > 1 p.a.t L _.r z.=XHXbX~.J.&.Z S.a.2 * ! ^. X1XHXPXjX..*.wX",
"N [ } qXIXmX{.{.oX( w q.a.c.n l S.P.NXJX@.{.=XOX! d.y.q.= I & w.w.1 T = w.y.d.! OX=X{._ JXNXP.J.z n y y.q.t ( OX[.{.bXCXjX3.[ z ",
"l [ qXU.E.T.Y.nX>X(.s.b.b.8 O s F H.tXkX .dXHXcXoX*Xu.e.e L r e.e.q L ~ f.u.$XoXcXHXdX .kX9XP.Z d @ 6 b.b.f.^.1XnXY.!.E.9X-.k g ",
"f m v H.P.T.VXHX<X:Xj.j.b.2 o h S D >.3.X.lXKXY.nX=Xz.(.).) ^.g.g.^.) ).(.l.;XcXY.LXlXX...>.D o., o 2 f.g.B.:X>XHXVX!.P.H.v m ; ",
"$ a c H.U.E.BXJX<XxX`.k.u.5 = Y l s S 3.4.tXI.E.LXaX`.,XOX|.>X%X{.*X].=X,X_ KXLXE.wXtX8.&.N a l _ = 5 s.k.{.cXAXJXBXI.P.H.c a # ",
"p a F F G.U.rXPXuX@.`.z.j.r L R - # Z 3X} K.F.W.LX9.1.dX&X;XHXuX+XHX;XcXDX1.kXPXI.L.K.| #.S.o ; L E q g.V._ @.aXPXBXU.K.yXZ d d ",
"f M $.M v 9XjX9.1.,.6X-X).' L P X 6 F.A.l A V J.qX0.6.lXQ.Q.DX9.9.fXVXbXzX6.6.0XF G.m f S.c.6 + P ` / #X;X].,.<.kXjX9Xv M #.< ; ",
"! E l x v =.*...3.2.,X<XXX' ( W . w.a.9 @ s o.m %...*.tXR.U.hX8.8.hXW.R.tX:.} %.V N h O 7 a.m.. J ` .XXX;XaX1.4.X.4.F v x l T L "
};
