/* XPM */
static char *_____________[] = {
/* columns rows colors chars-per-pixel */
"64 64 71 1",
"  c #373736",
". c #383637",
"X c #363837",
"o c #383836",
"O c #373739",
"+ c #393738",
"@ c #373938",
"# c #3C3C3C",
"$ c #403E3F",
"% c #3E403E",
"& c #40403E",
"* c #3F3F41",
"= c #413F41",
"- c #3F4141",
"; c #434343",
": c #484647",
"> c #464847",
", c #494947",
"< c #464648",
"1 c #494748",
"2 c #4B4C4C",
"3 c #50504E",
"4 c #4E4E50",
"5 c #514F50",
"6 c #525353",
"7 c #595957",
"8 c #5A5A5A",
"9 c #676766",
"0 c #686667",
"q c #666967",
"w c #686866",
"e c #676769",
"r c #696769",
"t c #676968",
"y c #6A6A6A",
"u c #706F6E",
"i c #6E706F",
"p c #72736F",
"a c #6E6E71",
"s c #706F74",
"d c #6F7172",
"f c #747474",
"g c #787676",
"h c #767876",
"j c #787876",
"k c #767679",
"l c #797779",
"z c #777978",
"x c #797979",
"c c #81817F",
"v c #7E7D81",
"b c #7F8180",
"n c #858585",
"m c #888685",
"M c #848886",
"N c #898987",
"B c #868688",
"V c #898788",
"C c #878988",
"Z c #8A8A8B",
"A c #908F8E",
"S c #93948F",
"D c #8E8E90",
"F c #949494",
"G c #989697",
"H c #959896",
"J c #999997",
"K c #979799",
"L c #969998",
"P c #9A9A9A",
"I c #A1A1A1",
/* pixels */
"8232422222232232222322242222223223232422223223223442232232222228",
"ZZZZBVCZZZNNZZZZNVZZZZBVZVVZCNZZZZZZZCVZCNZNZZZZZZCZZVZVZZZZZZZA",
"ZVVnnnnnnncnBbCBmmnnnnnnMnnnMnnnnnnnnnnnnMnnnnnnBBBBVnnmnVnnnBVD",
"nffkffffpffffkkkffffffsffffffpffffffsfffffppfffhfffdffffflfffffv",
"nfxjkkfjxlllzzkkfffffffffhhhhjhhxxlfkfllkhfhjhjfffflkfxgjxhgkkkv",
"ftyyeyywyrryeeeet0eew0t0eet0wt00yye0e900e0twwwwwwy00rywwwyw0ee0f",
"2;##*;*&#;;-#;*#$;=;====-;*;&&;;&%**$%$-#;&&&$$&&$#$#;;&&&;#=##2",
"<o OOO O oOoooO@oOoOoooO O  X   o O@  X  oo X o oOo OOo  XOoO  <",
"6;;:;<;;<<;>;>;;<;;;<<;<;=;;<<<;;<<;<;;<;<<<;;;<;<;;:;;;<<;;:;;6",
"PFGFFFFFFFFFHHHFFFFFLFFFKFFFFFFFKFFFFFFFFFFFFFFFGFFFFFGFFFFFFFGP",
"AmnnnVnBnnnnnnbMVBnnVnnnnBnnnnnBnnmnnMnnnnnnnnnnnmmnnnmnnnnnCCCZ",
"vfsffdfffffffdfddffffffffsffffffffsfffffssffffsffffffsffpfsffffx",
"clggzkkxhhfffkkkkkkffhxhffllfhfgfgfhhllxlkfkjxfxfkxxggggxfxxhhlc",
"srrrteyyqeeqeeee0yy0ewtyrrte0yye00tt00yyrryr0yyyrrt00rrry0yyeyrf",
"2=;#*###-%#-**---&#*%&#&#$#%#&#%##%&$$$#*#=*#--####;*$#*#%###*=1",
";  o         O @ @o     o     X X OX    O       X     o     O  <",
"71<12,12<222<411121222122,,21222212122111111<21<1121212>12111217",
"IKPPPPPPKKPPPPKPPPFJPJPLJGJPPPJJPPPKPPPPPPPPPPPPPPPPPPJJLPPLPPPI",
"ZnZnnmnnBnMBBBBMMnnnnnnnnnnnmnnmMnnBMnVnVnnnBBBnnnCnnnnnnMnMnnCZ",
"xhfffpsfdfdfdfdfdfffifdfpfffffffdffffffffffsffffpfffpfffffffppfb",
"nxxfggglfxhfhfhhjfxffkkhkgfkxxxfkkkkkfkkzzfhggjffhjjgjjjkhfxjjjc",
"fyyy000r0yetywwwwyy0weeyryree0yyeeryt0wyqqttyeyttyw09000yyyyww0p",
"1;&;=;;;;*&;&%%%&;$$&*;*&&;#&;*#;**;;&&&%%&;%;;$$;#=$#&;%;;&#;&2",
"<  O  o O oO OXX        X     OO OOO  oXooXX  O   o@  o   oOOoo<",
"3><;;;;<<;;:>>>-<;:;<;;,<>;;<<;;;;;:;<<;<;<<;<:<;;<,:;:;<;;;;::6",
"PFFGFFFGGFFFLLHHFHJFFFFFJFFHFKFFFFFFFFFFKFFGFFFFHHFFFFFFFGFFGGFP",
"AnnnnnnnnCnCMbMMnnmnnnnnnMnnBbnnnnnnnnnnBBBBnmnmnnnnmmNnnmnnnnmZ",
"xffffffffdfffdffpfpffpffffidfaffuffffffffssffsfffpffpffffusffffc",
"cjlfkfhhhhxjffhhjjkjkxgghhfkkkkklfglflkkkfllggjjhhhhljjffkxfgfxn",
"fw0eyyeettyyyyt00y0y0yywtwyyeeer00rr0reeyeyr0ywwtyeyr0rrt0yyww0f",
"2$&=;---&&;#;-#;%#;##;#&&###---*#;=#==*##***$;$$;=-**&&#&;#;;-#3",
",ooo O XOX   O O    @@Oo  O #OOO     OoO          o   o      oO>",
"6;;:<>;<;<<<:<;<<,;<<<<<,;>;>>;>;;>;<;;::;;:<<<<;;,;>;:::;;;::<6",
"IFFFGJFFFFFFFFFFFGFFFFFFFFGFHLHSFFFFFHFGFFFFFFJJFGHJGFJFGGGGGFFP",
"AnnnnnnnnnnMCnMncnnnnnMnnnCnMMMMCCnnnmmnmnnnnnmnNccmnnnnmnnmcmnZ",
"xsspffffffffdffffpfafffffffpfpfppffffffffsfffffppffffffffpsfpjpc",
"cllghfkxfxfkhfxkhkhffxxhhfjjjjhfhhfljfjjlllglxjfjjfjjjfjfhjkjjjc",
"f0wwy0wewwyywywyr0yyyywt09990wtwtwyyytwwreer00t00000ywt0yrr00w0j",
"2=$$;*&;#;;#;#-#;#&&&&$$$#$#&%%&%&;##;&#=*;#$$%-$$&;;#;#=$#$;&&2",
"< ooX  OoX   X  O oXo  oo  o Xo  XX   oo @       o      Oo  ooo;",
"6:;1;<<<:<<><;<<<;;>><<>;,;,,;<<;,<;>>><1<<;>><><<<<<<:<::,<;>>6",
"PFKKKGJJGFFFJJPFFFHFJJFFHFJSJFFFFJFFFFKLKKFPFJFJHFLFKPFGPFFFJJFI",
"ZnnMnnnnnmnnnnnnCMnnmmcmncnnnnnnnnnnnbnnnnVnnnnnMMMnnnMnnnnnnnMZ",
"nffffffffffffpfffffffphpffffffpfpfffddfffffffffffffffffffffpfffv",
"bhhkfkfkfxfgkjxkkkkxhxhjfhxffxkkfjjjjhfxfhfjxgxlffxxfkkhkkfxkxkn",
"feeeeyey00yryyrreeeeytwye0y0yryy0wwwwyywwtererery0yyyweeeeywyyef",
"2-;&&;;%;*=$;;#;*;==$;;;;;=;%;**;$$&;;;#&;%;*;*;;;;&;&#;-;;$=;;2",
"<@OOoOXX@     OO              OOooXX X  oO O  O OOO oOOX@XoOOOO;",
"6;;;;;;;;;=;;;;;<;;;;;;;<;;;<<=<;;;;;;;<;;;;;<;;<;;;==:=;:<;;$;3",
"PFSFFFFFFFFFFFFFDFFFDFAFFFFFDFDFFFSFFSFFJFFHFSSSSFFAFFFFFFSFSFFG",
"ZnnnnnnVnnnnnnnnBBnnVnnnnnnnBnnBbnncnnnncmcmncnnnmnnmncncmncnmmZ",
"xfppfffffufffdffffffffafpfpffaadffffsfffppppffffsfssffpfppffsskv",
"nfffxxkxxhxfkhkxkxfxxfhfgjlgfkkkkkkkkklxjjjjkxjgjgfkkxhfffjfglkc",
"fwt00yeewey00ewwywwywwy00000000reeeqeeyewywt0ytw000eeee0e0y0000f",
"2&;&;*-;#;;#&;&&;&%;&;;;$$$&#;;#-**-;*-;&&&&;#;*$$$=;&&&;-;;#;=2",
":o X  OOooO oO X o ooOO oo O@O   O@ @OooOXo#   Ooooo  o OXOoOXX;",
"5;;;;;;;;<<;<;;;;;;-;<;<;;;;:===;<;;;&;:;;;;;;<;;;;;;;;;<<;;;;;3",
"PFFDFFFFSFFFFFSFFFFFFFDFFFFFFFGFFFSSFFAFFFFFFFDFFSFFFFAFFFFFFFFP",
"AnnnnnnmnnnnVVnMBBBMBBBnnnmmmmmmnncnnnMnnnnnnnnnMnnMZnnnnnnnMBCD",
"vffffffffpyfffsfffffdfdfffffsspfsffppfffffffafafffffffffiffffdfv",
"cxkhjjjjxxkkkkkxzxzkxxxjfjjjlllglljxfhjjxxkklkllkxxkjxxxxhkkkkkM",
"lspyiyypyaaayaaafdddiyuyyupyssuuuypyuuwiyfaayfyyyafyafdaydyayfyx",
"9888787788888777888888878888888888887877888888887888888888878880",
"9888888789888888888888888888888888888888888888888888888888888770"
};
