/* XPM */
static char *_____________[] = {
/* columns rows colors chars-per-pixel */
"64 64 256 2",
"   c #020201",
".  c #0C0201",
"X  c #030A03",
"o  c #0B0B03",
"O  c #0B0C0A",
"+  c #05070B",
"@  c #130202",
"#  c #1B0101",
"$  c #130B02",
"%  c #160909",
"&  c #081406",
"*  c #13120C",
"=  c #181707",
"-  c #060714",
";  c #150B15",
":  c #071915",
">  c #1B1C1B",
",  c #181615",
"<  c #240201",
"1  c #290805",
"2  c #380706",
"3  c #281608",
"4  c #371808",
"5  c #261817",
"6  c #391915",
"7  c #300B18",
"8  c #192417",
"9  c #132D0E",
"0  c #282608",
"q  c #362609",
"w  c #262816",
"e  c #372817",
"r  c #2A3618",
"t  c #37371A",
"y  c #2F3906",
"u  c #151825",
"i  c #051628",
"p  c #331529",
"a  c #1B2726",
"s  c #193637",
"d  c #0A302E",
"f  c #262826",
"g  c #283528",
"h  c #373927",
"j  c #293734",
"k  c #373838",
"l  c #312A2F",
"z  c #470604",
"x  c #461906",
"c  c #491717",
"v  c #540F0F",
"b  c #6C0F0C",
"n  c #482819",
"m  c #57351A",
"M  c #502D0F",
"N  c #712E12",
"B  c #51122A",
"V  c #6F0F2B",
"C  c #552926",
"Z  c #473928",
"A  c #583828",
"S  c #4C3131",
"D  c #6D3130",
"F  c #304719",
"G  c #104F37",
"H  c #304A32",
"J  c #146A31",
"K  c #2B6938",
"L  c #4E4A13",
"P  c #6F520E",
"I  c #746A13",
"U  c #474628",
"Y  c #56482A",
"T  c #464737",
"R  c #564635",
"E  c #4F562F",
"W  c #674736",
"Q  c #735134",
"!  c #75672D",
"~  c #556505",
"^  c #0F3747",
"/  c #273845",
"(  c #383844",
")  c #303A55",
"_  c #253D63",
"`  c #4C1A4A",
"'  c #51324C",
"]  c #712E4A",
"[  c #6C3C6D",
"{  c #124F4C",
"}  c #265847",
"|  c #395547",
" . c #285656",
".. c #395956",
"X. c #30484D",
"o. c #177254",
"O. c #28695A",
"+. c #327051",
"@. c #145271",
"#. c #2D556B",
"$. c #0F6D72",
"%. c #30706F",
"&. c #575857",
"*. c #4E4F4E",
"=. c #785647",
"-. c #6F504F",
";. c #456659",
":. c #4F6D4F",
">. c #6C6A56",
",. c #4E536C",
"<. c #70556A",
"1. c #4A6867",
"2. c #457569",
"3. c #587B69",
"4. c #467877",
"5. c #5C7377",
"6. c #516771",
"7. c #67776A",
"8. c #687B77",
"9. c #766A6B",
"0. c #8E1311",
"q. c #B20A17",
"w. c #912E0D",
"e. c #B13D0F",
"r. c #91112F",
"t. c #B3152C",
"y. c #8D2E34",
"u. c #AA3135",
"i. c #CE302F",
"p. c #D4221A",
"a. c #854F18",
"s. c #8D6914",
"d. c #8A4D30",
"f. c #AF4F2D",
"g. c #8F672E",
"h. c #B06B37",
"j. c #B64200",
"k. c #D56220",
"l. c #8A2F4E",
"z. c #B1354A",
"x. c #8C366C",
"c. c #A21A5D",
"v. c #D31F56",
"b. c #8F4F4E",
"n. c #AF4E52",
"m. c #876754",
"M. c #8F6E4F",
"N. c #B06A51",
"B. c #90566E",
"V. c #B65673",
"C. c #896868",
"Z. c #927370",
"A. c #AD6C6F",
"S. c #C6556A",
"D. c #CB746E",
"F. c #D86761",
"G. c #2E8D58",
"H. c #148B6D",
"J. c #308C71",
"K. c #1CA16B",
"L. c #48897A",
"P. c #4F8E72",
"I. c #688678",
"U. c #738E71",
"Y. c #5E9666",
"T. c #DF9E27",
"R. c #EDDA35",
"E. c #FFE121",
"W. c #8B8A4C",
"Q. c #B3904E",
"!. c #8D8B72",
"~. c #B18A6C",
"^. c #8CA677",
"/. c #AEB05D",
"(. c #D08F6F",
"). c #DFA969",
"_. c #D4C16D",
"`. c #EEF16F",
"'. c #E2CE69",
"]. c #9EB64B",
"[. c #0A6D8F",
"{. c #31768C",
"}. c #2E669B",
"|. c #517889",
" X c #727089",
".X c #5D68A4",
"XX c #6A7BC1",
"oX c #D71F98",
"OX c #927585",
"+X c #A97886",
"@X c #965790",
"#X c #CC61A0",
"$X c #038F89",
"%X c #3B9997",
"&X c #308D89",
"*X c #33AD8E",
"=X c #3595B0",
"-X c #1AABAF",
";X c #34B0AC",
":X c #12A59B",
">X c #469786",
",X c #589986",
"<X c #599A95",
"1X c #4D898C",
"2X c #678786",
"3X c #759998",
"4X c #6D938F",
"5X c #58A799",
"6X c #4CAC90",
"7X c #67A698",
"8X c #71A78D",
"9X c #5395AF",
"0X c #6F99AB",
"qX c #52B0AE",
"wX c #6EB0AE",
"eX c #39C99B",
"rX c #0DCDBA",
"tX c #22CFA9",
"yX c #50CBB2",
"uX c #72CAB4",
"iX c #63C183",
"pX c #34B3CC",
"aX c #1DB0C8",
"sX c #4A9DC4",
"dX c #4FB4C9",
"fX c #72B4C6",
"gX c #6C9CD6",
"hX c #0CCFC3",
"jX c #33CACE",
"kX c #23EBE2",
"lX c #53CDCB",
"zX c #6DCFCD",
"xX c #5CE6D1",
"cX c #70E6D6",
"vX c #6EF7F9",
"bX c #5ED4F0",
"nX c #89948E",
"mX c #AB8C8E",
"MX c #89A795",
"NX c #8F95A8",
"BX c #8BAEAF",
"VX c #ACADAD",
"CX c #AF9C9B",
"ZX c #CA938D",
"AX c #D0AE8F",
"SX c #DFA59C",
"DX c #8EC8B2",
"FX c #A4CAA9",
"GX c #FECD8A",
"HX c #E1C9A1",
"JX c #91B4C9",
"KX c #86D1CD",
"LX c #91F0F2",
"PX c #ACF0FA",
"IX c #A2DBD7",
"UX c #CFE1E1",
/* pixels */
"M a.N L s.a.N m b v j *.k o.9 c.oXoX0X1X|.@X X}.[ @.@.[.}.XXgXpXpXsXXX.X}._ _ .X@.@X#XZ.$.XXoXoXc.- J ' ] H C b N P a.a.L P N N ",
"I g.s.M L d.d.x x p r.0.B &.U ' c.#XfX0X<.[ =X=X{.@._ [.=XgXsXaXaXsXgX}.[.[.@.,.:X=XV.B.$XpX#Xv.[ ' -.v r.b c v b w.a.P M s.g.P ",
"s.P s.P P w.N b x v q b ] 8.-.S V  XzXOX,.@.=XpX$X[.@.}.pXpXjXbXjXdXbXaX[.[.@.}.pXXX,.[ {.gX0Xr.T b.6.] b 4 v v b w.a.a.P s.s.I ",
"s.P P s.h.0.v b v 2 x q.@X4Xz.U r.yXyX|.{.{.9X[.%X.X}.aXaXaXpXbXbXpXaXaXpX{.}.&X}.&X$.$. XNXdX` m z. XA.p.v V b b b 0.h.s.P P s.",
"s.I ~ I f.0.b m x x p.p.Z.9.D C |.cX0X%.%.{.&X6.9XOXfXlXaXjXpXkXkXjXrXaXdX9X9X=X@.&X X{.{.9XlX#.c b.C.B.v.p.v N N b 0.f.a.~ I s.",
"s.I ~ g.f.b N q x r.v.m.6.-.m c wXyX|.%.6.6.%.>X9XgXfXfXfXlXhXkXkXjXjXlXlXdX9X9XJ.6. X|.#.%.dXwX5 N b.7.N.p.r.b x N 0.f.s.~ I s.",
"P ~ P h.g.x M 2 0.v.z.A.-.y.0.{ xXyX2X3X7X;X2X1XbXdXJXfXfXJXpXkXkXjXdXdXlXlXdXgX*X5.5X;XL.J.yXKXO.0.b.B.n.i.v.0.4 x M h.g.P P E ",
"F F M N g.F 9 M d.t.l.n.l.N W <XY.^.6XcXUXvXwXwXzX;XfXuXwX0XlXvXvXjX0XfXqX9XqXvXwXwXPXUXIX7X2X,X*XQ u.t.f.c.v.f.M M q ! a.M M F ",
"F =.7 C P F x p.Z.z.b.;...|.&X4X:.6.>XuXLXKXIXwXqXyX;X0XJXDXjXPXPXjXzXJXgX-XjXqX5XIXIXIXyX6X,X .L.&X%.%...n.z.C.p.4 F P M # =.U ",
"F n 7 6 P = U h.7.B.C L.5X3X9.*.:.4XyXyXxXcXPXcX5XyXbX4X7XwXLXPXLXLX5X0X{.xXlX5XzXPXvXvXlXyX4XK *.5.4X<X%.] b.L.h.L = P 4 2 m F ",
"K 4 2 x P y >.W.<.7.h *.6XL.&.} K.7.1X9XvXjXvXPXzXzXzXBX*XqXKXKXzXIXeX6XwXuXyXKXIXLXxXfXpX&X3.G.G ;.>X%X;.k &.b.W.>.M ~ q z 4 K ",
"H $ 2 Y Y ! !.>.<.%.;.f X.H h G.o.a { {.JXhXhXxXuXJXqX*XG.eXcXwXBXyXeXH.&XqXBXzXlXhXkXKX%X{ p O.G.*.j G 7 } $.OXW.~.! E Y 2 1 H ",
"e 5 3 W 4 g.N.y.&XJ.3X| p C 5 K P.&.4.1X0XyX5XFX<X,XuXJ.K.eXxXIXIXxXeXJ.K.zX<X<XJXqX;XwXL.%.,.5.H > B S X.8X,X&Xd.N.a.4 Q n 5 e ",
"c f t M 1 N f.y.$.4X4XI.c B a H } 1.OXMX7X!.S.S.nXJ.KX7X6XK.6XLXLXqXJ.eXnXIX&X8.F.#X+X5X<X8.;.X.J : p B &.MX3X&Xy.n.w.1 M A 5 7 ",
"% : 4 4 1 f.h.<.@.2X2X3.( l } +.&.| :.Y.Y.!.MXMX9.U.FXY.+.J.<XzXzX6XL.G.8XFXnXZ.mXMX!.7XL.&.} X.} k ( X.7.4X&X{ <.F.e.4 4 q ; - ",
": a 4 q 3 f.f. .$.2X2Xo.O.( -.| *.| >.8XSXU.kXfX!.~.UXDXU.3.0XzXqXBX7.U.FXFX(.Z.=XrXI.ZX^.7.;.X. .<.( O.H.2X Xo.{ f.f.q 3 x , : ",
"1 3 3 f # Q >.[.@.{ 7.5.|.3.:.K.<.(._.AXCX7X8XBX|.x.GX`.FX3.!.gXwX!.7.BX`.GXx.5. X7X7XmXAX_.D.<.G.+.P.%. X9.} $.[.7.g.% 5 q = 2 ",
"8 9 1 6 0 ! 9.#.#...P.%.2X+.;.Z.n.k.R.].+.pXqX<Xo.c.ZX_.4X$.+XVXCXOXH.8X).ZXx.J.7X;X;X6./.R.k.V.C.+.O.|.4.3.| _ {.-.Q 0 6 4 9 9 ",
"4 0 3 e q W >.&X9XG +.J.%.J.7X] 0.k.R._.Y.tX-X<X}..XCXU.{.4./._.HX_.%.L.^.CX.X}.0X:X:X3X'.E.T.0.V MX<X%.H.J.{ |.&X&.=.x x 4 0 e ",
"2 Z n 4 0 W *.&X{.%.P.L.H.tX6X1Xm.(.GX).U.P.*XDX=X|.+X.XpXG.W.).SX].I.pX1XZ.,.sXuXiXK.Z.).'.(.b.{.J.;X*XL.%.O.|.J.&.] 4 q n n 2 ",
"9 h c x y A ] &.P.6X4X;.K.eX&X1XnX+Xb.S >.U.I.5X%.M./.5.bXzXA.#X#X+XwXbX6.(.N.K.,X2XI.Y.Z x.+X8.&X&XyXG.;.4X,X,X&.] W e x x U 9 ",
"4 q x y F C D <.U.+.I.I.VXuX&X' x.;.' A , i 1X| 3 -.A.t 9.OX[ x.c.x.@X|.f B.Q y | |.i 0 ] ' ,.b.] &XzXVXI.>XP.!.=.] S F M x e 4 ",
"z x M L F B l.C.h.:.G :.IXwXL.ZX#XK ;.m C ' d f &.X.B T U.[ ` v.v.` ] 9.T B ^ *.l d ' C m ;.} D.CXo.6XFX7.d *.h.M.l.B L L M x z ",
"4 n Y L H ' r.u.k.Y - BXuXL.%.8XW.G ,.*.Q 0.n G } J.#.2X1.` ` l.c.` ( <.2X%.&X#.K n 0.W R &.G >.U.%.*XuXnX- R h.w.c.l E F A C 6 ",
"x E Y Y Y b q.q.V V M 2.G +.E ;         + , f l C.U.M.f.] ` B ` ] B B D f.! I.@Xl f ,           u U :.G +.N r.V q.t.z Y W L E x ",
"v L U L U z n.n.-.z.u.V B D A - , * +         + 6 !.h.f.y.] B 7 p B ] y.e.N.!.f .         + , , - Z Y B V u.b.b.n.z.z L L U L x ",
"N z Y E t 4 m.D nXQ D D A # . u                 X Q f.p.q.C v 7 7 B l.0.i.k.P X + +           + u   @ D V D d.mXb.m.4 Z E Y z N ",
"N v y 9 Z e R =.=.m.Y 8 & :                     : # e.k.b b V ] ] B v 0.i.w.o &                 + + : & r Q m.=.b.Z q A 9 q b N ",
"v z 0 F e n R =.b.l.C A @ + + ;                 & . N w.b D b.@XN.b.A b e.v   ;                 -   +   R D y.b.d.R C M F q z M ",
"1 m e h R A 4 =.d.b.b.Q 1 - -             + +   . - 1 M =.b.D.CXCXV.d.W n c . -                 . : O 2 d.b.b.f.-.4 A R F q m 2 ",
"x t t h w e C *.=.-.Z.m.n : - .                 . - @ n C.b.N.VXVXN.u.-.e 1 O               +   . - : n b.Z.-.d.-.C e w t F n x ",
"2 0 0 0 F g A T &.&.<.M.M . X $                 .   5 e =.u.n.!.nXA.y.D 6 * & . +               =   % m b.B.>.&.H A r F e 0 0 2 ",
"1 c 0 y F r A -.>.-.>.C.e > * 1   @ .     . .   o 7 , *.-.f.#XNX3XA.z.-.,.; 1     . + X   @ #   % % > Z Z.b.9.Q W D 9 F 0 0 n 4 ",
"7 x 3 0 t H A b.>.b.C.mXZ 8 > 3 X   X :     .   @ @ c <.+XF.AXVXVXSXN.A.] 2 < + . O + & : o   X = w = H A.A.m.m.-.R U t 4 3 c 2 ",
"4 1 1 3 0 Z Z 9.OX=.N.~.Q H k d O 8       X + f   v t.z.D.~.HXVXHXHXZXD.i.w.x , 5 + X X .   : O d S t Q A.N.m.A.=.Z Y 0 4 z 2 2 ",
"1 3 z = = 4 F m.C.m.~.CX!.W Z j #   o # @ : u - L ).T.k.i.ZXSX+X#XZXZXi.k.T.Q.W @ > : @ # .   @ s R E U.ZX(.M.C.=.Z x 3 1 z 3 2 ",
"< 3 2 % = < -.M.N.M.Z.nXBX!.Q Z @ 3 + 5 *...G #.(.`.R.k.p.t.D ' S D z.p.k.E.`.(.1.{  .*.6 % , @ k Q !.BXNX!.g.N.M.>.1 = $ 2 3 < ",
"< 1 1 @ = # m.A.mX!.g.C.8XAXZ.9X2X;.H I.8X6X6X6X_.`.T.k.u.b z V p 1 v w.k.T.`._.5X>X6XMX8.| ;.2X1XZ.AXMXC.M.A.mXN.M.1 3 $ 1 1 # ",
"< < % # 3 < n.z.@XA.f.=.;.!.CXjXDXBX2X8XDX8XO.J.U.Q.Q.F.n & # B B % o C h.h.Q.MX&XO.P.DX4XU.BXuXbXnX~.E m.h.N.@Xn.n.4 3 $ # 1 # ",
"# < O , 4 1 0.0.r.N C |.$.U.!.H.%.|.7.:.*.*.X.1.nX!.W.Z.      u p @ @ 7 A.W.!.4X4.*.| *.:.9.2XO.$.U.MX@...D w.r.t.t.2 1 # . 2 1 ",
"@ 3 = o 3 4 C n.Q.>.&.U.J.H.O.4XU.K ,.& q r.D H %.2.4. .X & - ; 7 - + X #.|.G.%.} D r.0 9 *.} !.7X{ $.6XU.:.! k.z.D 2 3 = # 1 # ",
". . O 0 w 1 B A.(.U.o.8XVXqX#.A.V.d :.D c k G H } :.B 7 . * ; ; u - . @ p 5 &.| H d / C N :.d V.A.$.9XVXU.H.J.AXA.c < w w = $ . ",
"    X w e # 1 -.MXY.yXDX3XyX1Xv l.X.Z D Z d &X:.C =.7.  $ @ % @ < -   X . Z.m.n G.&X^ S D Z ) l.2 4.DXNXFXwX,XMX9.# = h = o   X ",
"+     . , % o 8 P.5X<X>X*X*XO.7.m.M.b.R 3.Y.,X3X} >.C.@ * X .   X   & , @ 9.>...U.I.P.3.Y B.B.C.J.O.K.:X1X0X7XL.>   5 0     X X ",
"        o o X X a O.J.%X;X6X} o.N N.).(.Y.G.%.BX{.,.p . >   R L Y W   O o j ,.&XBX+.K U.~.).N.D .. .%X*X%XJ.G.8   o . . .       ",
"        o     & > : } 1X;.+.P.' b e.T.Q.=.o.J.,.#.` *.&   . N.M.b.F.  X . *.` @.6.J.o.6.Q.T.j.b B 5.4.1.,X+.& @ o *   . = .     ",
"      & +     , + . O *.,.G H B.l.f.R.N.R J.+.;.d B Q.h.o 9 D Z.nXD 0 < h.(.B ^ ,.%.&X*.Q.T.j.y.<.K G }  .= % - % .   O O   + + ",
"-     X X   . . . = O / G 9 Z X.B.N.W.~.m.G.;.<.7.V _.GX^.| b.2XU.b.+.U.`.).r.&.-.+.+.Z.~.W.S.C.j L 9 s k & : - %   o X   + + + ",
"-     + * ; % . O , O f k 8 f   ,.*.*.U.N.b.K.K.C.N.Q.!.G.E :.0X3X:.J Y.^.(.M.C.$XK.&.N.U.-.,.,.  a > k f & O + o . . % . .     ",
"+     +   o % @ * , O , f , 5   k | *.3.>.-.9.+XB.Y.^.:.G.K Y.qX6XU.K J >.~.G.C.+XZ.b.3.3.*.X.k   5 , f , . * O o .   . O     + ",
"* + + X X . = $ % , @ % 5 @ 5 . + X.*.3.+.7.Z.S.!.o.iXU.P.K.,XcXcX5X*XJ.Y.8XG. XV.S.C.+.1.X.G   @ 5 @ , % . , % $ $     o o   > ",
"> & & = o $ = $ + = ; * , . , % X h k ..J.>X<XNX4XG.6XJ.o.eXxXKXKXyXyXH.G.,XL.L.7X2XK.+.*.k s . ; 5 @ , % * 3 * = 3 = = = O o 5 ",
", O & 8 w t w = 8 & O & f w u .   @ 8 } 4.K.tXuXuXMX7X6XO.yXyX7X7XyXeXo.6X6X,XuXxX*XK.&X*.^ ; - - f f f + o = w 0 q r r r * O , ",
".   X 8 F H r 0 h =   & k H j X   2 O.O.5.L.*XqX8X5XyXuXL.7XwX7X8XuX6XL.BXyX6X3XuX7X&X%.#.#.@ X X s H k o   $ h t e h F w & o o ",
"      o h H w y e = @ O j k j > X % o.{ H 1X8XL.X.$.%X{ ;.0XKX:.>.zXwX%.{ ;X$.H 2XnX4X} o.#.* X : j k g $ @ 3 e q 0 r r &       ",
"  +     w w = 0 6 5 5 3 w f k k : X } I.P.wX3XL.P. .qXd nXcXqX1 < qXzX<X^ 9X_ >X1X,XMXY.Y.+.X % j j a f = 3 1 4 0 = w 8 X       ",
"      X X X O * % 5 % 5 1 2 S k : * H 6XP.DXP.3.lX%.5X%.2X0XyX[.{.;XwX{.@.wX%.lX8.J.BX2X7Xa % d d w C v 4 1 3 . & O X       X X ",
"  X X X   X & & . % o 6 4 2 3 * s * : } ..;.O.2.9X%.5X<X0XqXqX-XrX;X9X2X1XqX{.qX%.O.1.T { i , g , c c c 6 $ 1 . & o o O X X X   ",
"+ & * & X   X X . & # c B 6 % $ *.8     s G X. .1.#.7X0XqX;X;X-XhX;X-X;X5X;X#.,.{ X.k l : - a k < v 5 c c X %     X X & O & X   ",
"  X X X         +   . c v 6 3 , l H > # f s ^ ^ X.X.&X|.%.-X&X-X-X&X:X$X{.$./ / { / j j + u / > # z 0 V C X @     X X + O X o X ",
"    + o         +     c c p * 1 2 X.X.e u d s  .;.i $.^ { $.@.jXpX#.$X@.) { i #. .s u 8 u j ' % & 7 8 V V . % -               + ",
"+ O , , u , , > , : > B C T f c B &.*.' l l X.%.X.i { ^ ^ $.^ %X%X_ #.^ ^ { i / { f B p d  .<.v , w g v v   . -               X ",
"O , f f a w 5 a 5 a g e h *.k B l.] *.&.k ' ' ..) u { ^ ) 1. .O.{ #.,.) ^ { f f d h ] V G X.l.r.B 5 H 7 <     @                 ",
"  + O * ; O + O . X X @ . G l V r.r.-.;.l D l ; ,.u i ^ ,.,.O.| { %.,.) / ( / d p k ] D d ' r.t.V u H &   X X @   + + . +       "
};
