/* XPM */
static char *_____________[] = {
/* columns rows colors chars-per-pixel */
"64 64 256 2",
"   c #000000",
".  c #040805",
"X  c #0A0910",
"o  c #290304",
"O  c #35090D",
"+  c #352809",
"@  c #04032B",
"#  c #030534",
"$  c #0F1132",
"%  c #29102E",
"&  c #342A2D",
"*  c #092523",
"=  c #560304",
"-  c #4E090F",
";  c #780104",
":  c #6E0A10",
">  c #53340C",
",  c #6F3509",
"<  c #6F0E2C",
"1  c #503632",
"2  c #73302F",
"3  c #570B2D",
"4  c #216126",
"5  c #57500F",
"6  c #734B0D",
"7  c #50502F",
"8  c #6F4F32",
"9  c #4F712F",
"0  c #707130",
"q  c #616E0D",
"w  c #01034B",
"e  c #010858",
"r  c #03165A",
"t  c #0E164E",
"y  c #331457",
"u  c #04245B",
"i  c #0D2B4D",
"p  c #353355",
"a  c #021865",
"s  c #090C69",
"d  c #291A70",
"f  c #022668",
"g  c #032774",
"h  c #033878",
"j  c #0F2F71",
"k  c #2C2F6F",
"l  c #6D0D4D",
"z  c #732F4D",
"x  c #54086C",
"c  c #6F0A6D",
"v  c #4C3071",
"b  c #712D6E",
"n  c #521A51",
"m  c #074D76",
"M  c #364F72",
"N  c #347A71",
"B  c #1D5A5C",
"V  c #524D52",
"C  c #72514E",
"Z  c #4E744E",
"A  c #746D52",
"S  c #4F4B6D",
"D  c #724E73",
"F  c #4E7471",
"G  c #706E71",
"H  c #860100",
"J  c #8E0F14",
"K  c #A80102",
"L  c #B10B12",
"P  c #8E310E",
"I  c #B3330D",
"U  c #930B28",
"Y  c #AF0D25",
"T  c #913033",
"R  c #AF2C2B",
"E  c #CD0808",
"W  c #CE1024",
"Q  c #C83228",
"!  c #D81615",
"~  c #8E4F0D",
"^  c #AF5114",
"/  c #917011",
"(  c #AE6E0F",
")  c #8E532D",
"_  c #AD5429",
"`  c #926D2F",
"'  c #B0722D",
"]  c #CB750F",
"[  c #CB4C26",
"{  c #C97725",
"}  c #CF7629",
"|  c #D66310",
" . c #930C4F",
".. c #AF034F",
"X. c #923152",
"o. c #A93259",
"O. c #8E0B6E",
"+. c #B2096D",
"@. c #8D316D",
"#. c #AE326B",
"$. c #CB2366",
"%. c #8C5152",
"&. c #AD474E",
"*. c #8F6F4F",
"=. c #AC7450",
"-. c #924E6D",
";. c #A9566F",
":. c #8D6E6E",
">. c #AD726D",
",. c #CC4A4C",
"<. c #C96D6D",
"1. c #D26957",
"2. c #028C3A",
"3. c #2D951A",
"4. c #6C8C35",
"5. c #659720",
"6. c #009448",
"7. c #0B8C74",
"8. c #339073",
"9. c #179D5B",
"0. c #55904D",
"q. c #6A8C4D",
"w. c #4D8675",
"e. c #6F8E72",
"r. c #6CA65F",
"t. c #72C041",
"y. c #8E8F0C",
"u. c #B38F13",
"i. c #B5AE0E",
"p. c #919030",
"a. c #B0902C",
"s. c #90AA30",
"d. c #B7A926",
"f. c #B9B628",
"g. c #BAB738",
"h. c #AEAE32",
"j. c #91B212",
"k. c #D18F12",
"l. c #E5900D",
"z. c #CBB010",
"x. c #D88825",
"c. c #CD9130",
"v. c #E78D26",
"b. c #CCB22E",
"n. c #E6AD15",
"m. c #B8CB11",
"M. c #BAC52E",
"N. c #8AC12C",
"B. c #C9C802",
"V. c #D4C903",
"C. c #D9D402",
"Z. c #CAC819",
"A. c #D5CC19",
"S. c #D6D512",
"D. c #E4DA0B",
"F. c #EDE60F",
"G. c #CAC727",
"H. c #D5C937",
"J. c #D2CD2F",
"K. c #E5DE31",
"L. c #8E924C",
"P. c #B08E4F",
"I. c #8FA64C",
"U. c #B8B958",
"Y. c #AFAC4E",
"T. c #919070",
"R. c #AE936F",
"E. c #92A873",
"W. c #B7B867",
"Q. c #B0AE71",
"!. c #CD924E",
"~. c #CBB14F",
"^. c #C6966E",
"/. c #CBB16F",
"(. c #E8A55B",
"). c #BBC34E",
"_. c #B3C26D",
"`. c #CECB50",
"'. c #E3D14C",
"]. c #CECC6D",
"[. c #E8E067",
"{. c #043B86",
"}. c #0B2F8B",
"|. c #232686",
" X c #741C85",
".X c #034699",
"XX c #025899",
"oX c #064C8B",
"OX c #315390",
"+X c #066C96",
"@X c #3A6791",
"#X c #0151A9",
"$X c #0167A8",
"%X c #0167BA",
"&X c #0178B9",
"*X c #0776AE",
"=X c #3075AD",
"-X c #4E4E87",
";X c #72548B",
":X c #52718C",
">X c #6E718A",
",X c #5777AB",
"<X c #6F77A9",
"1X c #0078C7",
"2X c #2F7EC2",
"3X c #923586",
"4X c #DC178C",
"5X c #92558D",
"6X c #AF508E",
"7X c #926F8C",
"8X c #AF708F",
"9X c #9573A5",
"0X c #CF70A1",
"qX c #098E8E",
"wX c #048AB5",
"eX c #2E8BB4",
"rX c #3C8F8C",
"tX c #508C8D",
"yX c #768F8D",
"uX c #7AA595",
"iX c #518CB1",
"pX c #7092AF",
"aX c #6FA9B1",
"sX c #54AB9C",
"dX c #0286C8",
"fX c #018AD6",
"gX c #0296D8",
"hX c #1192D0",
"jX c #3091CA",
"kX c #029BE4",
"lX c #01A3E7",
"zX c #14A6E9",
"xX c #00A3DF",
"cX c #4C94C8",
"vX c #5CA7CA",
"bX c #91928D",
"nX c #AE928C",
"mX c #93AB91",
"MX c #B8B799",
"NX c #AFAE8D",
"BX c #8DABB0",
"VX c #BAB9A5",
"CX c #ADB3AE",
"ZX c #9C90A8",
"AX c #C9B791",
"SX c #D19EA7",
"DX c #AFC6A5",
"FX c #CCCC90",
"GX c #D0CDB0",
"HX c #E5DDA1",
"JX c #EEA8D3",
"KX c #B3C8C7",
"LX c #D3D4CA",
"PX c #E7E8DE",
"IX c #A0BDCA",
"UX c None",
/* pixels */
"UXUXUXUXUXJ : O L J . . ( }   > !.P.L 1.!.( L Y - o 3 9 M.y.f.i.X / } ] =.tXP K V p 6 u._ x.( w.sX3.) Y GXmX  &     o UXUXUXUXUX",
"UXUXUXY Y P : R J . . . , v.(   c./.+ K 1.P.L W = 6 , / S.G.K.A.a.' d./ ` bX%.7XeXi / { I ~ ) sX9.P K z PXCXK T : o   . X UXUXUX",
"UXUXJ Q W : o R R : . - : ~ v.> ) /.9 H ) P., ; *.~.U.U.D.C.H.H.( u.z.k.u.T.T.jXlX*X/ ] U ; A yX& : K G PX:.= 2 =   .   > P.UXUX",
"UX. J W L O - Y W W J - :   ' { =.AXL.K : 9 Z T.NXMXMXE.b.M.W.i.z.h.A P.z.R.bX=.7XpXu.P U K w.w.= 2 ; FXLXX   X   T 1   *.!.O UX",
"UXT H J .   O J L Q J   . O X ' v.HXT.q 3.r.DXDXE.0.r.r.mXT.Q.:.R.G A `.z.Y.T.pXbX( z.` H C sXB = R ; FXMX. > 3 J Q = X P.8 X UX",
":X-.- X o o - : Y Y J J O X = = ] HXQ.3.r.mX_.t.8.MXDXMX~.NXNXbXk A B.n.l.Y.:.pXgXP.u.x.( A w.; Y L *._.0 o O - J ;   R.A @ ` ` ",
"-.M H O .   - < J - : R < . o m q.(.].qXsX3.3.8.r.LXHX).uXmXVXNXs.S.A.} n.E.T.l.~.c.c.z.b.e.=.( T K ~.).o o X O O . nXNX  C %.< ",
"V 8.` L ; .   o   . . J H : @XqX2.P./.r.9.3.3.eXrXs.NXMXGXCXMX].D.S.n.l.G.NXQ.b.x.u.V.C._.DXV.i.u.' `.p.o +   * q T.GX8 z @.< T ",
"< F 2.0 R : o O o O = = b :XqX9.L.(.(.k.5.4.5.t.t._.FXCXFXFXNXG.A.`.H.z.W.DX`.].~.bXnXb.DX`.u.b.Z.h.h.> . + +   q.GXE.3.C n 2 &.",
"_ yX&.~ 2 : - - J J = N qX6.p.P.!.(.v.v._ ] _ u.i.Q.MXY.mXh._.J.E.Q.Z.i.DXGXV.K.S.R.pXNXnXb.z.z.G.M.s._ 2 - U = VXDX5.I.V -.8X .",
"I ZXnXI T P 6 : - X 4 9.E.AX^.^.P.P.!.x.a.s.5.s.j.j.m.m.G.Y.`.'.W.).g.'.GXFXF.'.f.z.b./.NXGX_.B.M.M./ W Q u.P 8 GX:.C >.%.o.o.L ",
"; =.BX0 = ` ] { ( ~ T.E.HXGXE.T.0.6.L.v.p.5.t.4.4.j.d.u.' ' Y.'.'.Y.Y.].MXW.`.'.`.'.b.d.~.].MX].m.f.[ Q a.Z.i.nXnXl V 0.` K - J ",
"  O bX>X  X > ~ ^ ^.^.x.c.(.L.q.4.0 a.v.{ { } ' ' [ v.A.a.u.b.].].I.U.NXNXW.c.~.).U.U.z.W.].S.W.m.z.[ d.M.B.`.GX` = 4 5.` J : : ",
"- . . G G   O A :.AXVXnX1.k.] x.k.' a.c.] { x.} ( c.b.S.S.S.).].Q.FXFXCXFXFXU.[.].Q.NXB.~.VXQ.m.S.d.h.M.f.i.Q.].u.< : Y = * ~ Y ",
"H J . * G bX* *.nX^.<.<.<.c.u.n.k.u.c.b.v.} x.z.z.d.u.z.z.z.Y.MXFXHXGXGXVXFXHXHXHXMX`.C.i.`.W.J.H.S.M.m.d.A W.F.z./ W R 4 5.4 : ",
"8X; Y = < CXBXz E ,.,.1.=.l.} ' z.~.g.b.x.^ x.c.n.x.v.c.!.Y.Q.HXLXHXPXPXVXGXLXHXNXE.B.F.A.i.m.FX].V.g.u.z./.>.C.C.*.Y [ 4.0., ' ",
"JXZX; Q E x ZXCX<.,.<.!.] o.o.P.'.'.b.b.' ^ ' k.b.b.`.).HX[.NXGXLXLXLXLXBXKXLXmXsXW.C.B.Z.h.s.Y.].Q.8 a.b.(.%.%.b.Y...[ 0 5 { v.",
"nXJX8XK X. .K 8XKXSXQ [ o.:./.ZX9Xb.A.b.u.c.u.Y.`.'.].HXHX].`.NXLXLXPXCXDXKXGXDXuXY.C.U.Y.m.d.i.).NXc h.H.Y.W.3X=.B.*.9 q { v.{ ",
"O 8XJX6X  T ,.E >.IX8X+.D b.'.nXT.b.b.b.b.J.b.Y.U.[.[.].FX].C.i.V.[.GXIXPXLXDXsXE.V._.uXm.Z.G.M.B.M.Y.b.~.i.FXnXO.P.a. .] v.~ O ",
"- ; 6X0X#.L [ o.,.8XvXnX] u.A.n.n.J.A.A.d.J.b.a.`.'.!.l.x.Y.V.Z.`.FXMXmXLXGXmXuXW.B.mXaXuX).i.M.M.h.m.b.c.i.P.NX:.;.`.=.} ~ - L ",
"  -   @.4X4X1.1.nX..8XaX!.z.G.Y.J.S.F.z.z.F.C.V.H.P.} 1.=.Y.FXLXLXLXZXmXAXVXVXNXJ.m.M.pXuXM.G.K.M.s.M.a.b.S.f.I.6.7 b.~.< > T *.",
"2 X o ; O.4X$.0X;.#.| nXeXm.z.g.f.b.u.G.K.].W.Q.AXGX].y.MXHXHXPXLXGXCXG nXAXCXNXf.m.Z.i.B.M.M.J.a.L.g.a.h.B.~.z 6.2.9 4.Z 4 3.3.",
";.>.3 2 R Y $.4X+...c.F.DXaXC.i.`.[.b.AXAXGXLXCXLXPXFX/.PXHXFXPXPXLXBXD o.MXmXU.m.FXFXM.).).M.).M.).a.a.4.B.J.P.4.6.6.2.4.A F :X",
"< %.Q ;.B H W ..+.+.R.F.K.vXFX].GXHXHX/.R./.FXGXLXLXLXKXPXVXq mXCXPXKX=.U sXmXg.h.T.FX).]._._.U.).g.a.M.h.h.D.D.h.6.6.9 >X,XfXjX",
" .  : [ R H -.cX#.P.].J.i.tXvXMX(.Y.P.Q.Q.` d.~./.AXNXNXLXNXY.GX8XnXKXG A tXR.U.:.> ].FXFXY.].].I.' a.m.m.I.J.H.m.t.4 2.wXtX:.!.",
" .  % 3 Y K X.,XQ./.L.p.yXW.uXuXU.E.E.W.Y.].[.s.h.b.B.i.Y.R.LXPXLX1 w.tX7.V / MXVX` MXAX!.] c.c.{ c.W.Y.U.L.Y.E.W.f.Z 0.qX8XE E ",
" .. +.%.y.' ..o.MXE.4 ].).h.mXxXdXvXpXbXF Q.mXbX].].[.Y.j.s.GXPXLX8.tXsXr.Z 5 T.AXR.NXu.u.a./ ` ( !.GXAXNXR.0 E.MXh.A A 7.;.,.1.",
"4X .#.!.P.0.#.8Xr.2.E.U.E.vXvXiXeXiXyXS m & m dXmXNX].U.).Z.Y.mXqXN tXw.s.r.m l ' I.L.y.4.q * % 1 A nXNXR.P.` VXMXmXBXVXAXNXGXGX",
"#.4X4X4X#.;.+.9 8.DXLXyXcXaX:XN M B i * $ @ $ m oXtXC L.~.`.p.m qXN w.w.rX8.7.F 5.q O & & @ # $ w @ . 8 R.P.P.GXVXmXbXNXmXR.<.A ",
"#.4X+.+.4X4X%.4 =.R.&.aXvXV . @ # # # @ @ * @ X i =X:.p.Y.`.Y.N w.w.N 8.N 7.8.r.3.@ # # @ @ @ @ $ @ # @ % =.P.R.AXDXp.C 5.K E o ",
"+.+.$.Z A 6XZ ~ a.rX5XnXm # $ @ i u u u r w @ * @ @ A ` L.).H.q.Z N @Xw.q.0.0.5.& @ * @ $ # @ @ @ # $ $ @ @ *.' =.nXE.*.9 Y Y X ",
" .l @.q.0.6X2 A tX&X5X< i $ # $ @ @ t u u u u t r t @ & ` ].).I.Z F :XN 0.t.5.4 @ t # t e e r w # @ @ @ $ @ @ ( k.*.G *.` J : . ",
"2 l 8 A :.#.-.eXwX,XR % $ @ @ # $ # @ t u u f u f f $ @ 1 Y.Y.I.r.e.tXF 8.j.p.@ w r a a a a s a a e # @ @ % # 2 a.p.*.I.P.U +   ",
"O = 6 4 0 -.:XeXeX8XJ # $ @ i u f u h h f r u f f g i @ 1 L.r.I.q.e.w.Z q.j.5 w f s a e a e e s e a r t w t w & *.} ` a.' @   . ",
"_ 0 B 8 I _ F G N ;.z # i r f u m oXoXXXoXm h f u g u t p T.r.I.e.w.F e.s.5.& s d a s s a g g g g a a g g g g s ' !.8 ` k.' +   ",
"0.` _ R _ ) F tX:X-.2 # j h f m XXXXXXXXXX$X$XXXXXm j f OX*.T.mXmXyXe.yXY.y.e a }..X#X#X.X#X.X.X{.h {.{.g g }.}.:.!.z *.a.] x.) ",
"8 ( k.E K P >XwX7X_ z t j g j XX$X$XXX$X$X$X$X$X*X$Xj }.A T.G bXyXT.DXCXI.4.{..X#X%X#X#X#X#X%X#X#X%X%X}.g .X=X}.R.^.z P.p.@ ~ | ",
"/ U.*. .X.&.:X:XT o.C r j j XX$X$X$X$X$X$X$X$X&X&X&XoXS T.:.e e t D NXCXI.T.%X=X%X%X%X%X%X%X%X%X%X1X1XXX$XdXjX}.bX/.%.p.Y.CXZX^.",
"a.T.:XtXtXtXtX%.K _ X.f oX*X&X$X*X&X&X&X*X&X&X*XdXhXoXj R.T.e w w w T :.T.Y.1X1X2X1X1X1X1X1X1X1X1X1X1XfXfXfXhXXX:.R.=.a.g.T.nXSX",
"=.=.G e.T.:.T -.5Xo.2 m *XdX1XwX&X1X&X&XdXdX1XhXhXXX{.G nXS e t t e r *.!.h.Q.2X1XzX1XjX1X1XjX1XfXfXfXgXfXkXhX1XbXR.=.P.M.%   K ",
"L l b &.E %.A >X<X9X@X*XdXdXdXdXdXdX1XdXdXhXgXwXoXG P./.NXs e t r d w C !.!.V.U.,XfXfXkXfXkXfXkXkXhXzXgXkXkXzXlXVX^.*.%.b.M.n ; ",
"R K E Q Y %.&.-.-.7X,XdXdXgXgXgXgXfXhXhXgXdX*Xm A ` Y.AXNXp s t r a s e *.!.!.Z.Z.mXpXhXjXaXvXhXkXkXkXzXlXzXzXlXCX(.;.O.=.i.Y.z ",
"_ ;.ZX,XD E K , :X7X;XfXzXhXgXhXhXzXgXfX&X-X` u.d.a.P.W.NXS e y s g r e *.c.c.i.b.H.U.].Q.).'.].bXiXzXlXlXzXlXlX:.*.-.D O.C i.p.",
"< hXlXwX>X&.S +X+XtX>.:XgXxXlXlXxXgX=XG E._ k.f.b.b.a./.:.k j s j g s s S { =.=._ ^ a.G.g.`.H.b.V.C._.BXiXjXlXgX*.*.%.9 &...2 / ",
"E -.eXeXeXjXaXuXe.p.=.U 5X,XeX,X>X%.=.c.d.b.u.p.c.c.~.R.k }.j d d g d d s l _ 7XbX} ] T ` d.J.Y.K.F.V.C._.pXeXcX:.*.` 4 8 K = 7 ",
"7X,XwXdX&XF Q.vXL.~ =.!.R ) ;.*.' / P.].W.].U.' c.b.a.A }.{.h d j h j d }.y _ nX;X8X>.P.a.p.f.Z.z.J.J.F.C.T.D *.%.@.;.8 ( { ~ 5 ",
"wX*XM i 4 i.T.bXa.A p.*.X.@.=.`.Y.W.Y.L.T.R.^.(.!.~.*.h .X.Xh d j .Xj d |.s *.AX:.5X9XR.p.` h.V.i.p.L.p.d.u.) X.@.3X;X@.I { { ' ",
"i H ^ ( a.h.j.z.Q.e.u.a.x e Y.].R.HXY.l D c *.^.~.' R.-X}.oX|.|.|..Xj |.|.|.L.R.nX7X6X9X7X-.%.:.Y.*.-.x x C D  X3Xb b  X .; P ^ ",
"+ / u.j./ 5 u.{ ^ ( z.z.: z f.G.:.:.z b @.O.c 8 P.P.7XOX.X.Xk d |..X}.|.}.-Xc.!.^.SXZX5X Xb @. X:.A 3Xb *.D 3Xc b 3Xb -Xn J - : ",
"5 q 5.5   J J  .#. . .z ;XT.V.g.-.O.x z W o.c c >.Q.>X.X.X#XOXd |.XX.Xk }.k =.(.!./.JXSXSX5X5X5X-.D c b C @.3X Xn c b b < = J Y ",
"q y.q > : Y H V b @. X@XbXY.P.-X;X@.3XX.o.n x O.:.AXbX.X}..X-Xx oX#X;XOX}.-X` ' !.!.*.9XJX0X0X6X@.@.@. .O.x z :. Xv c c n l < J ",
"a._ : J J 5 ~ = i OXmXY.a.@.c b b @.-.b t p p l %.AX>.}.-X;X@.-X.X.X<X<X}.S a._ !.!.( & >X9X-.-.#.$.3X#.c p L.q.y n v b @. Xz % ",
"L J J Y   4 0.m uXE.P.;.;X,X;Xc c O.@.w 1 h.a.y -.P.R.7X-X#.o.S OX#X<XbXS T.~.[ { c.!.] ;.%.@ b 6X6X3X#.p M A V V b  Xz U b b -X",
"c.a.a.z.y.bXE.E.b.u.2 z ;X:Xn OX,X@.y f j 8 7 p &.,.GXAX) Y ..o.OX#XOXT.Q.~.c.Q ' x.' { k.P.L.# y p t A :.x e y L.%.c b Y !  .,X",
"K.H.h.G.B.Y.L.a.N.p.0 V y ~ >XxXjXp v k |.e w V =.<.<.! Y R I Q ..c T./.~.~.b.R ' c.} z ' Y.L.p u i f g v X.@.c / ( l d X.! = +X",
"2 .   @ z V 9 ' P.*.' %., >X<XbX' k k k |.g e P./.!.R L W W ^ W | u.'.`.a.c.n.Q { { ` z Y ` B f k t k y - H < ;XD / R b l ; ; 1 ",
"P < x b x % q ` &.=.] ( G <Xb P , p m j f C ' !.(.^.>.) _ } Q L a.H.K.b.} v.u.[ I _ V p R x a k u oXeX:Xm ; G wX,X;X..x b K U H ",
"@.@.b D 5 9 p C ` ( / :.5Xo., 1 > 1 OXg g !.(.!.P./.(.4.` | Q W u.G.A.d.v.x.u.{ U T S h X.@.h j +XhXdXhXZX;.cXgXhXeXbX*.O.R L J ",
"b @.c C 0.p V A P o m 5X%.( / ~ ` 6 v {.p c.(.!.!.>.1.4._ W Q Y a.A.b.u.A.z.} I ..U 2 m z W X.*XwXiXhXzX<XjXgXjXgXdXaX~. Xc o.X.",
"UXb b y i % A s.7 @X9X~.q 3 > + ~ , 7 }.:.x.} !.!.[ R _ W ^ u.U ( A.F.A.S.b.n.a._ W I b h ! ,.5X&.7XpXyXhXwXoX+XiXpX,XT.P.x #.6X",
"UXx p $ 4 > q 9 ,X5Xb.i.y.. 6 ) ~ 6 8 M =.] } ' ' R ! Q R W _ ( u.i.S.S.z.f.D.D.Z.| E o.m o.L K o.jXpXZXR.) , ) R R P 6 b.T.# UX",
"UXUXy 7 0 5.q.6X5Xa.V.G.u., ( ` 8 > 6 C *./ v._ R R Q Q P a.( P.Y.d.z.f.h.h.u.x.Z.k.E #.oXm * > G -.;X*XI ^ ' ] ] k.l._ a.b.UXUX",
"UXUXUX7 A E.0X0XP y.J.Z.6 O > > , > > %.%.u.] ^ ' ' I R ) m.b.&.=.f.i.a.d.z.( b.| %.5X-.@Xm 7 ' ~ ; S +X: : ` x.v.{ } { x.UXUXUX",
"UXUXUXUXUX0XSXX q A.A.y.. + 1 , P > 5 b %.k.' ' d.[ I [ Q b.A.' } f.n.c.z.z.c.F.(  .cX7XD M q ( _ ] =.m X 6 ( x.} I _ UXUXUXUXUX"
};
