/* XPM */
static char *_____________[] = {
/* columns rows colors chars-per-pixel */
"64 64 256 2",
"   c #020203",
".  c #040905",
"X  c #04050A",
"o  c #060A09",
"O  c #0B0C0C",
"+  c #090607",
"@  c #0C110E",
"#  c #031806",
"$  c #12130E",
"%  c #18130D",
"&  c #020312",
"*  c #0C0D15",
"=  c #0D0F1A",
"-  c #060A16",
";  c #100E12",
":  c #110F1C",
">  c #0D1213",
",  c #0E111C",
"<  c #091815",
"1  c #121413",
"2  c #141915",
"3  c #1B1A15",
"4  c #12131C",
"5  c #141C1A",
"6  c #1A1C1B",
"7  c #191617",
"8  c #110D0E",
"9  c #221D1D",
"0  c #16221C",
"q  c #1B221D",
"w  c #19291F",
"e  c #032A09",
"r  c #26251D",
"t  c #0E1221",
"y  c #111421",
"u  c #1C1C22",
"i  c #1A1C2D",
"p  c #151927",
"a  c #1C1E31",
"s  c #221D27",
"d  c #1C2422",
"f  c #1D2A25",
"g  c #1E2B2A",
"h  c #172626",
"j  c #1D2133",
"k  c #17332A",
"l  c #222424",
"z  c #2A2525",
"x  c #232B25",
"c  c #24262A",
"v  c #222D2A",
"b  c #2B2A2D",
"n  c #2B2728",
"m  c #332B29",
"M  c #25322D",
"N  c #29332E",
"B  c #293628",
"V  c #34362B",
"C  c #282936",
"Z  c #362B36",
"A  c #253332",
"S  c #2A3533",
"D  c #2B3B34",
"F  c #2C3C3B",
"G  c #273934",
"H  c #323D3B",
"J  c #383737",
"K  c #452935",
"L  c #443A38",
"P  c #493933",
"I  c #0E4631",
"U  c #2D423C",
"Y  c #2E4236",
"T  c #34433C",
"R  c #38483A",
"E  c #354C36",
"W  c #4A423D",
"Q  c #44473C",
"!  c #524A3F",
"~  c #3B3A42",
"^  c #2F3847",
"/  c #473A45",
"(  c #523846",
")  c #523D50",
"_  c #344442",
"`  c #364A41",
"'  c #3B4C44",
"]  c #3C4D4B",
"[  c #384846",
"{  c #3C5244",
"}  c #3B534A",
"|  c #3D5952",
" . c #314A4A",
".. c #2D6A54",
"X. c #4C434D",
"o. c #464947",
"O. c #564949",
"+. c #425343",
"@. c #42544B",
"#. c #44594D",
"$. c #465A4A",
"%. c #5C544C",
"&. c #56554B",
"*. c #4B4354",
"=. c #584956",
"-. c #455B54",
";. c #4A5D53",
":. c #4C5D5B",
">. c #435754",
",. c #575758",
"<. c #64544D",
"1. c #644B59",
"2. c #675858",
"3. c #735D5A",
"4. c #614D4F",
"5. c #4B6355",
"6. c #4D635B",
"7. c #48675A",
"8. c #536A5D",
"9. c #53665C",
"0. c #4B6B54",
"q. c #696259",
"w. c #74655E",
"e. c #5D4F61",
"r. c #565768",
"t. c #6C5C64",
"y. c #6C5C6B",
"u. c #685565",
"i. c #735B6C",
"p. c #775867",
"a. c #6D5E72",
"s. c #735D73",
"d. c #734B63",
"f. c #4B6664",
"g. c #546B63",
"h. c #576A64",
"j. c #4A7667",
"k. c #567163",
"l. c #597669",
"z. c #5B7A77",
"x. c #4F6F72",
"c. c #686368",
"v. c #786768",
"b. c #667A6C",
"n. c #7B6574",
"m. c #7B6A73",
"M. c #776576",
"N. c #797574",
"B. c #6C7270",
"V. c #835874",
"C. c #805B68",
"Z. c #83686A",
"A. c #85736C",
"S. c #87786D",
"D. c #836A74",
"F. c #846B7B",
"G. c #8B6D7B",
"H. c #886877",
"J. c #8C727C",
"K. c #897376",
"L. c #92747C",
"P. c #937779",
"I. c #926E78",
"U. c #588677",
"Y. c #688778",
"T. c #728A7B",
"R. c #6A8974",
"E. c #517482",
"W. c #7E6680",
"Q. c #846C83",
"!. c #8A6C82",
"~. c #966C88",
"^. c #8C7483",
"/. c #8A7585",
"(. c #937383",
"). c #937A85",
"_. c #9B7C84",
"`. c #94758A",
"'. c #947B8B",
"]. c #9B7C8B",
"[. c #9B7587",
"{. c #9A7B92",
"}. c #977D93",
"|. c #A17E89",
" X c #A27E92",
".X c #A27E9A",
"XX c #5C8397",
"oX c #678886",
"OX c #728D87",
"+X c #789788",
"@X c #668B99",
"#X c #769998",
"$X c #689489",
"%X c #7BA598",
"&X c #789CA8",
"*X c #6F9AAF",
"=X c #78A3AE",
"-X c #78A7CC",
";X c #9A8189",
":X c #849C89",
">X c #9B8498",
",X c #889396",
"<X c #A3818E",
"1X c #A38494",
"2X c #A4859A",
"3X c #A8889B",
"4X c #83A393",
"5X c #8BAC9A",
"6X c #88A797",
"7X c #94A99A",
"8X c #8DB19D",
"9X c #8EAD98",
"0X c #A98AA4",
"qX c #AC93A7",
"wX c #B296AB",
"eX c #B29BB4",
"rX c #B28BA6",
"tX c #87ABA2",
"yX c #8AB4A8",
"uX c #9AB6A4",
"iX c #98B6A6",
"pX c #96B0A9",
"aX c #A5BCAB",
"sX c #A9B3B1",
"dX c #9DC6B6",
"fX c #A8C8B7",
"gX c #B3CDBC",
"hX c #89B7D3",
"jX c #A3B0D5",
"kX c #BACCC5",
"lX c #B9D9C7",
"zX c #AED4C7",
"xX c #BDE6D5",
"cX c #96C5EB",
"vX c #A9D7F8",
"bX c #BAE7FC",
"nX c #98CBDC",
"mX c #C5D7CC",
"MX c #CED9D1",
"NX c #C5E3CF",
"BX c #C9E5D5",
"VX c #D5E4DA",
"CX c #D3F0DE",
"ZX c #DCF3E7",
"AX c #C2EDFC",
"SX c #D6F6FE",
"DX c #D3EBE9",
"FX c #E2EDE6",
"GX c #EAF4ED",
"HX c #E5F7EB",
"JX c #ECFCF4",
"KX c #ECF5F6",
"LX c #F3FCF5",
"PX c #F6FEFB",
"IX c #FDFEFE",
"UX c #F4FAF4",
/* pixels */
"M M g g g g h 0 0 5 2 > O >   T :.v X O + + o o + + . . + . o + + + . o . o + @ # +.aXDXJXLXIXIXIXIXPXGXVXgXuXR.Y 0 f B D R @.#.",
"M g g h 5 5 1 > O O O o O O   ^ :.A   O o X X X + o + o O o X o o o . @ @ @ 1 2 0 h.lXJXLXLXFXMXgX7XR.$.# .   M +.5.8.8.g.k.h.8.",
"d p 2 < > O O o O O O @ O >   T :.S . O o . o o o o O @ > > > 1 1 2 1 2 < > > > 5 0 8.4X:Xb.E #     o T -.8.k.k.8.g.8.5.+.' R B ",
"O o o o o @ O O @ O @ @ @ @   H :.F X * O O * O @ O @ 7 q q 6 4 2 2 2 > 1 > 2 2 2 2         q F H _ ` #.5.#.} ' R V M q q 5 0 u ",
"5 O @ O > > @ > > > @ < @ > o T f.^ < 2 5 2 5 5 2 2 6 q l 6 7 5 4 7 7 2 2 5 u v x v M D Y G D F D M v v v f d 0 d f f M v v M N ",
"  o > O @ > 2 2 2 2 > 2 2 5 < _ f.] d f f f f q 0 x x 1 1 1 1 1 : : * > 1 ; 4 6 d f M M k M M v x d 0 d h d f g M M v M v v v v ",
"l.< @ 2 < 5 0 h q d d d g g g ] h.] k k k h k G D x q 1 1 1 1 1 $ 1 ; ; 8 O ; ; 4 6 d c f f x d f d f h d g f c g f f 0 d 0 5 q ",
"NXU.# 0 5 0 f v M M G G G G G | x.7.| 8.z.Y.+XoXD 1 $ 1 1 7 ; > 4 1 4 ; 1 * 7 6 7 6 6 l f f d w d d h f f f f d d 6 5 5 4 7 7 4 ",
"fX7.h h k G G F _ _ } | 7.j.U.U.U.pXdXdXzXzXdX;.  3 % 8 1 2 1 8 ; 1 7 : u u u p 5 u 1 7 l v v f f w 0 6 d 0 q 5 5 1 1 1 1 1 $ $ ",
"G k G _ `  .| f.U.$X%XyXdXxXxXzX%XzXxXlXxXdX;.  q 1 1 ; 1 6 1 1 4 6 7 7 6 c 6 7 ; ; 1 8 3 N J M f 6 2 2 1 1 1 > 1 1 1 1 1 @ @ 1 ",
"# < k I ..$XyXzXxXDXDXKXPXIXIXPXzXtXdXtX%X8.  q $ % 9 % 6 6 7 7 9 s u u 9 ; O 5 u z 9 + $ l T Y x 5 1 1 > 1 5 1 1 1 1 1 1 8 1 1 ",
"k.+XpXkXVXGXUXPXPXIXIXIXIXIXIXPXCXx.l.6.H   q % % r V m r z r r 9 s n n Z =.u.1.1.1.O.J 8 $ V H M 2 1 1 > 1 1 1 1 1 1 > 1 1 @ > ",
"KXIXIXIXIXIXIXIXIXIXIXIXIXIXGXFXpXx.x.f.v 6 2 3 W 2.<.q.3.<.<.<.4.=.2.v.m.).(.(.G.G.n.u.J   f D v 5 > 1 1 5 5 2 2 1 1 1 1 1 1 1 ",
"IXIXIXIXIXIXIXUXGXVXmXzX5X$XU.j.j.6XiXb.  x 3 Q w.A.Z.A.S.P.P._._.|.;X1X1X1X_.[.L.(.G.M.2.z 6 J v 6 > @ 5 d d q q 6 5 2 1 1 $ 1 ",
"LXGXFXMXgXpX6XT.j...I I +XgXBXVXMXPXPXB.  N r &.w.Z.A.A.P.;X_._.|.3X3XqXqX3X1X<X1X[.'.F.y./ O r x q 2 > d b A M v f d 6 5 2 2 1 ",
"Y.j.I I I I I  .} #._ aXPXIXIXIXIXIXUX&.  m P q.S.S.S.S.P.P._.|.1X3XwXeXeXeX0X3X2X2X2X;Xn.=.3 1 6 2 @ 1 d S F G S S A v f d 6 6 ",
"k  .' ] } } ` _ U Y # fXPXIXIXIXGXPXFXq 3 n V q.S.S.S.P.P.P._._.<XqXwXeXeXeXqX0X2X1X>X}.F.2.n 1 1 1 @ 5 d A S A S S G G M A v l ",
"F F U F F F _ D G D G -.fXVXmXkX,XOXT.2 l l V &.w.v.S.S.P.P.P._._.<X3XrXwXqX2X{.].1X}.`./.y.n 1 3 6 6 5 d f f v v M b S ^ ] ^ g ",
"U ` D A h G _ U F D f         k l.>.x x 6 l m O.<.w.A.K.S.P._._.<X3XwXwXqX0X0X>X2X2X;X'.Q.y.s 7 1 1 0 0 w f x x f x N S ] :.>.G ",
"T.OXY.j.U.%XyX%XoXU.j.Y.+X:X5.{ b.f.T q 1 7 9 V ! q.Z.S.P.;X;X3X3XwXeXjXeXeX0X.X2XqXqX>XJ.u.6 s @.' J b b b B b v f c A ^ :.@.S ",
"tXaXgXlXBXDXZXHXGXGXKXPXIXPXZX+Xg.6.D q 1 9 % W q.q.v.A.v.i.u.a.m.Q.}.0XqX0X.XQ.W.Q.Q./.m.u.. h.9XT.R           > v d x D H M f ",
"KXPXIXIXIXIXIXIXIXIXIXIXIXIXLXmX6.6.T x 3 3 V q.w.%.Q V b Z u & 8 m u./.0X.XW.^ c , i C ~ /   mXJXVXmXsX7X:XT.B.$.. M M M N x l ",
"IXIXIXIXIXIXIXIXIXIXIXIXIXIXHX9X8.:.&.W @ $ Q w.q.L Z L J ^ ~ / L K ( '.qX2Xd.Z C ^ Z / *.J c FXIXIXIXIXIXIXIXUXHX,Xr ' T Y N M ",
"IXIXIXIXIXIXIXIXIXIXIXIXCXuXR.$.h.9.%.P n . &.v.<.O.O.Z / Z *.,Xa.=.O.J.qX>Xa.a.r.t r.*.Z X.o.GXIXIXIXIXIXIXIXIXIXNXe e # . N M ",
"IXIXIXIXIXIXIXIXIXIXIXIXUXuXE k.h.c.w.w.! % 3.w.w.A.Z.3.2.2.s.V.s.p.3.I.<X XD.s.s.e.a.y.u.c.,.sXmXHXUXIXIXIXIXIXIXGXMXMXMX9Xw D ",
"IXIXIXIXIXIXIXIXIXIXIXIXUXfX0.8.h.c.K.w.m r 3.Z.Z.A.P.P.I.I.G.H.H.Z.C.I.|.].(.!.~.H.s.!.^.F.o.B.MXLXIXIXIXIXLXIXIXIXIXIXIXGXk.w ",
"JXJXLXIXIXIXIXPXLXHXVXVXfXR.%X+XT.,.I.3.! P q.v.Z.Z.P._. X<X|.|.I.Z.Z.I. X.X`.{. X|.[.[.[.n.X.pXJXPXPXIXIXIXIXIXIXIXIXIXIXLXaXaX",
"PXIXIXIXIXIXIXIXJXNXY.0.I %X6X9X+X,.v.Z.<.W &.v.Z.A.P.<X1X1X X XI.C.Z.|.rX3X`.{..X3X.X0X{.n.h.N.mXJXKXGXFXUXIXIXIXIXIXIXIXJXlXCX",
"IXIXIXIXIXIXIXIXIXPXJXZXzXiX8X9X+X;.q.;XS.W W 2.v.A.L.|.1X1X|.~.Z.I.H.].rXrX{.`.{..X0XrX'.M.,.o.R k.k.5.E xXLXIXIXIXIXIXPXIXmXuX",
"UXPXPXPXIXIXIXIXIXIXIXLXZXdX+X6XT.#.5.N.A.P L &.w.Z.K._. X|.[.I.1.1.K d.[.~.d.!.`.~. X.X'.y.o.5 f     l . sXPXIXIXIXIXIXIXLXHXlX",
"bXSXKXPXIXIXIXIXIXIXIXIXZX8Xk Q 5.;.R Q o.L R W 2.t.Z.^.|.[._.).C.4.( m e.s.u.!.[.(.(.{.Q.=.J f M N D T   7XLXIXIXIXIXIXIXUXJXHX",
"bXSXKXPXIXIXIXIXIXIXLXZXgXR.E 0.6.;.Q Q Q $.L J &.%.3.F._.(.i.u.) =.=.*.) =.=.e.M./.'./.y.~ d v M _ >.>.U 7XJXPXIXIXIXIXUXBXlXCX",
"AXSXSXSXSXSXDXDXxXlXgXuXT.$.$.$.5.9.0.$.$.Q E P O.=.<.N.F.=./ ) 1.d.d.!.d.d.d.s.=.y.'./.,.C v g F f.E.oXx.OXBXZXKXGXGXFXNXdXuXfX",
"bXAXAXbXvXnXhXyX%X%XT.T.R.5.$.#.5.9.0.$.! Q Q V W %.O.m.v.=.( K K P ( d.s.d.( ( =.e./.W.~ v x h _ x.#X&XOXoXOX6X5X5X7X8XuXuXuX6X",
"bXbXAXbXnXhX*X=X%X%X4XT.R.Q { { ;.5.$.$.E Q Q B J o.=.c.v.!.I.C.C.C.V.d.!.s.d.d.n.M./.u.b c f g  .W.&X&X&XOXOX4X5X5XiXuXuXuXuX7X",
"bXbXAXvXnX-X=X*X%X%X4XT.U.E R { ;.:.$.$.E Q ! m 3 N o.2.F.].).L.~.~.~.~.~.~.~.~.}.'.M.~ c v c f  .E.E.@XE.z.OX:X6X6X8X8XuXuX7X9X",
"vXbXbXvXcX-X*X@X%X%X%XT.g.R U R ;.;.+.{ Q Q ! W 3 r x / ,.M.).J.H.s.e.a.W.W.Q.~.;XQ.*.c c f d f A  .:.f.>.f.Y.+X:X:X4X6X4X6X4X:X",
"cXvXvXcXhX*X*X*X%XtX#XoX7.E Y { #.;.$.+.E V <.! m 3 7 n / X.m.(.!.s.) ) d.Q.~.Q.a.,.c f c f v A A A A A j  .8.b.R.R.T.OXT.T.T.T.",
"-XcXcXhX*X*X=XtXyXyX4XY.5.Y D R #.;.+.R E m %.<.P r 3 $ n J *.u.i.s.Q.Q.W.s.W.W.) Z J J h S T ] [ _ D F ` ' #.5.$.5.h.h.h.h.8.k.",
"E.XX@XXX@X#X%X5XyXyX+Xl.{ D M T @.;.R V B B <.3.O.m 9 3 @ u b / e.s.Q.W.s.a.*.*.i / ,.J v F ` ] } [ T ] -.;.] ` U U ] :.+.T T +.",
"f. .{ 5.U.Y.+X+X+XT.U.7.} R ' R o.+.R V r B <.3.3.O.z 9 % $ 1 9 ~ *.*./ *.*.~ - ) M.1.b c S ^ _ T F D ] :.>.[ _ T D ;.h.o.N v S ",
"z.f.#.;.8.l.k.8.;.{ Y E } 7.5.>.@.` B x r 3 ! 3.v.v.O.m 9 2 8 + o 7 u u s i : ) m.c.,.b l l q 0 5 5 5 v F G v v f M ;.h.' 1 > 1 ",
"T.7.T Y ` T G w 0 5 q T 6.l.l.7.>.T B x q % <.3.v.A.v.%.L m 9 7 7 ; 6 u n Z X.M.F.v.=.z d q 2 1 1 4 1 > O * ; ; > 2 ' ;.J 2 1 5 ",
"h.} f 0 q q q 2 5 2 0 U 8.z.l.-.@._ f q @ % ! 3.p.n.D.n.2.=.O.O.) ) =.=.=.1.y.F.F.p.=.% l d 0 4 7 7 1 1 1 > > 1 > < N J f 7 4 4 ",
"R B w 2 2 $ 2 2 2 < 0 U 7.g.x.| ] F h - @ 7 W 3.w.Z.G.H.Z.p.u.i.i.s.s.s.s.i.n.!.F.i.O.  u u 6 4 5 5 , 1 1 1 4 ; : 1 7 7 1 > 1 2 ",
"N w 3 $ 2 2 2 $ 2 @ 0 U | g.f. .h , - O 1 o P 3.p.Z.G.L.D.n.n.n.n.Q.Q.Q.n.n.J.^.D.p./ X ; : : 6 d u ; o O O O ; * > * 1 ; 1 > * ",
"q 0 2 $ 2 $ $ $ 2 2 h T :.:._ , & , = = * X z %.p.Z.J.^.^.F.F.F.^.(.`.^.F.F.(.J.D.t.Z   ; O - * u A F D N M v u > ; 1 O * $ * 1 ",
"q 3 0 $ $ $ $ 1 @ < v ^ U p & 4 , > = = * * X L 2.2.A.P.).J.F.N.F.F.Q.Q.!.^.^.F.n.=.+ O * - * O * 4 A @.g.h.6.D O @ * O @ * * ; ",
"3 q q r 0 2 2 2 2 6 j p - t p 5 , , , - , > *   X.t.v.K.;X/./.K.Q./.F.^.(.).J.F.i.n   * * O O * : = & & F h.h.F + o O 8 O * O * ",
"5 f w B B G B f h p y y y y t t , - < > , - > - X X.v.m.K.;X;X/.^.^./.).'.'.F.i.Z   : * O * * * - = 4 4   . 7 u * * O o O O O O ",
"5 x R #.} D j p t y y t t t , , , , > , , = - > 8   X.m./.).'./.^.F./././.`.F./ + ; O O - - * = * * * * 4 4 - - > , > * ; O O O ",
"f A H F j t t y y y y y 4 , , , = , < - < > , , * :   J t.J.}.}./././.`././.X.  4 ; * O * O * * O * O * > - , = = > = , * ; * * ",
"d p - - t t y 5 y < t , 4 , , , , , < , > , , , : * 4   X C ) y.M.M.M.m.y.X.  4 - * - * = = - , = * * - O * = , > , = = = = - * ",
"y t p y p t y y y t t t , t , , , - = , = , , , = 4 * 4 = & X & & t p -   X ; ; * 1 * = = = , * = - * * * * O * * * - = , = * * ",
"y y y y t t y t t y , , , , , , , , > , , , , , , 4 t : = y 4 i a a p y p 5 = 1 , - , , t = = = - > * * * * - * * = = * - = * ; ",
"t y t 4 t , , 4 y y , t < , , , = = , , , , , y , , , , , = i i j j p a j p = , , , , , > * = , 4 * = * * * * - - * * = > - = * ",
"y y y t , t y : t , 4 , = = , = , = t , t , t , t t t t t : y a a ~ ^ p a t t t y = = t = = = = , - , - = * * * 4 * * * = * * * ",
"y y y 4 t = = t , t , , = t y = = = , t , t 4 , : : : : : t y j i ^ ^ a i - t t 4 , = = = t t = > = > = * * * * * : * * * * * * ",
"y y y y y = = y t t 4 , = = , = t : = = , 4 , , t : : t t t : a a ^ a a i t : - : , = , : = t = , = = - = * = = * * ; = * ; * : ",
"4 , , y t = = t y 4 y 4 = = t = = = y y y y y 4 t = t : : t t a i a a a i t t t y = y = = t : = , - = - = = > * ; = * * * * ; : ",
", 4 , t t = = : y t : t y = = t = y , t y y y , t 4 t : : y t a i a a i y : : : t = = , : t = y > = , - , = * * : : : : * * * * ",
"- 4 , , y 4 t y t y = = = = = = = y y y , y , , t : y = y y t a p a a a i : : t y = t : t y = = , = > , ; : = * : * * * : * * : ",
"- , , - = t : y : 4 : t = = = t : t t y y y y t = y y t : : y a i i i a p t t t t : = 4 : t = = = = , = : * * : * * : * : : : * ",
"4 - , > = : y : y y t = t = = = = t y y y y = y y y = : : y y i i j a a i t : : = t = , , : y = = 4 = : = : : : * = : * * * : : "
};
