/* XPM */
static char *_____________[] = {
/* columns rows colors chars-per-pixel */
"64 64 120 2",
"   c #020300",
".  c #0C0102",
"X  c #020B01",
"o  c #0A0B02",
"O  c #00050B",
"+  c #0E050A",
"@  c #140000",
"#  c #190300",
"$  c #160B07",
"%  c #1F0E07",
"&  c #13000A",
"*  c #060011",
"=  c #0A0315",
"-  c #130810",
";  c #240000",
":  c #280000",
">  c #320000",
",  c #7B3C32",
"<  c #7F3238",
"1  c #842E2D",
"2  c #8C2D2D",
"3  c #902628",
"4  c #922E2B",
"5  c #982B2D",
"6  c #8A3427",
"7  c #86372A",
"8  c #8D342D",
"9  c #8D3B2D",
"0  c #93342C",
"q  c #903D2E",
"w  c #983C2F",
"e  c #8B2432",
"r  c #8F2A30",
"t  c #942E33",
"y  c #843731",
"u  c #8E3735",
"i  c #863A34",
"p  c #8D3A33",
"a  c #833239",
"s  c #893739",
"d  c #86393C",
"f  c #923434",
"g  c #9A3433",
"h  c #923B32",
"j  c #9B3D33",
"k  c #953638",
"l  c #99303E",
"z  c #933E3B",
"x  c #9A3D3E",
"c  c #A43432",
"v  c #A03930",
"b  c #A13F3E",
"n  c #97402D",
"m  c #854433",
"M  c #8B4134",
"N  c #824439",
"B  c #8D423A",
"V  c #944135",
"C  c #9A4236",
"Z  c #92453C",
"A  c #9E4139",
"S  c #914B3E",
"D  c #984C3F",
"F  c #883D44",
"G  c #9F3F43",
"H  c #A53E42",
"J  c #864C40",
"K  c #8C4D46",
"L  c #86424F",
"P  c #864B4A",
"I  c #894B4C",
"U  c #914741",
"Y  c #9E4444",
"T  c #974D45",
"R  c #994C45",
"E  c #91464B",
"W  c #944E4F",
"Q  c #9F4E4A",
"!  c #855446",
"~  c #8D5146",
"^  c #8F5B46",
"/  c #85544F",
"(  c #8B554A",
")  c #8C594C",
"_  c #9C5247",
"`  c #92524C",
"'  c #9B564F",
"]  c #915B4B",
"[  c #9B594A",
"{  c #874A52",
"}  c #8F4E56",
"|  c #8D4F5E",
" . c #934650",
".. c #944E51",
"X. c #9B4D52",
"o. c #9C4C59",
"O. c #805255",
"+. c #8D5256",
"@. c #875B52",
"#. c #885C53",
"$. c #855458",
"%. c #8B5759",
"&. c #86585B",
"*. c #8E595D",
"=. c #945353",
"-. c #995453",
";. c #955857",
":. c #94575D",
">. c #955A5C",
",. c #995959",
"<. c #A04646",
"1. c #A14B41",
"2. c #A24948",
"3. c #A2534F",
"4. c #A15153",
"5. c #8F6058",
"6. c #835A62",
"7. c #935F61",
"8. c #A14E60",
"9. c #826561",
/* pixels */
"Q W 2.` ] ( %.  Q ` 4.` ] ( &.  _ =.X.W ] ( %.  2.` 4.` ] ) #.  Q ( X.` ] ( &.  _ =.4.` ) ) %.  2.` 4.W ] ) #.  4.' 4.` [ ( %.  ",
"h K Y Y h Z ` @ h K G Y h S W . h U <.Y n B W . h K H Y p Z W @ h U H <.h S W . h U G Y 9 Z ... h K A Y p Z W @ 7 B G Z p B =.@ ",
"7 y r k 0 h s # 7 y 3 k 0 h s # 7 y t k 0 h s # 7 y 2 k g h s # 7 y r k 0 q s # 7 y t k 0 h s # 7 y r k g h s # 7 s t k 4 0 s # ",
"    -   . . + O     -   @ . & O     &   . . + O     &   . . . O     -   @ . & O     &   $   &       -   . . . O     -   .   & O ",
"-.I $.# #.( ..:.' I $.# @.( ..:.' I $.# #.( W :.-.I $.# #.( ..:.-.I &.# #.( ..:.-.I $.# #.( W :.-.I $.# #.( ..:.-.P O.# 5.) =.:.",
"j <.,.@ N M h Y j <.,.@ N M h Y j <.,.@ N p h Y j <.,.@ N M h Y j <.,.@ N M h Y j <.,.@ N M h Y j <.,.@ N M h Y C R ;.@ N S j Z ",
"0 t a : 1 8 q 8 0 f a : 1 0 f 8 8 t a : 1 9 h 8 0 f a : 1 0 p 8 0 f a : 7 0 f 8 0 t a : 1 0 p 8 0 t a : 1 8 h 8 6 f < : s C Z u ",
"  . * O & .       . * O &   X     . * O & .       . * O & .   X   . * O &         . * O &         . * O & .       . * O &   X   ",
"2.` X.` ) ( %.  Q ` 4.W ) ! %.  2.` -.W ] ( %.  _ ` -.` ] ( %.  Q ` 4.` ] ) #.  2.` -.` ] ) #.  2.` X.` ) ( %.  Q ` 4.` ] ( &.  ",
"p K H Y V Z W . p U Y Y h S ` @ h U <.<.n B W . h B H Y h Z W . p Z G Y p Z W . h U H <.p Z W @ p K H Y V Z W . p U Y Y h S W . ",
"7 y 4 k 0 h s # 7 y t k 0 h s # 7 y r k 0 h s # 7 y t k 0 h s # 7 y r k g h s # 7 y 2 k g h s # 7 y 4 k 0 h s # 7 y t k 0 q s # ",
"    -   . . & O     &   @ . + O     -   . . + O     -   . . & O     -   . . . O     -   . . . O     -   . . & O     &   @ . & O ",
"' I &.# #.( W :.-.I $.# #.( ..:.' I $.# #.( W :.-.I &.# #.( W :.-.I $.# #.( ..:.-.I $.# #.( ..:.' I &.# #.( W :.-.I &.# #.( ..:.",
"j <.,.# N M h <.j 2.,.@ N M h Y j <.,.@ N M h Y j <.,.# N p h <.j <.,.@ N M h Y j <.,.@ N M h Y j <.,.# N M h <.j <.,.@ N M h Y ",
"0 t a : 1 0 u 8 0 f a : 7 0 f 8 8 t a : 1 0 p 8 0 t a : 1 q f 8 0 t a : 1 8 h 8 0 t a : 1 8 h 8 0 t a : 1 0 u 8 0 f a : 7 0 f 8 ",
"  . * O &         . * O &         . * O & .       . * O &         . * O & .       . * O & .       . * O &         . * O &       ",
"Q ` 4.W ) ! %.  _ =.-.` ] ( %.  2.` -.W ] ( %.  _ =.4.` ) ) %.  Q ` 4.` ] ( %.  Q ` -.` ] ( %.  Q ` -.` ] ) #.  2.` -.` ] ( %.  ",
"p U Y Y h S ` @ h U H Y V B W . h U Y Y h S W . h U G Y 9 Z ... p Z Y Y h Z W . p U H Y p Z W . p Z H <.p Z W . h U Y Y h Z ` . ",
"7 y t k 0 h s # 7 y t k 0 h s # 7 y t k g h s # 7 y t k 0 h s # 7 y r k 0 h s # 7 y r k 0 h s # 7 y r k g h s # 7 y t k 0 h s # ",
"    &   @ . + O     &   . . + O     &   @   & O     &   $   &       -   . . & O     &   $ . & O     -   . . . O     &   @ . & O ",
"-.I $.# #.( ..:.-.I $.# #.( W :.' I $.# @.( W :.-.I $.# #.( W :.' I &.# #.( ..:.' I &.# #.( W :.-.I $.# #.( ..:.' I $.# @.( ..:.",
"j 2.,.@ N M h Y j <.,.@ N M h Y j <.,.@ N M h Y j <.,.@ N M h Y j <.,.# N M h <.j <.,.@ N M h <.j <.,.@ N M h Y j <.,.@ N M h Y ",
"0 f a : 7 0 f 8 0 t a : 1 0 h 8 0 f a : 1 q f 8 0 t a : 1 0 p 8 0 t a : 1 6 p 8 0 t a : 1 0 f 8 0 t a : 1 8 h 8 0 f a : 1 0 f 8 ",
"  . * O &         . * O &         . * O &         . * O &         . * O & .       . * O &   X     . * O & .       . * O &   X   ",
"Y ` 4.` ) ( *.  Q ` 4.` ] ) #.  2.` 4.` ] ) #.  2.` -.` ] ) #.  Q ` 4.W ) ! %.  2.` -.W ] ( %.  2.` X.` ) ( %.  Q ` 4.W ) ( #.  ",
"p U <.Y h S ` @ p S G Y p Z W . p U Y Y p Z W . h U H <.p Z W @ p U Y Y h S ` @ h U <.<.n B W . p K H Y V Z W . p U Y Y h S W . ",
"7 y 2 x h f a # 7 y r k g h s # 7 y 4 k g h s # 7 y 2 k g h s # 7 y t k 0 h s # 7 y r k 0 h s # 7 y 4 k 0 h s # 7 y t k 0 h s # ",
"    &   @ . . O     -   . . . O     -   . . . O     -   . . . O     &   @ . + O     -   . . + O     -   . . & O     &   @ . & O ",
"-.I &.# #.` ..:.' I $.# #.( ..:.-.I $.# #.( ..:.-.I $.# #.( ..:.-.I $.# #.( ..:.' I $.# #.( W :.' I &.# #.( W :.' I $.# @.( ..:.",
"j 2.,.@ N B h Y j <.,.@ N M h Y j <.,.@ N M h Y j <.,.@ N M h Y j 2.,.@ N M h Y j <.,.@ N M h Y j <.,.# N M h <.j <.,.@ N M h Y ",
"0 t a : 1 0 h 8 0 t a : 1 8 h 8 0 t a : 1 8 h 8 0 t a : 1 8 h 8 0 f a : 7 0 f 8 8 t a : 1 0 p 8 0 t a : 1 0 u 8 0 f a : 1 0 f 8 ",
"  . O O &         . * O & .       . * O & .       . * O & .       . * O &         . * O & .       . * O &         . * O &   X   ",
"2.-.4.K ] ! 7.  _ ` -.` ] ( %.  2.( -.` ^ ( %.  _ ` -.` ] ( %.  Q ` 4.W ) ( %.  _ =.4.` ) ) %.  2.` 4.W ] ) #.  Q ( -.W ] ( &.  ",
"0 Z t G p D -.@ h B H Y h Z W . h U H Y h Z W . h B H Y h Z ... p U G Y h S W . h U G Y 9 Z ... h K A Y p Z W @ h U G Y h S W @ ",
"p y t f g 8 s # 7 y t k 0 h s # 7 i r k g h s # 7 i t k 0 h s # 7 y 4 k g h s # 7 y t k 0 h s # 7 y r k g h s # 7 y t k 0 h s # ",
"  o +   . . & O     -   . . & O     &   $   & O     -   . . . O     -   . . . O     &   $   &       -   . . . O     &   & . . O ",
"-.P $.@ @.~ X.} -.I &.# #.( W :.-.I $.# #.( W :.-.I $.# @.( W :.' I $.# #.( W :.-.I $.# #.( W :.-.I $.# #.( ..:.-.I $.# #.( W :.",
"9 Q ;.@ , D h <.j <.,.# N p h <.j <.,.@ N M h <.j <.,.# N M j Y j 2.,.@ N M h <.j <.,.@ N M h Y j <.,.@ N M h Y j 2.,.@ N M h <.",
"q s E : y 2 0 2 0 t a : 1 q f 8 8 g a : 1 0 u 8 0 t a : 1 8 p 8 6 g a : 1 0 0 8 0 t a : 1 0 h 8 0 t a : 1 8 h 8 0 f a : 7 0 0 8 ",
"    = O & .       . * O &         . * O &         . * O & .       . * O &         . * O &         . * O & .       . * O &       ",
"Q ` 4.W ) ! %.  2.` 4.` ] ( &.  Q ` X.` ] ( %.  Q -.X.W ] ! %.  Q ` -.` ] ) #.  2.` -.` ] ) #.  Q W -.` ] ( %.  Q ` 4.W ) ( %.  ",
"p U G Y h S ` @ h U Y Y p S ..@ p U Y Y h S W . 8 R x <.9 S -.. u U H <.p Z W . h U H <.p Z W . q K H Y p Z W . p U G Y h S W . ",
"7 p 2 k f h s # 7 y r k 0 g i # 7 y 4 l g h s # 2 8 t u j q U @ 7 y r k g h s # 7 y 2 k g h s # 7 7 r k 0 h s # 7 y 4 k g h s # ",
"    -   @ . . O     -   $   . O     -   @   & O   . &     . + O     -   . . . O     -   . . . O     &   $ . & O     -   . . . O ",
"-.I $.# #.( ..:.' I $.# #.( W :.-.I $.# @.( W :.-.P &.@ >.K X.:.-.I $.# #.( ..:.-.I $.# #.( ..:.-.I $.# #.( W :.' I $.# #.( W :.",
"j 2.,.@ N M h <.j <.,.@ N p h Y j 2.,.@ N M h <.9 R ;.@ , Z 0 b j <.,.@ N M h Y j <.,.@ N M h Y j <.,.@ N M h <.j 2.,.@ N M h <.",
"0 f a : 7 0 f 8 8 t a : 1 q p 8 0 f a : 7 0 f 8 8 2 d ; 7 0 g 2 0 t a : 1 8 h 8 0 t a : 1 8 h 8 0 t a : 1 8 f y 6 g a : 1 0 0 8 ",
"  . * O &         . * O & .       . * O &         . = O &         . * O & .       . * O & .       . * O & .       . * O &       ",
"Q ` -.W ] ) #.  2.` -.` ] ( %.  2.` -.W ^ ( %.  2.` -.` ] ) #.  2.` X.` ) ( %.  Q ` 4.` ] ( &.  Q ` -.` ] ( %.  4.-.-.` [ ( %.  ",
"p Z H <.p Z W . h U H Y h Z ` . h U <.<.p Z W . h U H <.p Z W . p K H Y V Z W . h U Y Y h Z W @ h U H <.h Z ` @ 7 B x Y p B =.@ ",
"7 y 2 k g h s # 7 y t h g h s # 7 y r k 0 h s # 7 y r k g h s # 7 y 4 k 0 h s # 7 y r k 0 h s # 7 y 2 k 0 h s # 7 p t k 4 8 s # ",
"    -   . . . O     & O @   & O     -   $   &       -   . . . O     -   . . & O     -   . . . O     -   . . + O     -   . . . O ",
"' I $.# #.( ..:.-.I $.# @.( W :.' I $.# #.~ W :.' I $.# #.( ..:.' I &.# #.( ..:.' I $.# @.( W :.-.I $.# #.( ..:.' P O.# 5.) =.:.",
"j <.,.@ N M h Y j 2.,.@ N M h <.j <.,.@ N M h Y j <.,.@ N M h Y j <.,.# N M h <.j <.,.@ N M h <.j <.,.@ N M h Y C R >.@ N S j Z ",
"0 t a : 1 8 h 8 0 f a : 7 0 f 8 0 t a : 1 f p 8 0 t a : 1 8 h 8 0 t a : 1 6 p 8 0 t a : 1 9 f y 0 t a : 1 8 q 8 8 t < : s C Z h ",
"  . * O & .       . * O &         . * O &     X   . * O & .       . * O & .       . * O & .   X   . * O & .       . * O &   X   ",
"T ' ,.T ^ _ ;.  Q =.^ [ _ ` 9.  _ ) 4.T ) _ :.  Q ' ^ [ Q K 9.  R ] ,.R ] _ ;.  Q -.] [ _ ~ 5.  3.] 1.' ~ =.>.  X.' ^ [ _ ~ 9.  ",
"6 B Z B m 1.X.  k B M V C Z ( @ 8 B Z V M 1.Q   s B M V C U @.. 8 B z V m 1.Q   k M M V C Z O.@ f M A 9 S R X.  s B M V C D O.@ ",
"5 k l z 2 3 r ; t s k 4 5 r < > 5 t G z 8 3 r ; l f h 4 5 t a > 5 k l z 2 2 e ; l s u 4 5 t a > f 2 g 2 U e e : t k u 4 5 r a > ",
".   o X o . . X         .   o X .     X o   . X         @   o   .   X X o . . X         . . X   o     o X . & X         @   o X ",
"` ..| $ I ..o.6.:.+.:.:.o. .:.*.Q } | $ I ..o.6.:.} %.=.o.E ;.*.` } | $ I W o.6.:.} %.=.o.E :.*.;.=.| { % L 8.$.:.+.:.=.o.E :.*.",
"C R o.  z Z x U Z z Z V G x Z z C E -.  z Z b E U Z U x x x U z C E X.. z Z b U U U U x x G Z B Z Z E Q . i Y Z U B Z z x x U B ",
"w Z -.  j p j j j V j z C C V 9 n C -.  z q v h j V Z j C C C M w Z -.X z 9 v j j V V j C C C 9 V j V 4.. p h j j j j Z C C C q ",
"w 2 L   2 8 c 4 2 u u f 0 8 0 9 w 2 L   2 6 c 4 8 4 u f 0 6 0 0 w 2 F   2 8 c 8 4 8 u k 0 2 0 q 0 g s s   i g 0 2 u f f 0 8 8 0 "
};
