/* XPM */
static char *_____________[] = {
/* columns rows colors chars-per-pixel */
"64 64 160 2",
"   c #000000",
".  c #010000",
"X  c #000100",
"o  c #010100",
"O  c #010101",
"+  c #030000",
"@  c #020100",
"#  c #020001",
"$  c #000200",
"%  c #000201",
"&  c #000002",
"*  c #010002",
"=  c #000102",
"-  c #000103",
";  c #010103",
":  c #020003",
">  c #000203",
",  c #040000",
"<  c #000004",
"1  c #000104",
"2  c #000005",
"3  c #010005",
"4  c #000105",
"5  c #D5935F",
"6  c #D1955F",
"7  c #D3945E",
"8  c #D3945F",
"9  c #D2955F",
"0  c #D5945E",
"q  c #D4955F",
"w  c #D6955F",
"e  c #CF9565",
"r  c #D59361",
"t  c #D19561",
"y  c #D29461",
"u  c #D39461",
"i  c #D39660",
"p  c #D19563",
"a  c #D39562",
"s  c #D29463",
"d  c #D29662",
"f  c #D39763",
"g  c #D49560",
"h  c #D69460",
"j  c #D79561",
"k  c #D59661",
"l  c #D49562",
"z  c #D69462",
"x  c #D49663",
"c  c #D59663",
"v  c #D19465",
"b  c #D39564",
"n  c #D09664",
"m  c #D29664",
"M  c #D39765",
"N  c #D29566",
"B  c #E7A56B",
"V  c #E7A46D",
"C  c #E7A46F",
"Z  c #E6A56F",
"A  c #E7A66E",
"S  c #EBA369",
"D  c #EAA36B",
"F  c #EEA36A",
"G  c #E9A469",
"H  c #EAA469",
"J  c #EBA569",
"K  c #E9A46B",
"L  c #EAA56A",
"P  c #EBA56A",
"I  c #E9A76B",
"U  c #EBA66B",
"Y  c #ECA46A",
"T  c #EDA56A",
"R  c #EDA56B",
"E  c #EFA46A",
"W  c #ECA66A",
"Q  c #ECA66B",
"!  c #EAA36D",
"~  c #E9A36F",
"^  c #ECA36C",
"/  c #E9A46D",
"(  c #EBA46C",
")  c #EAA56C",
"_  c #E8A66C",
"`  c #E9A76D",
"'  c #EBA66D",
"]  c #E8A56E",
"[  c #EBA46E",
"{  c #EAA56E",
"}  c #E9A66F",
"|  c #E8A76F",
" . c #EBA66F",
".. c #EDA46D",
"X. c #ECA56D",
"o. c #ECA56F",
"O. c #EDA66E",
"+. c #ECA76E",
"@. c #EAA86E",
"#. c #E6A470",
"$. c #E7A571",
"%. c #E7A670",
"&. c #E6A772",
"*. c #E6A676",
"=. c #E8A570",
"-. c #EAA470",
";. c #EBA571",
":. c #E9A671",
">. c #E8A771",
",. c #EAA770",
"<. c #E8A672",
"1. c #E9A672",
"2. c #E9A773",
"3. c #EAA772",
"4. c #ECA770",
"5. c #E9A775",
"6. c #E7A873",
"7. c #E7A875",
"8. c #E6A877",
"9. c #E9A872",
"0. c #E3B287",
"q. c #E5B287",
"w. c #E3B289",
"e. c #E2B389",
"r. c #E2B28A",
"t. c #E3B28A",
"y. c #E3B38B",
"u. c #E5B189",
"i. c #E4B388",
"p. c #E7B288",
"a. c #E6B388",
"s. c #E6B08A",
"d. c #E7B18B",
"f. c #E4B38A",
"g. c #E4B38B",
"h. c #E6B28A",
"j. c #E6B28B",
"k. c #E7B38B",
"l. c #E1B48B",
"z. c #E3B48A",
"x. c #E5B489",
"c. c #E7B489",
"v. c #E5B48B",
"b. c #E4B58B",
"n. c #E0B38C",
"m. c #E2B28C",
"M. c #E3B38D",
"N. c #E3B38F",
"B. c #E4B28D",
"V. c #E5B38E",
"C. c #E1B48D",
"Z. c #E2B58C",
"A. c #E1B58E",
"S. c #E2B58E",
"D. c #E4B48C",
"F. c #E5B48C",
"G. c #E4B48E",
"H. c #E8B389",
"J. c #E8B48C",
"K. c #E2B490",
/* pixels */
"+ + + 1 + + + + + + + + + + + + + + + + + + + + + + + + + + + + + + + + + + + 1 + + + + 1 + + 1 + + + + + 1 + + + + + + 1 + + + ",
"C.D.r.D.h.r.n.r.z.C.h.D.C.r.C.+ n.h.n.B.D.C.r.n.r.z.r.z.r.h.n.+ n.A.h.n.n.B.h.h.r.h.n.n.D.n.C.1 r.z.n.n.h.h.C.z.1 + n.n.r.D.n.+ ",
"q { U { { U 4.' { U U =.U { n.+ q U D { { { @.U V { { &.U { n.+ y =.Y 4.{ U V U { { =.S { ' h.+ l S =.' { { { &.+ D { U D U n.+ ",
"b { { 7.5.5.*.=.6.6.&.=.&.' n.+ s ' { U { { { U U { U U { { h.+ l { ' ' { { =.{ { ' ^ U U { r.+ s =.' { ! { + + 1 { { B { ! C.+ ",
"y { ' 9.=.5.&.=.9.5.7.9.=.=.D.+ l { ' { U { { U ' V { &.D U n.+ 9 { U V D ' { U { U =.U { { C.+ l { U U { + + + + + U { U { n.+ ",
"y U ! U ' { { { 6.=.5.9.5.{ C.+ 9 { U { { { { { { ! { Y ' { C.+ y U { + + 1 + ! U @.{ { { { z.+ s ' { { + + U { V + 1 + U U r.+ ",
"q =.4.{ U ' ' { { U { { { V C., q { { { U U { U =.Y U ' 4.{ h.+ y 6.{ I { | + + + { { { { { r.+ l { ' { =.{ ' { =.{ { U { =.n.+ ",
"l b s y s y l l b 9 y y 9 b 9 + M y y y y y e b l q b y s l y + l 9 b y b y + + + 9 y q y y b + b l y b y l 9 y y l l y q y 9 + ",
"+ + + + + + + 1 + 1 + + + + + + + + + + + + + + + + + + + + + + + + + + + + + + + + + 1 + + + + + + + + + + + + + + + 1 + + + + ",
"r.z.r.h.C.h.n.+ h.n.D.v.z.r.n.n.v.z.r.z.r.n.C.+ + + + + + z.r.v.z.r.C.r.h.C.z.+ z.z.n.n.h.h.r.n.n.C.r.r.D.C.n.+ C.z.z.h.C.h.r.C.",
"&.{ ' #.{ D r.+ l ' U =.U { U { { { ' V { Y h.+ + + { U { { { @.{ { { { { { C.+ y U { ' ' ' { U { { { { { U z.+ l { Y { { { { { ",
"U { U Y ' { C.+ l =.D Y { U { { Y { { { ' { h.+ + &.{ { V { { { { ' U { V +.r.+ y U { { { ! V U { { { Y &.U z.+ y ' { U @.{ { U ",
"' V { &.{ U n.+ y { { { { { { U ' ! { V U ' C.+ + + { U U &.U { Y { Y @.@.V C.+ y { =.{ U { { &.{ V { U { ' C.+ y { { U U { { { ",
"U D { S { { h.+ + + + { U { U { U { { U { @.C.+ e + + + + + + V { V 6.V U Y C.+ f V Y { { { + + + + + V { { h.+ y { U { U { { { ",
"9.Y U ! 9.U C.+ + + + + V { { { =.Y U { { { C.+ y | #.{ { { + + { + % + U { n.+ y U { ' { { =.' V + 1 + { U z.+ q ' @.{ U { U U ",
"l l y l y M y + + + + + + + + y l q b l y l y + y b y y y y y + + + + + + + y + l M 9 y q 9 y y y y y + 1 + + + b l y y y y y y ",
"+ + + + + + + + + + + + + + + + + + + + + + + + + + + + + + + + + + + + + + + + + + + + + + + 1 + + + + + + + + + + + + + + + + ",
"n.z.h.h.C.C.r.C.v.z.r.z.r.n.n.+ + z.r.C.C.z.z.r.h.B.z.r.h.n.z.+ n.D.C.r.C.r.z.v.r.r.r.r.C.h.n.+ C.D.C.C.v.z.n.z.z.r.h.C.z.n.n.+ ",
"l { ' { U { { { { { ' V { S B.+ + + { { ! { { { ' U { { { U v.+ y { D { { { { { &.{ ' #.{ U r.+ q { ' { { { { U &.{ Y V ! U n.+ ",
"y ' S { @.{ { { Y { { { ' { v.+ e + + V U V { V U Y &.{ U { r.+ y { U U @.{ { U U { U Y ' { C.+ y { Y { { { { U U { { Y ' { n.+ ",
"y { { U U { { U ' ! { V D ' C.+ l V @.+ + + + + | { { { { U r.+ l { ' { U { { U ' ! { &.{ Y C.+ l { ' U U { { U ' V { &.D ! B.+ ",
"y { U { { { { { U D { U { { C.+ y { { Q { + + + + U U V { V D.+ y { U { { { { { U D { U ' ' h.+ y { { { { { { @.{ Y { Y ' 4.n.+ ",
"q ' @.{ U { { U 9.U { { ' { C.+ y ' { Y { % V { { { @.{ U { n.+ q { { U { U +.{ =.Y U D 9.{ C.+ q { ' { { U { { =.Y { ' @.{ D.+ ",
"y l y y l 9 y y l q l l y l y + l y f y b y y 9 9 l l l y b b + b y y y l 9 y y l q b y y y y + y l y y l q y y l q b y y y y + ",
"+ + + + + + + + + + + + + + + + + + + + + + + + + + + + + + + + + + + + + + + + + + + + 1 + + + + + + + + + + + + + + + + + + + ",
"C.h.r.z.h.h.C.+ n.D.n.C.D.r.r.C.C.h.r.z.r.h.n.+ n.n.C.K.+ + r.C.z.z.D.r.C.h.+ + + C.C.z.D.z.C.z.B.z.z.v.n.C.C.+ C.z.r.h.C.D.r.C.",
"V { { &.Y { C.+ q { ' { U { { U V { { &.Y ' n.+ y { { Y + &.9.{ { { { { V + C.+ + + { { V { 4.{ { =.{ U ^ { v.+ l { Y { { { =.{ ",
"U { U U ' { r.+ s 4.S { @.{ { { U { U U ' { r.+ y V U +.+ U U Y { { U U + + C.+ y + + + ' { { Y { ' V { Y =.r.+ y ' { U @.{ { U ",
"' V { V U { C.+ y { ' { U { { U ' V { V { U C.+ y ' { V + + V &.V + + + + { z.1 y ' 9.Y + + 1 + + + + + + { z.+ y { { U U { { { ",
"U ! { Y { { C.+ s { U { { { { { U ! { Y { { C.+ l ' U { V + + + { + { @.V { C.+ y ' { { { 9.{ + + D U &.{ { z.1 y { U { U { { { ",
"=.Y U { ' { D.+ 0 { ' { U { ' U =.Y U { 4.{ v.+ y { =.+ 1 + + + + + { { { { z.+ l { { 9.U { + + { { { V ' { z.+ q ' @.{ U { U U ",
"y l b l y b y + y l y y l 9 y y y l b l y l y + l l q l + + 1 + + 1 l y y y y + y l q b y y + y b l q y y y y + y l y y l y y y ",
"1 + + + + + + + + + + + + 1 + + + + + + + + + + + + + + + + + 1 + + + + + + + + + + + + + + + + + + + 1 + + + + + + + + + + + + ",
"+ + + + + + z.r.n.n.n.q.z.A.z.+ n.r.n.r.z.B.C.i.z.A.+ + + + + + + + 1 z.C.C.r.n.v.h.C.n.n.n.D.+ n.D.B.n.v.r.r.C.z.n.D.h.+ + + + ",
"+ + + + 1 + + + + + + &.{ B r.+ b V { U { { { { V V | @.1 + + + b U + + U { 4.{ D { V { ' U r.+ q { ' { { { { U { { U ' 1 + + + ",
"1 + { V U { U U V { + + + + + 1 l &.U { U @.=.{ @.Y V + { + + + y | U + + + { Y { U ' V ^ { n.+ y ' ! U @.{ { U =.{ U &.U V + + ",
"y { { U U { @.U =.S { =.U { r.+ + + + + + + V @.' + + V @.{ v.+ y Y =.{ { + + + + @.{ { { { n.+ l { ' U U { { U { { { { =.U z.+ ",
"b &.' { { { { U ' ' { { @._ h.+ y { { @.{ + + + + + { U { { r.+ e U { { V I { { + + + &.{ { C.+ y { { { { { { { U Y U U { { C.+ ",
"l =.{ U { Q =.{ { { V ' U { r.+ y { U V | | { { + { U { { { r.+ b { { U ' 9.{ V { { + + U { v.+ q { ' { { U { { { { { { { { q.+ ",
"l y y y b y l y b l b y b y y + y y y 9 y b y y + y q s y y l 1 i l y b l y y y b y M + y y y + y l y y l q y y y y 9 i y y e + ",
"+ + + + + + + + + + + + + + + + + + + + + + + + + + + + + + + + + + + + + + + + + + + 1 + + + + + + + + + + + + + + + + + + + + ",
"z.z.h.C.z.n.n.+ n.v.r.D.D.n.r.v.C.C.z.h.C.r.C.+ + C.n.n.0.A.r.h.z.z.r.C.z.h.n.+ n.D.B.n.v.z.n.z.C.r.v.r.C.n.C.+ C.z.v.h.C.C.r.C.",
"&.{ Y V ! U n.+ l U Y { { { @.U { Y U @.{ 9.z.+ y { { { { ! { U { { { V U D n.+ q { ' { { { { U { { { { { { C.+ y { ' { { { { { ",
"U { { Y ' { n.+ y ' { { { { { { { { { { U Y C.+ 9 U { =.V U { { U { U { { { h.+ s ' ! U { { { U U { { 9.Y { r.+ y @.S { @.{ { U ",
"{ V { | D ' B.+ y { ' U U { { U U { { { U ! + + y ' { U { { { { { V { &.U D C.+ l { ' U U { { U { { U U { { n.+ y { ' U U { { { ",
"U U { Y ' ' n.+ y { { { { { { { U { { 6.+ 1 + + y U Y { U { { U { U { Y ' { C.+ s { { { { { { +.V U U ! U { r.+ y { { { U { { { ",
"=.U { { { { D.+ q +.{ { U { { U ! U + % + U n.+ b { U { { { V { =.Y ' ' 4.{ v.+ 0 ' ' { U U { { U { V U &.+ + + q ' @.{ U { U U ",
"l q b y y b y + y y y y l 9 e y + + y y b y y + q y y y y q e y y q l y y b y + y y y y l y y y y b r b b + + + y l y y y y y y ",
"+ + + + + + + + + + + + + + + + + + + + + + + + + + + + + + + + + + + + 1 + + 1 + + + + + + 1 + + + + + + + + + + + + + + + + + ",
"n.v.B.C.v.z.n.z.n.A.r.z.z.r.C.+ B.v.z.C.D.n.r.v.z.z.r.z.h.h.C.+ C.r.n.r.C.r.h.r.z.r.B.h.n.+ + + n.v.n.C.D.r.r.C.r.z.h.C.z.C.n.+ ",
"q { { { { { { U U { { { U { D.+ l { D { { { { { V { { &.Y { n.+ b { { U { { { { V { ' { { &.K.+ l { ' { U { { U &.{ Y V U { n.+ ",
"s { U U { { { U B V { { U { n.+ y ' D { { { { U U { U U ' { r.+ y U { { { { { { D &.{ { Y U r.+ s ' S { @.{ { { U { { Y ' { r.+ ",
"y { ' U U { { U U Y { { V V h.+ l { ' U U { { U ' V { &.D U C.+ l { { { &.+ + U Y { { { { { B.+ l { { U U { { U { { { V D ' B.+ ",
"y { { { { { { { { =.Y { &.U z.+ y { U { { { { { { ! { Y ' { C.+ y { U + + + { { { { { U { { v.+ 8 { { { { { { { U { { U { { n.+ ",
"q ' ' { { U { { { { @.B { { + + q ' { { U { @.U =.Y U ' 4.{ h.+ y &.V + + { { { { ' { { { { C.+ 0 ' ' { U { ' U &.Y { U { { D.+ ",
"y l y y l q y y y q y 9 + + + 1 M y y y y 9 e y l q b y s l y + + + + + y 9 l y l y y y y b 0 1 y y y b l 9 y y l q b y y b y + ",
"+ + + + + + + + + + + + + + + 1 + + + + + + + + + + + 1 + + + + + + + + + 1 + + + + + + + + + + + + + + + + + + + + + + + + + + ",
"n.z.r.C.r.z.r.B.C.z.D.C.C.h.n.h.r.r.C.z.r.r.z.+ + + + + + + n.h.C.n.C.r.z.r.D.n.n.r.n.r.D.n.z.v.z.z.z.z.n.C.z.+ n.z.h.h.C.C.z.C.",
"b { { { { ' { { { { { Y { { { { { { { @.{ U r.+ + 1 + + { { U { { Y { { D U { { D U { U U { { { { V V { U { h.1 l { ' { U { { { ",
"9 U { { ' ' V U =.{ { ' U { { + ' ' { V { { B.+ + + + U { &.D U ' { { { { { U U U &.U 9.{ U Y V { { { D { U C.+ y ' S { { { { { ",
"y { V { U { { &.+ + + + + + + + + V { { { { r.+ + U U { U { @.{ U Y { { { + 1 + + + + U { @.{ I { B U { &.{ h.+ y { ' U U { { U ",
"y { { U { U + + + { { U V 9.V { + + V { { B z.+ e =.V U @.{ U { &.U { Y =.' ' =.{ U + % + + V V { V U @.{ V h.+ y { { { { { { { ",
"y U { U { { &.{ U V U =.Y { U { { + D &.{ { r.+ l { V ' { Y B Y U { ' =.{ U U V { 9.Y { &.+ + + + + + + { { + + q ' @.{ U { @.U ",
"b b y y l q y y y b l y b i y y b + j y y 9 M + y l y l l y b y y l y y 8 l b l l b y b y y y e b q e + 1 + + + y l y y y 9 y y "
};
