/* XPM */
static char *_____________[] = {
/* columns rows colors chars-per-pixel */
"64 64 55 1",
"  c #000000",
". c #450101",
"X c #510001",
"o c #680000",
"O c #E40004",
"+ c #F70000",
"@ c #FE0001",
"# c #FD0904",
"$ c #FE0A09",
"% c #FD110C",
"& c #FB1D12",
"* c #F8251A",
"= c #F32B1B",
"- c #F02F20",
"; c #EB3C29",
": c #F83523",
"> c #FA3129",
", c #F7492E",
"< c #F74F34",
"1 c #E55B3E",
"2 c #F25B3E",
"3 c #F74746",
"4 c #FA4746",
"5 c #F74844",
"6 c #FB4845",
"7 c #F74749",
"8 c #FB4749",
"9 c #F74948",
"0 c #F94848",
"q c #DF6F47",
"w c #F36341",
"e c #F06A45",
"r c #EF784E",
"t c #F1734B",
"y c #D4955F",
"u c #EF845A",
"i c #F28155",
"p c #D39562",
"a c #EC8064",
"s c #E58F6C",
"d c #EB9B64",
"f c #EB9768",
"g c #EC9E68",
"h c #E89978",
"j c #E7A56D",
"k c #EAA56D",
"l c #E9A86D",
"z c #E6A570",
"x c #E9A671",
"c c #E7A874",
"v c #E9A872",
"b c #E7AD87",
"n c #E4B38B",
"m c #E8B28E",
"M c #E4B490",
/* pixels */
"                                                                ",
"nnnnmmnnnnmnnnn nmnnnmnnnnnnmmm nnnmnnnnnmnnmnm nnnnnnnnnnnnnnm ",
"pkkxxkxkklkxkkm pkkkkkkkxkkjkkn pkkkkkkkkkkjkkn pkkkkkkkxkkjkkn ",
"pkxcccvxzzvvzkn pkkklkkkkkkkkkn pkkklkkkkkkkkkn pxkklkkkkkkkkkn ",
"pkkvxvvxvvcvvkn pkkkkxkkkkkkkkn pkkkkxkkkkkkkkn pkkkkkkkkjkkkkm ",
"pkkkkkkkvcvxzvn pkkkkkkkkkkkkkn pkkkkkkkkkkkkxn pkkkkkkkkkxkkkn ",
"yxxkkkkxzkkklkn ylkkkkkkjkkkxkn ykkkkkkkvkkkkkn ykkkkkkkxkkkkkn ",
"ppppppppppppppp pppppyppppppppp ppppppppppppppp pppppppppyppppp ",
"                                                                ",
"nnnnnnm nmnmnmnnnnnnmnm nnnmnnnnnnnnnnm nnnnnmnnnnnnnnm nnmmnnnn",
"kkkkkkn pkkkkkkkkkkkkkn pkkkkkxkkkkzkkm pkkkkxkkkkkkkkn pkkkkkkk",
"kkkkkkn pkkklkkkkkkkkkn pkkklkkkkkkkkkn pxkklkkkkkkkkkn pkkklkkk",
"kjkzkkm pkkkjxkkkkkkkkn pkkkkkkkkjkkkkn pkkkkkkkkjkzkkm pkkkkxkk",
"kkkkvkm pkkkkkkkkkkkxxn pkkklkkkkkkkkkn pkkkkkkkkkkkvkm pkkkkkkk",
"xkkkxkn ykkkkklkvkkkkkn ykkkkklkvkkkkkn ykkkkkkkxkkkxkn ykkkkklk",
"pyppppp ppppppppppppppp pppppypppyppppp pppppppppyppppp pppppppp",
"                                                                ",
"mnnnnmnnnnnmnnn nnmMnmnnmnnnnnn nnmnnnnnnbnnnnm mmnnnmnnnnmnnnn ",
"ykkkkkkkkkkkkkn plxkkkkkkkxkkkn pkkkkdf0eww2kkm pkkxkkjkkkkkkkm ",
"pkkklkkkkjkkkkn pkkkkkkkkk@kjkn pkxkk@@@06580@@@@@kkxkkkkkkkkkn ",
"pkkkjxkk@008508050@<ugjkkk@@@km pkkkk@@@@@660@@@@@@@@jkkkkkxzkm ",
"pkkkkkkkj@@@#$0003079000k@@0@@n pxkkkk@@k@@06km @@@@@@@@kkkkxkm ",
"ykkkkklkk@@@kta.q,jrr%@kk@@@66@ pklkkk@@kk@76zn p@k@@0@@$kkjkkn ",
"pppppppppy@@ppp pppw-#@p@@=;@080pppppp@@pp@@@pp p@pp@@0@#ppyppp ",
"          @@      @@@@@ @@X.@@@58     @@   @@    @  @@00@       ",
"nnnnmmn mnn@n@@nn@@@M@@ 96hn@n@@00nmmnn@mnn@0nnnn@nm@@0@#nbmmnnn",
"kkkzkkn pklkx@@@@@@k@@@ @0kk@kk@@@@kkkn@pkk85kk@@@@@@0@ pkgkkklk",
"kkkkkkn pkjkkk@@@@@kk@n @%kk@kkk@0@kkkn pkk0@@@@@0008@m pkzkkkkk",
"kjkkkkn pkkkkkk@@k@kk@n p*kk@@kk@@0kkkn p@@@@000630@@kn pgkkxkkk",
"kkkkkkn pjkkkk@@@xkkkjn pkk@@@kk@@0@kkn@@@00088@@@kk@ln pkkkkkkk",
"xkkkxkn pjxkk@@@@@kkkkn pkk@@kkk@k@@@@@@p@@@@k@kk@kkzkm pxkkkzkk",
"pyppppp ppppy@@pp@ppppp ppp@0ppp@y@0@@0 ppp@@p@pp@ppypp pppppppp",
"            @@   @@  @     @9@  @  oO@0    @@ @  @              ",
"mnnmnnnnnnn@@@m nm@nn@@nnnn@0nm @nnms>@@nmm5@nn m0mnmnnnnnnmnnm ",
"ykkkkkxkvkk@@@n pkkkk@@kkxk@8kn @kxkdg$@kkk0@jn y0jkkkkkkkkjkkn ",
"pkkklkkkkl@0@kn pkkkk@@kkkk@0kn @@%&:00@kkk6@km y0jkkkkkkkklkkn ",
"pkkkkkkkk@06@@@@=ukkk@@@kk@@8@@@@@@@0@kkkkk0@kn y0kjkkkkkjkkkkm ",
"pjkkkkkk@@8030606@@@@@@@kk#@0600@00@k@kkxkk0@jn p@kkkjkkkkxkkkn ",
"ykkkkkkkkkkxk@n p@6066@@@kkj0xn @kk@j@kkklkk@kn p@kkkxkkxkkkkkn ",
"pppppyppppppy@p pp@ppp@ppppp@pp @pp@ppyppppp@pp p@pppppppyppppp ",
"             @    @   @         @  @        @                   ",
"nnnnnnn mnnnm0mnnnnmnn@ nmnnnmnn@mn@nnn mnnm@nnnnnnnnnm nnmmnnnn",
"zkkkkkn yjkjk5kzkkkklk@ pkkkkkkk@kk@jkn ykjk@kkkkkkkkkn pkkkkkkk",
"kkkkkkm pkkkk@xkjkjkkk@ pkkklkkkkjk@kkm pjkj@kkjkkkkkkn pkkklkkk",
"kjkjkkn ykkjkkkkkkkkkk@ pkkkkxkklkk@xkn ykjk@kkkkjkzkkm pkkkkxkk",
"kkkkkkm pkkkkxxkkjkkkk@ pkkkkkkkkkk@kkn pxjk@kkkkkkkvkm pkkkkkkk",
"xkkkkkn pkjxkkkkkklkkk@ ylkkkkkkkkk@kkn pkkkkkkkxkkkxkn ykkkkklk",
"pyppppp pppypypppppppp0 pppppyppppp@pyp pppppppppyppppp pppppppp",
"                      0            @                            ",
"nnnnnnnnnnnmnmm nmmnnn0mnmnnnmm nnn@nnnmnnnnnnm mnnnnnnnnnnnnnn ",
"pkkxkkkkkkkxkkn pkkkkl@kxkkjkkn plkxkkkkkkkkkkn pkkkkkkkxkkjkkn ",
"pkkklxkkklkkkkn pkkxklkkkkkkkkn pkkvkkkkkkkkkkm pkkklxkkkkkkkkm ",
"pkkkkkkkkjkkkkm plkkkxkkkjkkkkm pkkkkkkkkjkzkkm pkkkkkkkkjkjkkn ",
"pkkkkkkkkkxkkkn pkkkkkkkkkkkxkn plxkkkxkkkkkxkn pkkkkkkkkkkkkkm ",
"ykkkkkkkxkkkkkn yjkkkkjkkkkkkkn pkkkxkkkxkkkkkn ykkkkkkkxkkkkkn ",
"pppppppppyppppp pppppypppyppppp pppypppppyppppp pppppppppyppppp ",
"                                                                ",
"nnnmnnnnnmnnnmnnnmnnmnm nnnmnnnnnnnnnnnnnnmnnnnnnnnnnnm nnnmnnnn",
"pkkkkkxkkkklkkkkkkkjkkn pkkkkkkkkkkkkkkkkjkkkkkkkkkkkkn pkkkkxlk",
"pkkklkkkkkkkkkkkkkkkkkn pkkklkkkkkkkkkkkkkkkkkkkkkkkkkn pkkkkkkk",
"pkkkkkkkkjkkkkkkkkkkkkn pkkkkkkkkkjkkkkkkkkkkkkkkjkzkkm pkkkkkkk",
"pkkkkkklkkkkkjkkkkkkkxn pkkklkkkkkkkkkkkkkkjkkkkkkkkkkn pkkkkkxl",
"ykkkkjkkkkkkkjkkvkkkxkn pkkkkjkkkkkkkkjkkkkkkkkkxkkkvkn ykkkkkkk",
"pppppyyppppppppypyppppp pppppypppppppppypppppppppyppppp ppyppppp"
};
