/* XPM */
static char *_____________[] = {
/* columns rows colors chars-per-pixel */
"64 64 48 1",
"  c #000001",
". c #770101",
"X c #7A0001",
"o c #841B01",
"O c #8F2F00",
"+ c #912F00",
"@ c #8E3101",
"# c #903101",
"$ c #9B3F00",
"% c #974402",
"& c #9A4201",
"* c #A64F01",
"= c #A35100",
"- c #AE5F00",
"; c #AA6000",
": c #B66C01",
"> c #B86B01",
", c #BE7701",
"< c #BE7801",
"1 c #C07801",
"2 c #C78201",
"3 c #C88300",
"4 c #CF8E00",
"5 c #D18E01",
"6 c #CE9000",
"7 c #D79701",
"8 c #D99701",
"9 c #D79900",
"0 c #D99801",
"q c #DEA301",
"w c #E1A200",
"e c #E6AC01",
"r c #E8AB01",
"t c #EFB401",
"y c #F0B401",
"u c #F7BE00",
"i c #F9BE01",
"p c #FFC601",
"a c #FDC800",
"s c #D5945F",
"d c #D39562",
"f c #E7A46D",
"g c #EAA56D",
"h c #E6A570",
"j c #E9A671",
"k c #E7A874",
"l c #E9A872",
"z c #E4B38B",
/* pixels */
"                                                                ",
"zzzzzzzzzzzzzzz zzzzzzzzzzzzzzz zzzzzzzzzzzzzzz zzzzzzzzzzzzzzz ",
"dgggjgjgggggggz dggggglgjgggggz dgggggggggggggz dggggggglgggggz ",
"dglkkkjjlllllgz dgggggggggggggz dgggggggggggggz djggggggggggggz ",
"dggllljjjjklllz dgggglggggggggz dgggglggggggggz dgggggggggggggz ",
"dgggggjgkjkllgz dgggggglggggjgz dgggggggggggglz dgggggggggggggz ",
"sljgggggjgggggz sgggggllggggggz sggggggglgggjgz sggggggglgggjgz ",
"ddddddddddddddd dddddddddsddddd dddddddddsddddd dddddddddsddddd ",
"                                                                ",
"zzzzzzz zzzzzzzzzzzzzzz zzzzzzzzzzzzzzz zzzzzzzzzzzzzzz zzzzzzzz",
"ggggggz dgg                                         ggz dggggggg",
"ggggggz dgg .XXXXX.XXXXXXX.XXXXXXXXoXXXXXXXXXXXX.XX ggz dggggggg",
"ggglggz sgg XXX.X.X.XX...XXXXX..XXXXXXXXX.X.X.X.XX. ggz dggggjgg",
"ggggglz dgg XX..XXXXX.XXXXXXXXXXXXXXXXXXXXXXXXXXX.X glz dggggggg",
"ggggggz dgg XXXXXX.XXXXX.XX.XX.XXXXXXXX.XXXXXXXX.XX ggz sggggggg",
"dsddddd ddd XXXXXXXXXXX#pXX.XXXXXXXXXXXXXXX.XX.XXXX dsd dddddddd",
"            .XXXXXXX.XX#p.q:X.XXX.XXXXXXXXXX.XXXXXX             ",
"zzzzzzzzzzz XX.1pap1#tprp7ppw.5pp:.wpp4=itp2ya:XX.X zzzzzzzzzzz ",
"dgggggggggg XXXX.&t#30X1pXw:.=yo%io#X3p=p=>p%:wXXX. gggglggfggz ",
"dggggggghfg XXXX@e#Xq:X@pXw:.,ppppX40;p=yX=eX=wXXXX gffgggggggz ",
"dggggjggglg XXXor%..29X1pXw<X-eXXX@po1p=yX=wX=wXXXX ggggggggggz ",
"dgggggggggg XX.2ppp5#eprpX:pp.4ppwXrpqp;yX=wX*wXXXX ggggggggggz ",
"sgggggggglg XXXXXXXXXXXXXXXXXXXX.XXXXX.XXX.XXXXXXXX gggglgggjgz ",
"ddddddddddd X.XXXXXXXXXXXXXXXX.XXXXXXXXXXX.XXXXXXXX dddddsddddd ",
"            .XXXXXXXXXXoXXXX.XX.XX.XXXX.XXXXXXXXXXX             ",
"zzzzzzz zzz X..XXXXXXXXX.XX.X.XXX.XXX.XXXXXoXXXX..X zzz zzzzzzzz",
"lggfggz dgg XX.XXXXXXXXXXXXXXXXXXXXXXXXXXXXXXXXXXXX ggz dggggggg",
"ggggggz dgg .XX.XXXXXXXXXXXXXXXXX.X.XXXXXXXXXXXX.XX ggz dggggggg",
"gggfggz dgg XXXXXXXXXXXXXXXXX7ppp0oXXX.XXXXXXXXXXXX ggz dggggjgg",
"ggggggz dgg X.XXXoXXXXXXXXXXr0@X@wrXXXXXXoXXXXXX.XX glz dggggggg",
"gggglgz sgg XXXXXXXXXXXXXXX:w#eppXw:X.XXXXXXXXXXXXX ggz sggggggg",
"dsddddd ddd XXXXXXXXXXoXXXX6<50XpX;6XXXXXXXXXXXXXXX dds dddddddd",
"            XXXXXXXXXXXXXXXq=y:op.;5XXXXXXXoXXXXXXX             ",
"zzzzzzzzzzz .XXXXXXXXXoXXXX5<rwrp&9<XXXXXXXXXXXXXXX zzzzzzzzzzz ",
"dggggglgggg .XXXXXXXXXXXXXX>e;prraqXXXXXXXXXXXXXXXX gggglggfggz ",
"dgggggggggg XX.XXoXXXXXX.XXXew#X==XXXXXXXXXXXXXXXXX jgfgggggggz ",
"dgggggggggg XX..XXXXXXXXXXXXX5ppy=.X.XXXXXXXXXXXXXX lgggggggggz ",
"dgglggggggg X.XXXXXXXXXXXX.XXXXXXXXXXXXXXoXXXXXXXXX ggggggggggz ",
"sgggggggglg XXXXXXXXXXXX.X.XXXX.XXXXXXXXXXXXXXXXXXX gggglgggjgz ",
"dddddsddddd XX..XXXXXXXXXXXXXXX.XXXXX.XXXXXXXXXXXXX dddddsddddd ",
"            XXXXXoX.XXXXXX.X.XXXX.XX.XXXXXXX.XX.XX.             ",
"zzzzzzz zzz XXXX.XXXXXXXXXXXXX...XXXXXXXX.XXXXXXXXX zzz zzzzzzzz",
"gggfggz dgg XXXX,y.#ypp&XXXX.XX.Xy&X.XXXXXXXXXX=7.X ggz dggggggg",
"ggggggz dgl XXX;,yXXXX53Xrpyo<pp&t6p4X,pp>Xqpt&=4.X ggz dggggggg",
"ggggggz dgg XX&,#yXXXo0#&i.o&i#=:y2@p@i#=i:eX<0=4XX ggz dggggjgg",
"ggggggz dgg XXypppqX*0o.X=03*wXXXy=Xp=qXXt<1X#y=5X. ggz dggggggg",
"lgggjgz dlj ..X.#y.#0X..XXXw<i@.Xy=Xp#u#=i>rX<0=4.X glz sggggggg",
"dsddddd ddd XX.X#yX,pppw&ipro<pp:y=Xp.1pp>Xwat&=4XX ddd dddddddd",
"            XXXXXXXXXXXXXXXXX.XXXXXXXXXXXX.XX.XXXX.             ",
"zzzzzzzzzzz XXXX.XX.XX.X.XXXXX.XXX.XXX.X.XXXX.XXXXX zzzzzzzzzzz ",
"sgggggggggg XXXXX.X..X.XXXXXXXXX..X..XX.XXXX.XXXXX. fgggggggggz ",
"djggggggggg X.XXXXXXXXXXXX.XXXXXXXXXXXXXXXXXXX.XXXX gglgggggggz ",
"dgggggggggg X.XXX.XXXXXXXX.XXXXXXX.XXXXXXX.XXXXX..X lgggggggggz ",
"dggggjggggg XXXXXXXXXXXXXXXXXXXXXXXXXXXXXXXXXXXXXXX ggggggggggz ",
"sgggggggggl                                         gggglgggjgz ",
"dddddddddsddddd ddddddddddddddd ddddddddddddddd dddddddddsddddd ",
"                                                                ",
"zzzzzzzzzzzzzzzzzzzzzzz zzzzzzzzzzzzzzzzzzzzzzzzzzzzzzz zzzzzzzz",
"dgggggggggggggggggggggz dgggggggjgggggggfgggggggggggggz dggggggg",
"dlggggggggggggggggggggz dlgggggglgggggggggggggggggggggz dggggggg",
"dgggggggggfgggfgggggggz dggggggggggggggfggggggggggglggz dggggjgg",
"dgggggggggggggggggggglz dggggfggggfgggggggggggggggggggz dggggggg",
"sggggfgggggggfgglgggggz sgggggggggggfggggggggggggggglgz sggggggg",
"dddddsddddddsddsddddddd dddddsddddddsddsdddddddddsddddd dddddddd"
};
