/* XPM */
static char *_____________[] = {
/* columns rows colors chars-per-pixel */
"64 64 256 2",
"   c #020301",
".  c #0C0102",
"X  c #010B01",
"o  c #0B0C02",
"O  c #01040B",
"+  c #0C020B",
"@  c #000A0A",
"#  c #0A0B0D",
"$  c #140000",
"%  c #1A0300",
"&  c #140A03",
"*  c #12010A",
"=  c #1A0909",
"-  c #040112",
";  c #0C0213",
":  c #010914",
">  c #01021C",
",  c #0B021B",
"<  c #00081C",
"1  c #130810",
"2  c #150212",
"3  c #08100C",
"4  c #230002",
"5  c #280000",
"6  c #24010A",
"7  c #320000",
"8  c #220116",
"9  c #050226",
"0  c #160037",
"q  c #7C391A",
"w  c #7E2D2A",
"e  c #7C382A",
"r  c #782C37",
"t  c #7D343A",
"y  c #7A3735",
"u  c #6F3B2E",
"i  c #7E462A",
"p  c #7C4837",
"a  c #75493B",
"s  c #754B1B",
"d  c #010350",
"f  c #7A3A49",
"g  c #6C3063",
"h  c #7E4E58",
"j  c #79534C",
"k  c #7B5C68",
"l  c #862B18",
"z  c #992E1C",
"x  c #89371A",
"c  c #96361B",
"v  c #83350B",
"b  c #A1381B",
"n  c #A0271C",
"m  c #842E2D",
"M  c #8B2D2C",
"N  c #8A2927",
"B  c #922E2B",
"V  c #992C2D",
"C  c #942727",
"Z  c #843424",
"A  c #85362A",
"S  c #8C342D",
"D  c #8D3B2D",
"F  c #873829",
"G  c #933A24",
"H  c #93342C",
"J  c #923D2C",
"K  c #99372A",
"L  c #8E2B30",
"P  c #862935",
"I  c #942E33",
"U  c #972B37",
"Y  c #843731",
"T  c #8D3633",
"R  c #843A33",
"E  c #8B3A32",
"W  c #833239",
"Q  c #893739",
"!  c #8A3B3C",
"~  c #863A3C",
"^  c #923434",
"/  c #9C3433",
"(  c #923B32",
")  c #9B3D33",
"_  c #953639",
"`  c #933D3B",
"'  c #9A3D3D",
"]  c #9A323D",
"[  c #A63B26",
"{  c #A22C38",
"}  c #A23936",
"|  c #AA2B34",
" . c #8E451B",
".. c #88462A",
"X. c #96412B",
"o. c #9B4728",
"O. c #844334",
"+. c #8B4234",
"@. c #824439",
"#. c #8D423A",
"$. c #874C37",
"%. c #944135",
"&. c #9A4236",
"*. c #93443C",
"=. c #9B433A",
"-. c #934B3C",
";. c #994B37",
":. c #89543B",
">. c #98533C",
",. c #93552D",
"<. c #A44126",
"1. c #A34B37",
"2. c #AA4F2D",
"3. c #8A653D",
"4. c #8A3C43",
"5. c #893947",
"6. c #933C44",
"7. c #9F3F43",
"8. c #9A3749",
"9. c #8F3253",
"0. c #A43F43",
"q. c #AC314B",
"w. c #8C3866",
"e. c #AA3A65",
"r. c #894B4C",
"t. c #894846",
"y. c #914741",
"u. c #9E4444",
"i. c #964D45",
"p. c #9A4C44",
"a. c #944E4F",
"s. c #9E4E4B",
"d. c #9A434D",
"f. c #845344",
"g. c #8C5244",
"h. c #84544D",
"j. c #8B554A",
"k. c #8C594C",
"l. c #895B48",
"z. c #945343",
"x. c #9C5345",
"c. c #9D5A44",
"v. c #92524C",
"b. c #9B554E",
"n. c #915B4B",
"m. c #9B5A49",
"M. c #935A43",
"N. c #8D4D55",
"B. c #884A5A",
"V. c #954E50",
"C. c #9B4D53",
"Z. c #964956",
"A. c #8D5253",
"S. c #885C53",
"D. c #855458",
"F. c #8B5759",
"G. c #8D5A5C",
"H. c #835655",
"J. c #945453",
"K. c #9B5454",
"L. c #945A54",
"P. c #94565C",
"I. c #9A535C",
"U. c #995959",
"Y. c #975A58",
"T. c #A04646",
"R. c #A34B42",
"E. c #A54948",
"W. c #A2524C",
"Q. c #A5584B",
"!. c #A34C56",
"~. c #A15153",
"^. c #A75457",
"/. c #B34950",
"(. c #826548",
"). c #896154",
"_. c #946142",
"`. c #A46154",
"'. c #885963",
"]. c #965667",
"[. c #934E6A",
"{. c #A64D64",
"}. c #A45369",
"|. c #856463",
" X c #3F3FAD",
".X c #3C51B1",
"XX c #37469B",
"oX c #554DB8",
"OX c #1F3BDC",
"+X c #3B3BCB",
"@X c #293CDB",
"#X c #393BDC",
"$X c #2F37CB",
"%X c #1A3CEB",
"&X c #2B3CE4",
"*X c #273BEA",
"=X c #3839E5",
"-X c #293BFA",
";X c #333CFD",
":X c #3738F8",
">X c #362EED",
",X c #4438D6",
"<X c #5638D7",
"1X c #4638EB",
"2X c #453BFB",
"3X c #4F35ED",
"4X c #1E40D5",
"5X c #3842C8",
"6X c #2645D6",
"7X c #3648D9",
"8X c #3A57DB",
"9X c #294CD0",
"0X c #1945E8",
"qX c #1946FA",
"wX c #1652F7",
"eX c #2844E8",
"rX c #3745EA",
"tX c #3855E6",
"yX c #2946F9",
"uX c #3342FD",
"iX c #3648F8",
"pX c #2E55FE",
"aX c #3C53FC",
"sX c #3C59FF",
"dX c #3755F8",
"fX c #2B5AE7",
"gX c #3C60F1",
"hX c #2D60D3",
"jX c #4643DA",
"kX c #584ADB",
"lX c #4655D6",
"zX c #494FD2",
"xX c #757FC4",
"cX c #4849EA",
"vX c #5648E7",
"bX c #4856E9",
"nX c #5355E7",
"mX c #4649F8",
"MX c #544AF6",
"NX c #4552F4",
"BX c #445BFE",
"VX c #4854FA",
"CX c #5754F4",
"ZX c #624BED",
"AX c #4165FF",
"SX c #777DE3",
"DX c #6B79FB",
"FX c #787AF8",
"GX c #8F79D6",
"HX c #936FEC",
"JX c #7780B7",
"KX c #758AD9",
"LX c #7985E9",
"PX c #7384F9",
"IX c #678BED",
"UX c #9084CC",
/* pixels */
"s.v.~.v.n.l.F.  s.v.~.a.k.f.F.  s.v.~.v.n.j.F.  s.v.~.v.n.l.F.  s.v.C.v.n.j.F.  x.J.C.v.n.j.F.  E.v.~.v.n.l.F.  W.J.~.v.n.k.F.  ",
"( #.u.u.E *.J.$ E y.u.u.( -.v.$ ( y.u.u.E *.V.$ ( #.u.u.E *.V.$ E y.u.u.( -.a.. ( y.0.u.E -.a.. E y.T.u.E *.J.$ S #.' u.E *.v.$ ",
"A Y I _ K ( Q $ A Y B _ H ( Q % F Y L _ K ( Q % A Y L _ K ( Q % F Y B _ / J Q % F Y I _ K ( Q % F Y M _ K ( Q $ F Q I ^ B H Q % ",
"    1   $   * O     2   $ . + O     1   . . o O     1   . . + O     2   . . + O     *   . . + O     2   $   * O     1   .   * O ",
"b.r.D.% S.j.V.].b.r.D.% S.j.a.P.K.r.D.% S.j.a.].K.r.D.% S.j.V.].b.r.D.% S.j.V.P.b.r.H.% S.j.a.P.b.r.D.% S.j.V.].J.r.H.% ).k.a.F.",
") T.U.$ @.+.( u.) T.U.$ @.+.( T.) u.U.$ @.+.( u.) T.U.$ @.+.( u.) T.U.$ O.+.( u.) T.U.$ @.+.( u.) T.U.$ @.+.( u.&.u.L.$ t.-.( u.",
"H I W 5 m S J S H ^ W 5 m J ^ S H B W 5 m S D S H I W 5 m S J S H ^ W 5 m J ^ S S I W 5 m H E S H I W 5 m S J S S B W 5 Q =.;.T ",
"  . - O * .       . - O *         + - O * .       . - O * .       + - O *         + - O * .       . - O * .       . O O +   X   ",
"s.v.C.v.k.j.F.  s.v.C.v.n.j.F.  W.v.K.v.k.j.F.  s.v.~.v.n.j.F.  s.v.C.v.n.l.F.  s.v.~.v.n.j.F.  s.v.C.v.k.j.F.  s.J.~.a.k.f.F.  ",
"( *.T.u.%.*.a.. ( y.7.u.( -.a.. E y.0.u.+.*.a.$ E *.u.u.E *.a.. J y.0.u.E *.J.$ E *.u.u.+.*.v.$ ( *.T.u.%.*.a.$ E #.u.u.( -.v.$ ",
"A Y L _ K ( Q % A Y B _ H J Q % S A L _ / J Q % F Y L _ / J ~ % A Y L _ K ( Q $ A Y L _ K ( Q $ A Y L _ K ( Q % A E L _ H ( Q % ",
"    1   $   * O     1   $ . + O     1   . . + O     1   . . $ O     1   $   * O     1   $   * O     1   $   + O     1   $ . + O ",
"b.r.D.% S.j.a.P.K.r.D.% S.j.V.].b.r.H.% S.j.r.].K.r.D.% S.j.a.P.b.r.D.% S.j.V.].b.r.D.% S.j.V.].b.r.D.% S.j.a.P.b.r.D.% S.j.a.P.",
") T.U.$ @.+.( u.&.T.U.$ @.+.( u.) T.U.$ @.+.( u.) T.U.% @.+.( T.) T.U.$ @.+.( u.) T.U.$ @.+.( u.) T.U.$ @.+.( T.) T.U.$ @.+.( u.",
"G I W 5 m D S S G I W 5 m J H S B ^ W 5 m H J S H ^ W 5 m H T S H I W 5 m S J S H B W 5 m H J S G I W 5 m D S S H ^ W 5 m H ^ S ",
"  + - O * .       + - O *         + - O * .       + - O *     X   . - O * .       + - O * .       + - O * .       + - O *   X   ",
"T.v.K.a.n.l.F.  Z.I.a.z./.{.L.  {.E.t.m.f.>.C.  a.].z.s.Y.I.A.  ^.l.J.W.b.g.c.O z.J.!.x.L.V.Q.. x.C.S.'.o.k.M.O p.A.!.j.F.:.b.O ",
"E y.0.T.J *.a.. G J. .-.f X.b.. A +.q.q.;.r.!.  _ J =.6.o.` U.. x ..K t.6.o.b.  W 6.X.t.=Xh g.  _ J _ 0.e...C.. Y y.0.=.! ;.W.O ",
"F Y I ( H ( Q % I <XAX4X3Xe F O i Q ] W H l ^ < n S ` y c H e . W 6.^ w d.U ^ $ c K q ^ qX3X1X< 8.Z G / / T c   S D z J Z H S $ ",
"    * O $ . + O O : lXeXeXuXuXeX#XeXeX1XiXeXiX4XrXeXDXrXyXiX+   *   . + rX  + O O X X $ -X+XtX%X&XX   $ -   % O   . $   ; . o - ",
"b.r.D.% S.j.a.P.).h vXKX-X-X7X:XpXaXBX5XpXdX7XsXwXbXmX-XR.T.U.v.a.L.G.O ZXbX'.}.[.p.>.2 H.2X-XiXyX<XDXUXk ].t.^.M.>.j & G.j.z.l.",
") T.U.$ @.+.( u.c ;.}.HXPX3Xp +.,X<.&.= Y 6.f.MXNX5Xh.  7XyXe r.' G E.X f.fX=XO.#.&.Q.  E 2X+Xf *Xj nXIXSXSXMXs 5.T.b.. f 4.' o.",
"H ^ W 5 m H ^ S | G r 2 sXcXt 5.uXY y . f <XCX3XjXt / 2 y 1XuX#XI / c $ N rXNX3XJ w.x 8 r @XmXy =Xp nXNXNXtXpXbXw.N Y 4 A / _ x ",
"  . - O *   X   >   o O O vXo       X - eXpXhXyXO O $ X 2 tXKXyX;X9X9   . O lXpX=X1X    . : &X  &X, -   8XaXaXcXXX9   X . $ O   ",
"s.J.~.v.k.l.F.  '.z.1.M.{.:Xg.  J.;.S.MXvXrX(.1XC.J.K.h.^.&XaX. ].@X1XeX%X^.U.8X*XPX<XD.b.3.1XO Z.I.1.n.:.u.pXaX7X=XA.>.^.M.J.. ",
"( #.7.u.( *.a.$ C 9.t.<.t.i ].  p rXtXBXr.' f.O H ! K p.Z rXVXO v f.o.uX-XlXh > BXSXxXaX-X-XrX-X6.( y.@.d.u.kXzXFXrX5.T.` $.Z.  ",
"A Y M ' ( J W % V D 5.z S K L $ H aXiX;XC C ... { ! C J Y rXaX@ mXr 8.F ;XlXrXeXtXCXLXDXIX0XqXrX0X*XaX-X>X=XdXdX,X5X9.U B #.9.  ",
"    *   $ . + O % X $ - $ . O : =XaX7X- &   + -     .   $ %XdX  :X, * . eX: =X:XeX    VXnXMXjXCXnXvXPX9XAXkXpXNX.Xd o O .   2 X ",
"b.r.D.% S.k.V.P.a.F.,.o B.k +XFXaXrXz.. -.).i.3.I.J.D.O ].;XNXf.rX0Xj * eXj ).D.;X:XrXO J.l.cXqXR.i.'.O -Xj.7XJ.].].v.* M.Y.I.E.",
") T.U.$ O.#.( u.1.R b.X y UXIXdX7X*Xm.. B.[ :X-X( 2.M.  W =XcX&./ ;XjX9 uX[ <.8.( <XqX>XU y.lXyX8.a.m.. yXo.:X=.X.K >.. Z ! d.[ ",
"H I W 5 m H ( S L 8.Y   5.GXCX>XA cXP = q W iX0Xw.N r % S cXmXy z CXmXeX#Xj l J ..u >XcXq Z ZXyX6.l v 6 rXr VXA D ) w * H 5.Y H ",
"  . - O *             O :XbX*X9 - %X.       @X2X X9 : O $ 0XaX. X yXVXIX#X-X. . - $ uX%X-   *XVX$X> > O *X# -X.     + O %   X   ",
"[.j.J.C.x.i.'.  n.k :XeXBXjX(.; L.J.p.^.:.s.P.eXeXh.R.x./.yX7XO W.&Xv.aXvXgX=X;X-XVXIX-.}.=.iXtXuXx.z.P.yXM.k.  s.v.C.v.n.j.F.  ",
"c =.) ' 6.<.b.. l 2XrXdX8XA.1.- I 6.;./ a.r.y.: uX#XB.6.u.6XtXO Q -X) _ &XVXnXdXbXLXKX} T +.,XbXiX&.` #.cX;.A.  E y.u.u.( -.a.. ",
"z D D m +.x W ; :XtX7XyXwXFXHXrX;XjX6XqXuX>XmX-X*XrX1Xw r uX1X=X#X6./ 5.pXe $XbXxXGXB.x t ' g cXNX] 8.e CXN 5.  F Y I _ / J Q % ",
"  O - X   - 9 @XVXNX2X$X9X:X=XVXmXdXBXfXtXlXpXNX8XiXeX& $ O @X< O   .   qX; < 7X- :   X o   # tXtX.   $ tX.   $     *   . . + O ",
"Q.i.l., h k ,XmXiXuX@XO f.{.;.F.).cXb.. :X-.h.jXH.F.VX  ,.j.=X[.k.Q.U.O eXE./.BXK.R.>.@ g.^.g.#X8Xa.].O NXA.`.P.K.r.D.% S.j.V.P.",
"! ' ].% J <.i P.9X$.f.% y.(  .1.! kXU.  -Xp.&.4.d.K VXO _ f.;X[ q.9.>.  c ;.p :X) ' m.. ] 6.p #XLX=.h.O bXt.J 6.&.T.U.$ O.+.( u.",
"^ G B.5 ^ H X.w 1XL  .6 w B j L { Z.Z   MXP x K x $.GX  T ..uXZ F ' Y 4 r b A rX! M L 6 M / 5.#XKXL ! &  X4.E t G I W 5 m J ^ S ",
". O X X O .   O &X<       +   .     O X SXO , . * O 9   % > 6X> X   X O   . O -   -   X @     -XIX. .   d   X %   + - O *       ",
"E.j.C.v.n.j.F.  -XK.b.:._.A.A.- Z.W.Y.>.sX:.Y.O s.J.~.a.n.f.F.  E.v.~.v.n.j.F.  ;.S.~.i.Q.,.'.tXs.v.C.v.k.j.F.  s.a.K.a.n.j.F.  ",
"( y.u.u.( -.a.. cX! J *.x i.z.$ ^ *.E ) NX+.1.  H i.' T.D -.K.. E y.u.u.+.*.v.$ D y.' 4.` o.].zX( *.T.u.%.*.a.. ( #.7.u.( -.a.. ",
"F Y I _ / J Q % nX5.I 4.H { A % M ( P 4.CXm | $ B A I L _ D y.$ F Y M _ K ( Q $ H D N #.^ c N 0 A Y L _ K ( Q % F Y B _ H J Q % ",
"    *   . . + O hX      % $   O %   O , 9Xo $ O   + *   . . + @     2   $   * O O   + - - . $ :     1   $   * O     1   $ . + O ",
"b.r.D.% S.h.a.P.GX].P.. h !.v.'.S.C.P.- oXN.!.H.b.r.G.$ G.g.V.C.b.r.D.% S.j.V.].Y.:.g.$ h.x.x.(.b.r.D.% S.j.a.P.K.r.D.% S.j.V.].",
") T.U.$ O.+.( T.w.E j.$ O.&.+./ +.=.z.% B.$.-.=.D i.F.$ y *.^ 0.) T.U.$ @.+.( u.4.1.K.$ W =.' ..) T.U.$ @.+.( u.&.T.U.$ @.+.( u.",
"H ^ W 5 m D ^ S T } ! % y } R T Y ^ ( 6 r F ^ S S M ~ 4 S J ^ S H I W 5 m S J S T K S % l J ^ Z G I W 5 m D S S G I W 5 m J H S ",
"  . - O * .     .     @ + $         . : $ X .     . ; O + .       . - O * .       $ O : . . -     + - O * .       + - O *       ",
"s.v.~.v.n.l.F.  s.v.~.v.k.j.F.  W.v.K.v.k.j.F.  s.v.~.v.n.l.F.  s.v.K.v.k.l.F.  T.j.!.v.n.l.F.  T.j.~.v.n.l.F.  ~.L.K.v.b.k.F.  ",
"( #.u.u.E *.V.$ E y.u.u.( -.a.. E y.0.u.E -.a.$ ( #.u.u.E *.V.$ E y.0.u.( *.a.$ ( y.u.u.( *.a.. ( y.0.u.E *.V.$ S #.' u.D #.J.$ ",
"A Y L _ K ( W % F Y I _ / J Q % S A L _ / ( Q % A Y L _ K ( W % S Y L _ K ( Q % A R L _ K ( Q % A Y L _ K ( Q % Z E I _ B H Q $ ",
"    1   $ O $ O     *   . . + O     1   . . o O     1   $ O $ O     1   . . + O     1   $   * O     1   . . + O     1   .   $ O ",
"b.r.D.% S.j.V.P.b.r.D.% S.h.a.P.b.r.D.% S.j.r.].b.r.D.% S.j.V.P.b.r.D.% S.j.V.P.K.r.D.% S.j.a.P.K.r.D.% S.j.V.P.b.r.H.$ ).k.v.P.",
"/ T.U.$ @.+.( u.) T.U.$ O.+.( T.) u.Y.$ @.E ( u./ T.U.$ @.+.( u.) T.U.$ @.E ( T.) T.U.$ @.E ( T.) T.U.$ @.+.( u.;.u.L.$ t.-.( u.",
"H ^ W 5 m H ( S H ^ W 5 m D ^ S H I W 5 m J J S H ^ W 5 m H ( S H ^ W 5 m J H S H ^ W 5 m J T S G I W 5 m S ( S S L W 5 Q &.=.Q ",
"  . - O * .   X   . - O * .       + - O * .   X   . - O * .   X   + - O *         + - O *         . - O * .       . - O +   X X ",
"i.n.^.p.k.x.J.  s.K.n.c.x.j.|.  x.n.^.i.k.b.P.  C.b.M.m.x.r.|.  p.n.^.i.l.x.P.  C.b.n.m.x.r.|.  ~.z.R.b.t.J.U.  C.K.n.c.x.r.).O ",
"D #.*.! O.R.K.  T #.+.%.&.y.h.$ S #.` #.+.1.s.  ^ #.+.%.=.*.H.$ S #.` *.+.1.K.  _ #.+.%.&.*.h.. ( +.=.E -.s.V.  T +.+.%.=.y.h.$ ",
"V ^ ] ` M C L 4 ] T ^ B V L W 7 V ^ ] ! S C P 5 _ ^ ( B V I W 7 V ^ ] ! S N L 4 _ T ^ B V I W 7 I M / B y.L P 5 ] T ^ B V U W 7 ",
".   o X o   . X         $   o X .   o X o   . X         .   o X .   o X o . . X         . . o X o     o X   &       X   .   o X ",
"K.A.B.= N.r.C.'.].A.P.J.Z.Z.J.P.C.N.F.= N.V.Z.'.].A.J.P.C.Z.J.F.C.A.F.= r.V.C.'.P.N.J.P.Z.Z.J.'.F.J.F.B.= r.{.F.P.N.F.J.C.Z.P.F.",
"( u.I.  ` *.0.y.*.` y.*.6.=.y.! &.y.Z.. ` y.} y.*.#.y.` 6.=.y.` =.u.Z.  ` *.0.t.y.*.y.` ' ' u.#.*.=.u.a.. Q ' y.y.*.y.` ` ' =.! ",
"J ' K.  ( X.} ( ( %.=.( &.&.&.X.J ' U.  ( X.} ( %.( =.( ) &.;.D X.` Y.  %.D } ( ( =.=.%.&.&.;.D %._ ! Q.. O.K &.( =.' %.&.&.;.E ",
"J T 4.X M B } B S ^ H ^ ^ M S D J T 4.  M S } B H ^ T ^ S B S D ) M 4.  M B } B S B T ^ B S H S K / T !   R / B S ^ H _ H M S J "
};
