/* XPM */
static char *_____________[] = {
/* columns rows colors chars-per-pixel */
"64 64 64 1",
"  c #000000",
". c #010000",
"X c #000100",
"o c #010101",
"O c #030000",
"+ c #000002",
"@ c #010103",
"# c #D3945F",
"$ c #D5945E",
"% c #D6955F",
"& c #D19561",
"* c #D29461",
"= c #D39660",
"- c #D39562",
"; c #D29463",
": c #D49560",
"> c #D49562",
", c #D49663",
"< c #D39564",
"1 c #D29664",
"2 c #E7A46D",
"3 c #E9A46B",
"4 c #EBA56A",
"5 c #ECA66B",
"6 c #E9A46D",
"7 c #EBA46C",
"8 c #EAA56C",
"9 c #E9A76D",
"0 c #EBA66D",
"q c #E8A56E",
"w c #EAA56E",
"e c #E9A66F",
"r c #EBA66F",
"t c #ECA56D",
"y c #E6A470",
"u c #E7A670",
"i c #E6A772",
"p c #E6A676",
"a c #E8A570",
"s c #E9A671",
"d c #E8A771",
"f c #E8A672",
"g c #E9A672",
"h c #E9A773",
"j c #EAA772",
"k c #ECA770",
"l c #E9A775",
"z c #E7A873",
"x c #E7A875",
"c c #E6A877",
"v c #E9A872",
"b c #E3B289",
"n c #E2B28A",
"m c #E3B28A",
"M c #E3B38B",
"N c #E4B38A",
"B c #E4B38B",
"V c #E6B28A",
"C c #E5B48B",
"Z c #E3B38D",
"A c #E1B48D",
"S c #E4B48C",
"D c #E5B48C",
"F c #E4B48E",
/* pixels */
"OOO@OOOOOOOOOOOOOOOOOOOOOOOOOOOOOOOOOOOOOOOOOOOOOOOOOOOOOOOOOOOO",
"ASnACnAnNAVAnAAOACNASANSNNNAnVAOAAVSAAnAVnnAnAAOAAnAANNANNnnNAAO",
"%w5ww4www44swwnO*wwww2w42ww247AO>w5wwwwwwwt2wwVO%wwwwww4iwwiw4nO",
"<wwxxlxszzivi4AO*w44k4ww4k4wtwnO*w47kww44ww5t4nO*w5w9www4w44twAO",
"*wwvslzssixvswAO*www4vw4w2wz44AO*www3wwwt2wi4tAO*www4ww44ww24wAO",
"*44wwwwwllsvvsAO#w4wwwww4ww4swAO*w424w4k44w4wwAO*w4wkw4kwww5wwAO",
"*skw4ttww42ww2SO%kkw4wwwv4wttwSO%kk444w4v5w4swAO%wtw44k9v4wwwwSO",
">>*****,1**<#<#O1*#**#&**%***,*O1**<*1&*>>*>*>&O***<*****%<****O",
"OOOOOOOOOOOOOOOOOOOOOOOOOOOOOOOOOOOOOOOOOOOOOOOOOOOOOOOOOOOOOOOO",
"AnnnnAAOANnCASnANNnNNAAOASANANNANNNNVSAOAAAASNANAnnnnAAOANnCASnA",
"iwtywwAO*4wwwwwwwwt2wwVO*w4wwwk42wwy44AO>47w42s4iwtywwAO*wtwwwww",
"5w45w4NO*k4wkww44ww5w4nO*w43kwww4k49wwNO*s74kwww5w45w4NO*04wkww4",
"52wi44AO*www3ww4t2wi44AO*wtw4ww4w2w2w4AO>www4ww452wi44AO*www3ww4",
"4774wknO*w4w9wwk4ww4skAO*w4wkwwww4w5swAO*w4wkw4k4774wknO*w4w9wwk",
"s4w40kAO%kk4w444v4wtwwAO%kk444wwz44wtwCO$tww44k9s4w40kAO%kk4w444",
"*%<**1*O1****1&*>%***>*O*****1***%<**,*O***<*****%<**1*O1****1&*",
"OOOOOOOOOOOOOOOOOOOOOOOOOOOOOOOOOOOOOOOOOOOOOOO@OOOOOOOOOOOOOOOO",
"AAAVASnANNnNNAAOAAnVASnAVnNAnAAOACANANANNnnnAnAOASAAANNANNnnNAAO",
">w5wwwwwwwt2wwVO>4wwwwwwwwt2wwVO*www4wkwiwwyw4NO%w7wwww4iwwiw4nO",
"*t47kww44ww5w4nO*w5wkww44ww5t4nO*w43kww44w45twNO*t7w9www4w44twAO",
"*www3wwwt2wi44AO*www3wwwt2wi4tAO*wtw4ww4w2w24wAO*www4ww44ww24wAO",
"*w424w4k4ww4skAO*w4w4w4k44w4wwAO*w4wkwww4ww4wknO*w4wkw4kwww5wwAO",
"%kk444w4v4wtwwAO%wk449w4v5w4swAO#kk44wwws5w4k4AO%wkw44k9v4wwwwSO",
"1*&<*1&*>%***>*O1****1&*>>*>*>&O1***,##>*>,**1*O*********%<****O",
"OOOOOOOOOOO@OOXOOOXOOOOOOOOOOOOOOOOOOOOOOOOOOOOOOOOOOOOOOOOOOOOO",
"NNNNnVAOAAVANNNANNNNVVAOAAnAANANNNnANAAOACNASAnCAnnnnAAOANnCASnA",
"2wwy44AO>www3wk42wwi4wAO%www3ww4iww2w4nO%w4wwwwwiwtywwAO*wtwwwww",
"4w49wwNO*w74kw2w4ww4twnO*w5wkwww4w45twAO*wwwwww45w45w4NO*04wkww4",
"w2w2w4AO*wt44vw4wwwi4wAO*www4ww44ww24wAO*k444kww52wi44AO*www3ww4",
"4ww5tsAO*wwwwwwkw4w4twAO*w4wkw4kwww5wwAO*wwwwwwt4774wknO*w4w9wwk",
"v54wswCO%w0w44k4z44tswCO%w0w44k9v4wwwwSO%4wk44wws4w40kAO%kk4w444",
"*>*>*>*O****>****%***>*O***<*****%<****O11*******%<**1*O1****1&*",
"OOOOOOOOOOOOOOOOOOOOOOOOOOOOOOOOOOOOOOOOOOOOOOOOOOOOOOOOOOOOOOOO",
"ASANANNSAnnnnAAOACANANANAnnnnAAOANnCASnAVnnAnAAOAAnAANNANNnnNAAO",
"*w4wwwwwiwtywwAO*www4wk4iwtywwAO*wtwwwwwwwt2wwVO%wwwwww4iwwiw4nO",
"*w43kww45w45w4NO*w43kwww5w45w4NO*04wkww44ww5t4nO*w5w9www4w44twAO",
"*wt44ww452wi4wAO*wtw4ww452wi4wAO*www3ww4t2wi4tAO*www4ww44ww24wAO",
"*kwwwwwk4774wknO*w4wkwww4774wknO*w4w9wwk44w4wwAO*w4wkw4kwww5wwAO",
"%kw44wtws4w4k4AO#kk4w4tws4w4k4AO%kk4w444v5w4swAO%wtw44k9v4wwwwSO",
"*1**,****%<**1*O1***>****%<**1*O1****1&*>>*>*>&O***<*****%<****O",
"OOOOOOOOOOOOOOOOOOOOOOOOOOOOOOOOOOOOOOOOOOOOOOOOOOOOOOOOOOOOOOOO",
"NNnnNAAOACNASANSNNnANAAOACNASANSNNNNVSAOAAAASNANAnnnnAAOANnCASnA",
"iwwiw4nO>wwww2w4iww2w4nO>wwww2w42wwy44AO>47w42s4iwtywwAO*wtwwwww",
"4w44twAO*w44k4ww4w45twAO*w44k4ww4k49wwNO*s74kwww5w45w4NO*04wkww4",
"4ww24wAO*www3ww44ww24wAO*www3kw4w2w24wAO>www4ww452wi44AO*www3ww4",
"www5wwAO*44wkwwkwww5wwAO*w4wwwwww4w5wwAO*w4wkw4k4774wknO*w4w9wwk",
"v4wwwwSO#kkw44k4v4wwwwSO%4kk4wwwz44wkwSO$tww44k9s4w40kAO%kk4w444",
"*%<****O1*&**#***%<****O1*&**#&**%<**>*O***<*****%<**1*O1****1&*",
"OOOOOOOOOOOOOOOOOOOOOOOOOOOOOOOOOOOOOOOOOOOOOOOOOOOOOOOOOOOOOOOO",
"ACNANNANNNnNANAOACNASANSNNNAVVAOACANANANnnnAnAAOASAAANNANNnnNAAO",
"%wwwwwk4iww2w4NO*wwww2w42ww24wAO*www4wkwiwtywwAO%w7wwww4iwwiw4nO",
"*w4w9ww24w49wwAO*w44k4ww4k4wtwnO*w43kww44w45w4nO*t7w9www4w44twAO",
"*www3kw44ww24tAO*www4vw4w2wz44AO*wtw4ww4t2w24wAO*www4ww44ww24wAO",
"*w4w4wwkwww5wwAO#w4wwwww4ww4swAO*w4wkwww4ww4kwVO*w4wkw4kwww5wwAO",
"%wkwwk94v4wwwwSO%kkw4wwwv4wttwSO#kk44wwws5w4v4AO%wkw44k9v4wwwwSO",
"<*#**##**%<****O1*#**#&**%***,*O1***,##>*>,****O*********%<****O",
"OOOOOOOOOOOOOOOOOOOOOOOOOOOOOOOOOOOOOOOOOOOOOOOOOOOOOOOOOOOOOOOO",
"ACANANANNNNNNANNCnnNnAAOASANANNANNNNANANNNANANANAnnnnAAOANnCASnA",
"*www4wkww24w4w2wwwt2wwVO*w4wwwk4w29424w4w4w4w4w4iwtywwAO*wtwwwww",
"*w43kw24w4w424w44ww5t4nO*w43kwwww44w4w4w4w4w4w425w45w4NO*04wkww4",
"*wtw3ww424w4w4w4t2wi4wAO*wtw4ww44w4ww4w4w4w4w4w452wi44AO*www3ww4",
"*w4wkwwkkwwwwwww4ww4wtAO*w4wkwwwwwwwwww2wwwwwwww4774wknO*w4w9wwk",
"#kk4449k434w4kw4v4w5swAO%kk4444kw444w4ww94ww4wwws4w40kAO%kk4w444",
"1***1##*1*1***1*>%*>*>*X*****1&*1*>1*1***,****>**%<**1*O1****1&*"
};
