/* XPM */
static char *_____________[] = {
/* columns rows colors chars-per-pixel */
"64 64 256 2",
"   c #010101",
".  c #090505",
"X  c #060906",
"o  c #090907",
"O  c #060709",
"+  c #09070A",
"@  c #070909",
"#  c #0B0B0B",
"$  c #130507",
"%  c #100D0D",
"&  c #1B0E04",
"*  c #0E100E",
"=  c #11100E",
"-  c #0E0E10",
";  c #100F11",
":  c #0F1111",
">  c #121212",
",  c #181616",
"<  c #220D04",
"1  c #220A0A",
"2  c #300C0E",
"3  c #241205",
"4  c #271609",
"5  c #29120A",
"6  c #251B0B",
"7  c #2B1C0D",
"8  c #271406",
"9  c #2D0F11",
"0  c #330A10",
"q  c #261E12",
"w  c #2B1E13",
"e  c #3C1415",
"r  c #351312",
"t  c #2C210F",
"y  c #36260F",
"u  c #2B2113",
"i  c #2C2218",
"p  c #262012",
"a  c #332518",
"s  c #46181A",
"d  c #561E1D",
"f  c #47210E",
"g  c #40311E",
"h  c #7F2C07",
"j  c #7B2703",
"k  c #74310F",
"l  c #7B350B",
"z  c #7C3711",
"x  c #6A2504",
"c  c #631620",
"v  c #5B2122",
"b  c #622222",
"n  c #7B282B",
"m  c #822E0A",
"M  c #822E06",
"N  c #84330C",
"B  c #8B340D",
"V  c #8D3A0E",
"C  c #873D0E",
"Z  c #91360F",
"A  c #923B0F",
"S  c #8D3510",
"D  c #8D3B11",
"F  c #863A12",
"G  c #933C13",
"H  c #9A3E14",
"J  c #9C3F18",
"K  c #973D18",
"L  c #9F1E32",
"P  c #A31D35",
"I  c #852C30",
"U  c #993235",
"Y  c #B6303B",
"T  c #A82D3B",
"R  c #8E4213",
"E  c #87421A",
"W  c #8A421A",
"Q  c #894818",
"!  c #944315",
"~  c #9A4316",
"^  c #954916",
"/  c #994A17",
"(  c #954418",
")  c #9B4419",
"_  c #964B1A",
"`  c #9D4C1B",
"'  c #86531D",
"]  c #8F531D",
"[  c #95541B",
"{  c #9C531C",
"}  c #9C5A1E",
"|  c #97551A",
" . c #A2451A",
".. c #A24D1D",
"X. c #A84A1D",
"o. c #A04D17",
"O. c #A4521E",
"+. c #A9531F",
"@. c #A1591F",
"#. c #8D4C21",
"$. c #9D5B21",
"%. c #9F5121",
"&. c #A14F20",
"*. c #AA4D20",
"=. c #A55321",
"-. c #AB5422",
";. c #A55D23",
":. c #AB5B24",
">. c #AC5D29",
",. c #AE5628",
"<. c #B15B26",
"1. c #B45C28",
"2. c #9C6A2A",
"3. c #9D6427",
"4. c #8D6635",
"5. c #8D6B3E",
"6. c #9C6E35",
"7. c #946936",
"8. c #9E723B",
"9. c #A36425",
"0. c #AA6426",
"q. c #A76A27",
"w. c #AA6B27",
"e. c #A56528",
"r. c #AC6529",
"t. c #A56C2A",
"y. c #AB6C2A",
"u. c #B2652A",
"i. c #B36D2D",
"p. c #B96B2C",
"a. c #B16326",
"s. c #A5702D",
"d. c #AD722D",
"f. c #B2732E",
"g. c #B1792E",
"h. c #A66F34",
"j. c #B46C30",
"k. c #BB6C31",
"l. c #A47235",
"z. c #AC7433",
"x. c #A3753C",
"c. c #AB7639",
"v. c #A6793D",
"b. c #AD7A3B",
"n. c #B37532",
"m. c #BA7633",
"M. c #B57A33",
"N. c #BA7B34",
"B. c #B27C3C",
"V. c #BA7E39",
"C. c #C07D36",
"Z. c #F60F4B",
"A. c #F90D4D",
"S. c #EE1F49",
"D. c #F4144B",
"F. c #F31C4C",
"G. c #CA2944",
"H. c #C93C46",
"J. c #D12646",
"K. c #EE264C",
"L. c #EC2B4D",
"P. c #E12D48",
"I. c #F1234C",
"U. c #F02A4E",
"Y. c #E7364C",
"T. c #EA334D",
"R. c #E63C4E",
"E. c #E83A4D",
"W. c #EE2A51",
"Q. c #E93451",
"!. c #E63D50",
"~. c #E93A51",
"^. c #E73650",
"/. c #8D6C43",
"(. c #836644",
"). c #936E42",
"_. c #9E7847",
"`. c #92744E",
"'. c #9F7A4C",
"]. c #997343",
"[. c #A27643",
"{. c #A47A44",
"}. c #AB7D44",
"|. c #A47C4A",
" X c #AA7E4A",
".X c #B27F44",
"XX c #A47F53",
"oX c #CA4347",
"OX c #DE4D4E",
"+X c #D4474A",
"@X c #DE514F",
"#X c #DF4D51",
"$X c #DE5151",
"%X c #E3444E",
"&X c #E14B4E",
"*X c #E0504F",
"=X c #E34351",
"-X c #E14B51",
";X c #E05050",
":X c #BD8036",
">X c #B6813E",
",X c #BC823C",
"<X c #C3833B",
"1X c #C5893E",
"2X c #AD8146",
"3X c #AC814B",
"4X c #B58243",
"5X c #BB8443",
"6X c #BC8A46",
"7X c #B3844C",
"8X c #B5894E",
"9X c #BB8A4D",
"0X c #B88649",
"qX c #A58354",
"wX c #AB8454",
"eX c #AE8954",
"rX c #A4845C",
"tX c #AA865A",
"yX c #AE8A5C",
"uX c #A6895F",
"iX c #B38652",
"pX c #BA8751",
"aX c #B58953",
"sX c #BA8C54",
"dX c #B38D5D",
"fX c #BC8E5A",
"gX c #BD9155",
"hX c #BC925B",
"jX c #B6915D",
"kX c #AD8C62",
"lX c #B28E62",
"zX c #B38F69",
"xX c #B88F61",
"cX c #AC9069",
"vX c #B59263",
"bX c #BB9564",
"nX c #B4936A",
"mX c #B9966B",
"MX c #BD9B6B",
"NX c #BA9868",
"BX c #BD9C73",
"VX c #BD9F79",
"CX c #C38C4B",
"ZX c #C38944",
"AX c #C08F53",
"SX c #C29255",
"DX c #C3945B",
"FX c #C8995D",
"GX c #C5975B",
"HX c #C19A66",
"JX c #C39C6A",
"KX c #C39762",
"LX c #C29F77",
"PX c #C6A26F",
"IX c #C9A46F",
"UX c #C6A377",
/* pixels */
"@ O @ # : > , - X X + # # % > # # - @ X # ; @ @ % : > > > @ - # # # # + @ # # # * : > > : * # # * # @ @ @ O # # @ + # O # # > > ",
"b.[.lXmXmXmXcXkXrXkXcXlXxXdX3X# sXiXrXkXnXnXBXuXzXBXUXUXPXfXDX# aXlXlXkXUXLXVXkXuXnXVXmXyXfX8X# 7XeXtXrXnXnXmXmXkXcXkXXXuXaX8X% ",
"9.6.wXdXdXkXrXqXkXzXyXdXeX7Xc.@ 5X.XwXvXmXuXvXqXkXnXPXMXgXpXCX# b.7XiXyXnXMXMXJXMXNXNXbX3X X.X# B.}.3XqXkXvXmXvXvXzXXX|.7X}.n.@ ",
"Q t.b.}.|.2X2X XaXiX7X Xn.n.9.@ n.n.B.CXDXiX7XfXsXsX8X7Xb.M.C.# y.M.b..X7X8XgXKXKXgXSXAXb.d.w.% y.t.b. X2XiXiXaXaX3X7.{.B.d.;.@ ",
"C 0.0.w.w.y.d.y.N.g.w.e.9.;.{ O ;.;.q.f.m.<XN.<X<XN.w.e.9.@.;.# ;.;.q.u.m.g.N.<X1X<XN.m.w.>.q.- } { ;.3.w.f.f.m.<Xd.[ f.q.=.` @ ",
"R O...` ` ( / ( ( ` ( R ! ! _ O ! _ ) ....>.+.:.+.=.` ~ ! ! ` > +.~ ! ` -...-.1.<.+.........,.: _ ! G D ` O...=.>.:.R -...) ) @ ",
"! ~ X.~ ~ G G  .N A N V A ! -.o D D ) X.~ H  . .~ K ~  .G ! -., >.` V N K  . . . .K G H  ...+.# ` G ! V )  . .~ X.X.G J  ...` @ ",
"! ! ` ,.,.+.` ) ! V D R ! O.>.# @.` O.O./ ~ ....-...+.:.O.` u.> p.:..._ ` ..+.....<.:.O.O./ O.@ :.;.=.` ` _ ~ X.-.-.! ! { <.p.> ",
"- @ + @ @ + + @ # # @ # @ # # ; @ # % # , o > = % = : * # + > > % @ + o O # > > = > - # # @ # # # % - X . # > > > , # # + @ @ o ",
"d.z.l.8.x.c.n.# :XB.0XfXfXsX3XsXwX3X X2X7X4XV.+ V.CXsXaX3XiXfXaXaXsX7X Xl.b.ZX# z.z.}.7X7X2XaXfXgXDXgX7Xb.c.V.> <XCX}. Xx.8.c.z.",
"y.l.[.|.2X4XM.- ,X.X2XaXlXdXlXvXjXuX|.|.7X0Xn.. M.6XpX3XtXqXqXlXMXHXdXwX8.>X<X> h.l.{.|.qXqXdXdXvXbXNXgX8X4XZX, ZX6X X3X|.{.c.M.",
"0.n.B.4X4X:Xy.; g.n.b..X X2XaXpXaX3X[.v.V.V.q.X w.V.B.x.}. X}.7XsX7X Xv.h.M.V.# w.y.b.v.[.3XiX7X7X X7X{.b.<X<X, C.:XB..X7XB.M.i.",
"O.>.i.p.p.u.0.# ;.` 0.i.i.q.d.f.n.w.w.y.w.u.>.X ;.0.r.e.d.f.y.t.w.d.y.e.9.e.u.* >.0.w.q.f.V.M.d.q.t.9.[ $.0.p.> a.0.0.f.m.i.u.<.",
"R ! / O.O.-.<.> %.C ! _ ( ! ` ^ _ ` ....*.-.:.O &.-.-.-.+.` ` D ! ` +.+.-.-.=.; -...! ! +.1.+._ ` ` _ D C ! -.> :...R ! / ..+.+.",
"~ ) ~ K  .X.=.@ ` G G G G G G B A G G ! ) ` +.@ ! .. .~ B M G m N ) X.X.X.-...* ,.~ M N B X.X. .H K ! G N B ..> 1. .A H H ! ~  .",
"` +.=.O.` { } * u.=.^ ( _ +.~ ) ...._ ` +.:.;.# >.:.-.-.&.! ! G ~ +.=.-.1.=.>.= u.r.` ! ..+...) ~ ` ` ` ! _ r., p.@.O.O.+./ ~ ! ",
"# > * # # @ @ % - : # # : # X O # @ @ @ # % # # # # # # > = # @ # > > - * # @ .   X @   + @ # : : % @ # O O o - # @ % > # # # # ",
"V.CX9X8XsXaXiX3X2XfXfXpX9X>X9.@ n.B.}.{.3XsXfXaXdX).7   u 8.V.@ z.B.CXaX4.u                           u ].aXaX3X|.7XsXGX9X,Xi.# ",
"m.ZXsXjXhXvXXX/.q                       q (.nXvXbXu         7 X t..XpXiXq   $ $ -Xs v v b                   i `.rXvXhXKX9X5Xf.# ",
"9.f.B.6XsXiX|.q                             O         @X        ' z.4X}.    @X$X;X;X*X;X$X$X-X@X*X*X$X            u 5.7XB.V.p.# ",
"_ [ ;.i.N.f.e.    #X#X#X#X$X#X$XOXOXOX#Xn 9 O         #X&X-X    4 #.i.w.    OX#X;X-X$X@X#XOX#X#X&XOX#X-X#X$X        4 [ 9.:.:.@ ",
"l N R ` =.` R 3     &XOXOX+X+X&X#XOX&X#XOX#XOXOX&X  &X&X#X-X&X    3 W ..3     #X-X  &X&X&X&X      #XOX-X&XOX&X-X&X    8 D / +.@ ",
"B B S G G V h x     &X-X-X  s e e r I   e 2 oX&X    &X*X-X&X-X&X    < k k     &X&X    -X&XOX        &X  -X&X#X-X&X+X    B G ` @ ",
"( R { ` ( V F D <     OX-X              d U OX%X  &X&XT I OX&X-X&X    3 E     &X&X    &X&X-X        &X    &X-X&X#X+X  . ..@.{ . ",
"o X @ # X X X . O     OX&X            &X&X%X%X-X  &X&Xs e -X%X&X-X%X    O     %X-X      %X-X        =X    &X=X-X=XoX    # @ @ . ",
"d.B.7X}.x.h.z.X q.7     %X  %X%X    -X%X%X  &X%X  =X%X1   =X  %X%X%X%X    t     %X      &X%X        -X    =X-X%X%XH.X & 8X2Xc.y.",
"d.b.2X3X{.c.n.# y.4.w       =X%X%X%X!.=X  =X%X%X  =X%X    =X    %X%X=X%X        %X      %X%X    %XOX%X=X%XOX%X=X      a eX Xc.2.",
"} 9.l.b.c.d.n.= w.q.4.q       %X!.%X%X=X    %X    =XH.    %X      %X%X=X    7           %XR.%X!.!.R.%X!.!.R.%X    & y 8.v.n.w.9.",
"{ ^ $.0.w.r.p., :.@.0.y.' 4     !.%X  R.    R.      Y     !.R.    R.R.R.            R.%X!.!.=XR.R.R.%XR.!.%X    6 Q 0.| 9.r.>.;.",
"! D ! ../ ~ / > ` -.,.=.3     R.~.R.            3       R.R.R.    !.R.R.R.      R.R.R.R.R.R.R.E.~.R.R.    R.    E ) ! R ! ` ` ! ",
"! ! G G A G -.> ..+.*.F     Y.R.R.R.E.    &     z f     E.R.      E.  R.R.R.R.Y.~.  ~.E.!.Y.  E.    R.          O.G G G B G Z Z ",
"=.` _ ( ! ^ r.> ;.>._ 5     Y.Y.    Q.          4 ]     Y.Y.      Y.  T.Y.Y.E.Q.        Y.E.  Y.    R.      3 X =.;.=...` ! G D ",
"> # # # + X # > # @ O     Y.Y.      T.Y.    Y.          Q.Q.Y.    Y.    c G.E.Q.        Q.^.  Y.    T.    @ o @ # ; > @ - # o @ ",
"<XB.9XsXaXiXiXgXsX).    T.T.T.        T.    T.Y.        T.T.      T.      2 P T.Y.      L.T.        T.    SXfXaXDXKXDX7X0X,Xj.@ ",
"<XB.3XaXxXlXyXjX`.i     W.T.L.    w         L.L.        L.L.    O L.      $ $ P.L.      T.W.        L.    JXIXJXJXIXJXiX3XB.n.# ",
"u.q.s.[.}.aX3X5.p     L.L.L.                L.L.        L.L.      L.L.J.G.L L.W.L.      L.L.        L.    DXDXfXaXfX9X{.l.e.;.# ",
"_ ` 9.w.d.f.y.4     L.U.L.L.W.L.L.P 0       L.L.L.    L.U.L.L.W.L.U.L.L.W.L.L.          L.L.        L.    M.:Xg.w.d.q.3.0.@.O.# ",
"R _ ` ..` ^ _     I.I.L.K.K.K.K.K.K.K.L.K.K.L.K.L.    K.K.K.K.L.K.I.L.K.K.  K.    <     L.K.        K.    ! ^ ` O.^ G ` ` / ~ o ",
"N N S G G B N &             K.      I.I.K.K.K.F.K.K.      K.      K.    I.  I.    B &     K.        K.    B B A G S N N N G ` X ",
"` _ ` ` ..` B k <           K.        I.      I.          I.      I.    K.      < ` z     K.        I.    ( ! D G ( ` / ` @.>.# ",
"# ; : - # % . X @ @ o #     F.        F.      F.                  K.    F.      @ # @     F.              @ # X X @ # ; = # > # ",
"n.,XSXSX9X4Xn.. z.c..XsX    F.    u           F.    9X].q   u     F.    S.    X d.b..X    F.    /.q   7 4.B.z.+ z.B.4XaXDXSX5X,X",
"M.4XSXgX8X5XB.X y.B.9XgX    F.    `.w   6     F.    aXaXdXtXdX    F.    F.    o s.c.7X    F.    tXbXbX|.7Xb.M.# d..XiXjXKXsX5XV.",
";.M.6X5XB.M.w.# z.1X5X7X    D.    fXaX}.2.    F.    b.6. X7X2Xq         D.    o $.t.b.    F.    3XsX7XB..XM.w.- V.<Xb.5XAX4Xf.0.",
"@._ ;.e.i.r.;.> { i.m.m.7       4 M.C.f.e.    D.    0.| 3.3.e.' 4       D.    # 0.;.w.    D.    N.:XM.i.w.u.u.% <.0.q.} e.q.>.:.",
"~ ^ ~ ) ` ( R ; ^ ..,.,.F 3   8 l ) o.` `     D.    ! R R +.( ! / (     D.    @ ` G R     D.    =.,.=.-.-.>.-.> <.=.) / ~ ` ` ~ ",
"! G V A A C N @ ! ~ .. .! B V G N V K  .~     D.    ~ H A H D D G G     D.    # ` ! S 3       3 H  .G ) X. .+.> +._ A G Z A G N ",
"! _ ! ..-.{ Q . _ _ =.-.` ( G ! ` ` / ../     D.    +.:...! ~ ` ! G     D.    + [ ` O.E 3   8 W ....R ) +.>.p.> ;.` ^ / ! ../ A ",
"@ # o # - * @ @ + X ; = # % . o : @ @ O .     D.    # > % . # # X X     Z.    X O X ; - # # : > = - + O # > > ; X X O @ @ # # > ",
"t.4X4X}.7XsXDXhXiX2XaX7X{.c.t.. V.B.v.8.].    A.    7XAX9XB.n.@ q.l.    Z.    aX X7XDX6Xx.B.,X> 1X6X4X7XgXfXfX7X X|. X8X7Xz.y.# ",
"9.B.sXdXdXJXJXNXyXyXtX X[.c.d.# M.>X{.|.eX    Z.    lXaX X4Xz.O z.4Xu       a MXvXbXbXJX8.v.V.> ZX4X2XKXJXyXXXtXvXyXwXaXsXB.w.> ",
"w.f.l.7X8XsXFXsX X X4Xv.2.e.d.: N.:Xc.c.7Xi       u DXSXZXV.w.X j.V.7.6   i _.pXsXDXFX9XB.N.d.# m.N.B.7XgX7X X2X7XiX8X7Xz.f.u.; ",
":.;.;.y.d.f.M.V.f.q.y.e.| $.a.% >.0.p.n.n.2.t   7 2.d.e.9.0.@.@ [ } 0.e.e.M.f.d.f.z.d.w.| } ;.# p.u.q.r.N.m.N.M.N.N.f.f.9.=.{ # ",
"+./ ~ ` ..` ..=.{ ( ! ) _ ` ` . ^ ` -.-.+.O.,.:.:.../ ( G ..` o _ ( ! ! ..` ` _ ( / ( G N G ! # -.>...! ` ../ ^ ` ,.+...( ` ..# ",
" .~ G ~ ) G G ) G D V G G ) _ . C ~  . .~ G G J K D V G V ) / # / ( G G ~ G ! G D G K G S ! ..# &.-.X.G G ! B N A ) ~ J G _ ..# ",
"....=.+..._ _ ` O._ ! _ { =.{ + R { -.+.=...~ ` ~ ` ....{ =.{ @ @.` .._ / / -.` _ / +.O.` @.r.= >.:.>.+...` ! G ~ ..` ..+.:.;.@ ",
"# # * # # X # # > # @ @ @ # # + O + # % > = # # @ # = > - # X o X @ # # @ # = @ @ # > > @ # @ # # # # > > # # # # # @ @ # # @ o ",
"d.n.b.8XsXsXpXaXaX7X X X7XaXiXiXwX3X X7XGX6Xn.@ d.b.0XsX7X X X X X7XpX7X3XaXgX2X}.sXsXAXDXfXaXiXaX2X3XaXCXV.V.# M.>X4X2X7X7X4XV.",
"s.t.7XdXbXJXPXbXqXXXiXdXdXvXJXvXvXfXtXqX8X5Xc.o :XCXDXKXMXtXvXvXyXdXdXtXdXvXlXvXbXNXJXNXvXvXlXdXvXyXtX|. Xc.z.# h.c.3X_.aXpX6XC.",
"$.3.b.0X8XaX7X{.[. X XiXaXaX XsXsX7X{.b.M.B.m.. w.,XCXGXGX9XDXiXiXiX3X7XDXKXfX.X{.7XDXpX.XsXsXiX7X X Xl.b.M.n.# e.d.c.l. X4XM.u.",
"^ ^ e.y.w.f.q.9.y.f.d.f.f.f.w.d.N.d.y.n.i.} >.+ @.q.i.C.m.N.<Xn.d.M.f.d.n.V.V.<XN.m.N.V.t.w.f.M.d.y.q.e.9.;.>.@ ;.9.[ } e.r.@.{ ",
"l D ~ ( ~ ! _ _ +...` / / ` ! ^ ....` -.-.` ..# -...` ` ` ` =.+.` ` ` ) ..` O.<.1.<.:.:.{ ( ..O.` ( ^ ~ ! ....# &.) l G ` ! G ! ",
"h G A Z B B B B G G S B S S B N S Z G G ~  .X.: *.~ B B B Z Z H G Z A G H A H  .X. .J ~ H A K H Z N B m Z G ~ # X.G j G G S S V ",
"X > % # + + + # O # @ . + @ @ o + + # # # > = > > % . + @ . # > # # . # % % = > > > # # # % > % + . . X # % # = > > O % % # @ @ "
};
